M48
;DRILL file {KiCad (5.0.0)} date 10/10/18 12:23:49
;FORMAT={-:-/ absolute / inch / decimal}
FMAT,2
INCH,TZ
T1C0.0394
%
G90
G05
M72
T1
X3.8Y-3.75
X6.7Y-2.75
X6.7Y-2.85
X6.7Y-2.95
X6.7Y-3.05
X6.7Y-3.15
X5.Y-2.75
X5.Y-2.85
X5.Y-2.95
X5.Y-3.05
X5.Y-3.15
X7.2Y-3.35
X5.9Y-2.75
X5.9Y-2.85
X5.9Y-2.95
X5.9Y-3.05
X5.9Y-3.15
X4.8Y-2.75
X4.8Y-2.85
X4.8Y-2.95
X4.8Y-3.05
X4.8Y-3.15
X7.Y-3.35
X5.5Y-2.75
X5.5Y-2.85
X5.5Y-2.95
X5.5Y-3.05
X5.5Y-3.15
X3.7Y-3.85
X5.2Y-3.45
X5.2Y-3.55
X5.2Y-3.65
X5.2Y-3.75
X5.2Y-3.85
X5.Y-3.45
X5.Y-3.55
X5.Y-3.65
X5.Y-3.75
X5.Y-3.85
X4.Y-3.45
X4.Y-3.55
X4.Y-3.65
X4.Y-3.75
X4.Y-3.85
X6.7Y-3.45
X6.7Y-3.55
X6.7Y-3.65
X6.7Y-3.75
X6.7Y-3.85
X5.4Y-3.45
X5.4Y-3.55
X5.4Y-3.65
X5.4Y-3.75
X5.4Y-3.85
X3.8Y-3.95
X7.Y-3.85
X4.1Y-2.75
X4.1Y-2.85
X4.1Y-2.95
X4.1Y-3.05
X4.1Y-3.15
X3.9Y-2.75
X3.7Y-3.45
X3.7Y-3.35
X3.8Y-3.45
X6.6Y-2.75
X6.6Y-2.85
X6.6Y-2.95
X6.6Y-3.05
X6.6Y-3.15
X3.8Y-2.75
X7.Y-2.95
X5.7Y-2.75
X5.7Y-2.85
X5.7Y-2.95
X5.7Y-3.05
X5.7Y-3.15
X7.1Y-2.85
X5.2Y-2.75
X5.2Y-2.85
X5.2Y-2.95
X5.2Y-3.05
X5.2Y-3.15
X3.8Y-3.05
X3.9Y-3.65
X4.2Y-3.45
X4.2Y-3.55
X4.2Y-3.65
X4.2Y-3.75
X4.2Y-3.85
X5.5Y-3.45
X5.5Y-3.55
X5.5Y-3.65
X5.5Y-3.75
X5.5Y-3.85
X5.9Y-3.45
X5.9Y-3.55
X5.9Y-3.65
X5.9Y-3.75
X5.9Y-3.85
X6.1Y-3.45
X6.1Y-3.55
X6.1Y-3.65
X6.1Y-3.75
X6.1Y-3.85
X4.Y-2.75
X4.Y-2.85
X4.Y-2.95
X4.Y-3.05
X4.Y-3.15
X7.2Y-3.25
X7.1Y-3.95
X4.5Y-2.75
X4.5Y-2.85
X4.5Y-2.95
X4.5Y-3.05
X4.5Y-3.15
X5.1Y-2.75
X5.1Y-2.85
X5.1Y-2.95
X5.1Y-3.05
X5.1Y-3.15
X7.1Y-3.55
X3.9Y-3.25
X7.Y-2.85
X5.8Y-2.75
X5.8Y-2.85
X5.8Y-2.95
X5.8Y-3.05
X5.8Y-3.15
X3.8Y-3.85
X6.5Y-2.75
X6.5Y-2.85
X6.5Y-2.95
X6.5Y-3.05
X6.5Y-3.15
X4.7Y-2.75
X4.7Y-2.85
X4.7Y-2.95
X4.7Y-3.05
X4.7Y-3.15
X7.Y-2.75
X6.3Y-2.75
X6.3Y-2.85
X6.3Y-2.95
X6.3Y-3.05
X6.3Y-3.15
X3.8Y-3.25
X7.2Y-3.45
X4.8Y-3.45
X4.8Y-3.55
X4.8Y-3.65
X4.8Y-3.75
X4.8Y-3.85
X6.5Y-3.45
X6.5Y-3.55
X6.5Y-3.65
X6.5Y-3.75
X6.5Y-3.85
X5.7Y-3.45
X5.7Y-3.55
X5.7Y-3.65
X5.7Y-3.75
X5.7Y-3.85
X5.6Y-3.45
X5.6Y-3.55
X5.6Y-3.65
X5.6Y-3.75
X5.6Y-3.85
X5.3Y-3.45
X5.3Y-3.55
X5.3Y-3.65
X5.3Y-3.75
X5.3Y-3.85
X4.2Y-4.15
X4.3Y-4.15
X4.4Y-4.15
X4.5Y-4.15
X4.6Y-4.15
X4.7Y-4.15
X4.8Y-4.15
X4.9Y-4.15
X5.Y-4.15
X5.1Y-4.15
X5.2Y-4.15
X5.3Y-4.15
X5.4Y-4.15
X5.5Y-4.15
X5.6Y-4.15
X5.7Y-4.15
X5.8Y-4.15
X5.9Y-4.15
X6.Y-4.15
X6.1Y-4.15
X6.2Y-4.15
X6.3Y-4.15
X6.4Y-4.15
X6.5Y-4.15
X6.6Y-4.15
X6.7Y-4.15
X7.1Y-3.25
X7.1Y-2.65
X3.7Y-3.95
X3.7Y-3.05
X7.1Y-3.15
X3.7Y-3.25
X7.Y-3.15
X6.2Y-2.75
X6.2Y-2.85
X6.2Y-2.95
X6.2Y-3.05
X6.2Y-3.15
X3.7Y-2.85
X3.9Y-3.75
X6.8Y-2.75
X6.8Y-2.85
X6.8Y-2.95
X6.8Y-3.05
X6.8Y-3.15
X7.1Y-3.35
X3.9Y-2.95
X7.2Y-3.05
X4.3Y-3.45
X4.3Y-3.55
X4.3Y-3.65
X4.3Y-3.75
X4.3Y-3.85
X4.5Y-3.45
X4.5Y-3.55
X4.5Y-3.65
X4.5Y-3.75
X4.5Y-3.85
X6.Y-3.45
X6.Y-3.55
X6.Y-3.65
X6.Y-3.75
X6.Y-3.85
X5.1Y-3.45
X5.1Y-3.55
X5.1Y-3.65
X5.1Y-3.75
X5.1Y-3.85
X3.7Y-2.65
X7.1Y-3.85
X7.2Y-2.95
X7.2Y-3.95
X7.1Y-3.45
X7.2Y-2.75
X3.9Y-2.85
X3.7Y-3.65
X3.8Y-3.15
X7.Y-3.25
X5.3Y-2.75
X5.3Y-2.85
X5.3Y-2.95
X5.3Y-3.05
X5.3Y-3.15
X3.8Y-3.55
X6.4Y-2.75
X6.4Y-2.85
X6.4Y-2.95
X6.4Y-3.05
X6.4Y-3.15
X3.9Y-3.15
X7.Y-3.45
X4.9Y-2.75
X4.9Y-2.85
X4.9Y-2.95
X4.9Y-3.05
X4.9Y-3.15
X3.7Y-3.75
X6.8Y-3.45
X6.8Y-3.55
X6.8Y-3.65
X6.8Y-3.75
X6.8Y-3.85
X4.7Y-3.45
X4.7Y-3.55
X4.7Y-3.65
X4.7Y-3.75
X4.7Y-3.85
X6.2Y-3.45
X6.2Y-3.55
X6.2Y-3.65
X6.2Y-3.75
X6.2Y-3.85
X4.2Y-4.05
X4.3Y-4.05
X4.4Y-4.05
X4.5Y-4.05
X4.6Y-4.05
X4.7Y-4.05
X4.8Y-4.05
X4.9Y-4.05
X5.Y-4.05
X5.1Y-4.05
X5.2Y-4.05
X5.3Y-4.05
X5.4Y-4.05
X5.5Y-4.05
X5.6Y-4.05
X5.7Y-4.05
X5.8Y-4.05
X5.9Y-4.05
X6.Y-4.05
X6.1Y-4.05
X6.2Y-4.05
X6.3Y-4.05
X6.4Y-4.05
X6.5Y-4.05
X6.6Y-4.05
X6.7Y-4.05
X3.8Y-2.65
X7.2Y-3.65
X7.Y-3.05
X7.1Y-2.75
X7.2Y-3.55
X4.3Y-2.75
X4.3Y-2.85
X4.3Y-2.95
X4.3Y-3.05
X4.3Y-3.15
X3.7Y-3.55
X3.7Y-2.95
X7.2Y-3.15
X5.4Y-2.75
X5.4Y-2.85
X5.4Y-2.95
X5.4Y-3.05
X5.4Y-3.15
X3.9Y-3.45
X6.1Y-2.75
X6.1Y-2.85
X6.1Y-2.95
X6.1Y-3.05
X6.1Y-3.15
X3.9Y-3.05
X3.9Y-3.85
X6.9Y-3.45
X6.9Y-3.55
X6.9Y-3.65
X6.9Y-3.75
X6.9Y-3.85
X6.6Y-3.45
X6.6Y-3.55
X6.6Y-3.65
X6.6Y-3.75
X6.6Y-3.85
X4.1Y-3.45
X4.1Y-3.55
X4.1Y-3.65
X4.1Y-3.75
X4.1Y-3.85
X6.3Y-3.45
X6.3Y-3.55
X6.3Y-3.65
X6.3Y-3.75
X6.3Y-3.85
X4.2Y-2.45
X4.3Y-2.45
X4.4Y-2.45
X4.5Y-2.45
X4.6Y-2.45
X4.7Y-2.45
X4.8Y-2.45
X4.9Y-2.45
X5.Y-2.45
X5.1Y-2.45
X5.2Y-2.45
X5.3Y-2.45
X5.4Y-2.45
X5.5Y-2.45
X5.6Y-2.45
X5.7Y-2.45
X5.8Y-2.45
X5.9Y-2.45
X6.Y-2.45
X6.1Y-2.45
X6.2Y-2.45
X6.3Y-2.45
X6.4Y-2.45
X6.5Y-2.45
X6.6Y-2.45
X6.7Y-2.45
X7.1Y-3.75
X7.Y-3.75
X7.1Y-3.65
X7.2Y-2.85
X4.6Y-2.75
X4.6Y-2.85
X4.6Y-2.95
X4.6Y-3.05
X4.6Y-3.15
X3.9Y-3.55
X4.2Y-2.75
X4.2Y-2.85
X4.2Y-2.95
X4.2Y-3.05
X4.2Y-3.15
X3.8Y-3.65
X6.9Y-2.75
X6.9Y-2.85
X6.9Y-2.95
X6.9Y-3.05
X6.9Y-3.15
X3.8Y-2.85
X7.Y-3.55
X5.6Y-2.75
X5.6Y-2.85
X5.6Y-2.95
X5.6Y-3.05
X5.6Y-3.15
X3.7Y-2.75
X7.1Y-2.95
X6.Y-2.75
X6.Y-2.85
X6.Y-2.95
X6.Y-3.05
X6.Y-3.15
X3.8Y-2.95
X3.9Y-3.35
X5.8Y-3.45
X5.8Y-3.55
X5.8Y-3.65
X5.8Y-3.75
X5.8Y-3.85
X6.4Y-3.45
X6.4Y-3.55
X6.4Y-3.65
X6.4Y-3.75
X6.4Y-3.85
X4.4Y-3.45
X4.4Y-3.55
X4.4Y-3.65
X4.4Y-3.75
X4.4Y-3.85
X4.6Y-3.45
X4.6Y-3.55
X4.6Y-3.65
X4.6Y-3.75
X4.6Y-3.85
X4.9Y-3.45
X4.9Y-3.55
X4.9Y-3.65
X4.9Y-3.75
X4.9Y-3.85
X4.2Y-2.55
X4.3Y-2.55
X4.4Y-2.55
X4.5Y-2.55
X4.6Y-2.55
X4.7Y-2.55
X4.8Y-2.55
X4.9Y-2.55
X5.Y-2.55
X5.1Y-2.55
X5.2Y-2.55
X5.3Y-2.55
X5.4Y-2.55
X5.5Y-2.55
X5.6Y-2.55
X5.7Y-2.55
X5.8Y-2.55
X5.9Y-2.55
X6.Y-2.55
X6.1Y-2.55
X6.2Y-2.55
X6.3Y-2.55
X6.4Y-2.55
X6.5Y-2.55
X6.6Y-2.55
X6.7Y-2.55
X7.2Y-3.75
X7.2Y-3.85
X7.2Y-2.65
X7.Y-3.65
X4.4Y-2.75
X4.4Y-2.85
X4.4Y-2.95
X4.4Y-3.05
X4.4Y-3.15
X3.7Y-3.15
X7.1Y-3.05
X3.8Y-3.35
T0
M30
