G04 #@! TF.GenerationSoftware,KiCad,Pcbnew,(5.0.0)*
G04 #@! TF.CreationDate,2018-10-10T12:23:29-06:00*
G04 #@! TF.ProjectId,AltoidsPCB,416C746F6964735043422E6B69636164,rev?*
G04 #@! TF.SameCoordinates,Original*
G04 #@! TF.FileFunction,Soldermask,Top*
G04 #@! TF.FilePolarity,Negative*
%FSLAX46Y46*%
G04 Gerber Fmt 4.6, Leading zero omitted, Abs format (unit mm)*
G04 Created by KiCad (PCBNEW (5.0.0)) date 10/10/18 12:23:29*
%MOMM*%
%LPD*%
G01*
G04 APERTURE LIST*
%ADD10R,2.100000X2.100000*%
%ADD11O,2.100000X2.100000*%
%ADD12C,2.100000*%
G04 APERTURE END LIST*
D10*
G04 #@! TO.C,J2*
X106680000Y-105410000D03*
D11*
X109220000Y-105410000D03*
X111760000Y-105410000D03*
X114300000Y-105410000D03*
X116840000Y-105410000D03*
X119380000Y-105410000D03*
X121920000Y-105410000D03*
X124460000Y-105410000D03*
X127000000Y-105410000D03*
X129540000Y-105410000D03*
X132080000Y-105410000D03*
X134620000Y-105410000D03*
X137160000Y-105410000D03*
X139700000Y-105410000D03*
X142240000Y-105410000D03*
X144780000Y-105410000D03*
X147320000Y-105410000D03*
X149860000Y-105410000D03*
X152400000Y-105410000D03*
X154940000Y-105410000D03*
X157480000Y-105410000D03*
X160020000Y-105410000D03*
X162560000Y-105410000D03*
X165100000Y-105410000D03*
X167640000Y-105410000D03*
X170180000Y-105410000D03*
G04 #@! TD*
D10*
G04 #@! TO.C,J2*
X170180000Y-102870000D03*
D11*
X167640000Y-102870000D03*
X165100000Y-102870000D03*
X162560000Y-102870000D03*
X160020000Y-102870000D03*
X157480000Y-102870000D03*
X154940000Y-102870000D03*
X152400000Y-102870000D03*
X149860000Y-102870000D03*
X147320000Y-102870000D03*
X144780000Y-102870000D03*
X142240000Y-102870000D03*
X139700000Y-102870000D03*
X137160000Y-102870000D03*
X134620000Y-102870000D03*
X132080000Y-102870000D03*
X129540000Y-102870000D03*
X127000000Y-102870000D03*
X124460000Y-102870000D03*
X121920000Y-102870000D03*
X119380000Y-102870000D03*
X116840000Y-102870000D03*
X114300000Y-102870000D03*
X111760000Y-102870000D03*
X109220000Y-102870000D03*
X106680000Y-102870000D03*
G04 #@! TD*
D10*
G04 #@! TO.C,J2*
X170180000Y-62230000D03*
D11*
X167640000Y-62230000D03*
X165100000Y-62230000D03*
X162560000Y-62230000D03*
X160020000Y-62230000D03*
X157480000Y-62230000D03*
X154940000Y-62230000D03*
X152400000Y-62230000D03*
X149860000Y-62230000D03*
X147320000Y-62230000D03*
X144780000Y-62230000D03*
X142240000Y-62230000D03*
X139700000Y-62230000D03*
X137160000Y-62230000D03*
X134620000Y-62230000D03*
X132080000Y-62230000D03*
X129540000Y-62230000D03*
X127000000Y-62230000D03*
X124460000Y-62230000D03*
X121920000Y-62230000D03*
X119380000Y-62230000D03*
X116840000Y-62230000D03*
X114300000Y-62230000D03*
X111760000Y-62230000D03*
X109220000Y-62230000D03*
X106680000Y-62230000D03*
G04 #@! TD*
D10*
G04 #@! TO.C,J2*
X106680000Y-64770000D03*
D11*
X109220000Y-64770000D03*
X111760000Y-64770000D03*
X114300000Y-64770000D03*
X116840000Y-64770000D03*
X119380000Y-64770000D03*
X121920000Y-64770000D03*
X124460000Y-64770000D03*
X127000000Y-64770000D03*
X129540000Y-64770000D03*
X132080000Y-64770000D03*
X134620000Y-64770000D03*
X137160000Y-64770000D03*
X139700000Y-64770000D03*
X142240000Y-64770000D03*
X144780000Y-64770000D03*
X147320000Y-64770000D03*
X149860000Y-64770000D03*
X152400000Y-64770000D03*
X154940000Y-64770000D03*
X157480000Y-64770000D03*
X160020000Y-64770000D03*
X162560000Y-64770000D03*
X165100000Y-64770000D03*
X167640000Y-64770000D03*
X170180000Y-64770000D03*
G04 #@! TD*
D10*
G04 #@! TO.C,J1*
X114300000Y-97790000D03*
D11*
X114300000Y-95250000D03*
X114300000Y-92710000D03*
X114300000Y-90170000D03*
X114300000Y-87630000D03*
G04 #@! TD*
D10*
G04 #@! TO.C,J1*
X104140000Y-97790000D03*
D11*
X104140000Y-95250000D03*
X104140000Y-92710000D03*
X104140000Y-90170000D03*
X104140000Y-87630000D03*
G04 #@! TD*
D10*
G04 #@! TO.C,J1*
X119380000Y-97790000D03*
D11*
X119380000Y-95250000D03*
X119380000Y-92710000D03*
X119380000Y-90170000D03*
X119380000Y-87630000D03*
G04 #@! TD*
D10*
G04 #@! TO.C,J1*
X116840000Y-97790000D03*
D11*
X116840000Y-95250000D03*
X116840000Y-92710000D03*
X116840000Y-90170000D03*
X116840000Y-87630000D03*
G04 #@! TD*
D10*
G04 #@! TO.C,J1*
X111760000Y-97790000D03*
D11*
X111760000Y-95250000D03*
X111760000Y-92710000D03*
X111760000Y-90170000D03*
X111760000Y-87630000D03*
G04 #@! TD*
D10*
G04 #@! TO.C,J1*
X106680000Y-97790000D03*
D11*
X106680000Y-95250000D03*
X106680000Y-92710000D03*
X106680000Y-90170000D03*
X106680000Y-87630000D03*
G04 #@! TD*
D10*
G04 #@! TO.C,J1*
X121920000Y-97790000D03*
D11*
X121920000Y-95250000D03*
X121920000Y-92710000D03*
X121920000Y-90170000D03*
X121920000Y-87630000D03*
G04 #@! TD*
D10*
G04 #@! TO.C,J1*
X109220000Y-97790000D03*
D11*
X109220000Y-95250000D03*
X109220000Y-92710000D03*
X109220000Y-90170000D03*
X109220000Y-87630000D03*
G04 #@! TD*
D10*
G04 #@! TO.C,J1*
X101600000Y-97790000D03*
D11*
X101600000Y-95250000D03*
X101600000Y-92710000D03*
X101600000Y-90170000D03*
X101600000Y-87630000D03*
G04 #@! TD*
D10*
G04 #@! TO.C,J1*
X172720000Y-97790000D03*
D11*
X172720000Y-95250000D03*
X172720000Y-92710000D03*
X172720000Y-90170000D03*
X172720000Y-87630000D03*
G04 #@! TD*
D10*
G04 #@! TO.C,J1*
X154940000Y-97790000D03*
D11*
X154940000Y-95250000D03*
X154940000Y-92710000D03*
X154940000Y-90170000D03*
X154940000Y-87630000D03*
G04 #@! TD*
D10*
G04 #@! TO.C,J1*
X149860000Y-97790000D03*
D11*
X149860000Y-95250000D03*
X149860000Y-92710000D03*
X149860000Y-90170000D03*
X149860000Y-87630000D03*
G04 #@! TD*
D10*
G04 #@! TO.C,J1*
X170180000Y-97790000D03*
D11*
X170180000Y-95250000D03*
X170180000Y-92710000D03*
X170180000Y-90170000D03*
X170180000Y-87630000D03*
G04 #@! TD*
D10*
G04 #@! TO.C,J1*
X152400000Y-97790000D03*
D11*
X152400000Y-95250000D03*
X152400000Y-92710000D03*
X152400000Y-90170000D03*
X152400000Y-87630000D03*
G04 #@! TD*
D10*
G04 #@! TO.C,J1*
X157480000Y-97790000D03*
D11*
X157480000Y-95250000D03*
X157480000Y-92710000D03*
X157480000Y-90170000D03*
X157480000Y-87630000D03*
G04 #@! TD*
D10*
G04 #@! TO.C,J1*
X160020000Y-97790000D03*
D11*
X160020000Y-95250000D03*
X160020000Y-92710000D03*
X160020000Y-90170000D03*
X160020000Y-87630000D03*
G04 #@! TD*
D10*
G04 #@! TO.C,J1*
X162560000Y-97790000D03*
D11*
X162560000Y-95250000D03*
X162560000Y-92710000D03*
X162560000Y-90170000D03*
X162560000Y-87630000D03*
G04 #@! TD*
D10*
G04 #@! TO.C,J1*
X147320000Y-97790000D03*
D11*
X147320000Y-95250000D03*
X147320000Y-92710000D03*
X147320000Y-90170000D03*
X147320000Y-87630000D03*
G04 #@! TD*
D10*
G04 #@! TO.C,J1*
X142240000Y-97790000D03*
D11*
X142240000Y-95250000D03*
X142240000Y-92710000D03*
X142240000Y-90170000D03*
X142240000Y-87630000D03*
G04 #@! TD*
D10*
G04 #@! TO.C,J1*
X165100000Y-97790000D03*
D11*
X165100000Y-95250000D03*
X165100000Y-92710000D03*
X165100000Y-90170000D03*
X165100000Y-87630000D03*
G04 #@! TD*
D10*
G04 #@! TO.C,J1*
X167640000Y-97790000D03*
D11*
X167640000Y-95250000D03*
X167640000Y-92710000D03*
X167640000Y-90170000D03*
X167640000Y-87630000D03*
G04 #@! TD*
D10*
G04 #@! TO.C,J1*
X144780000Y-97790000D03*
D11*
X144780000Y-95250000D03*
X144780000Y-92710000D03*
X144780000Y-90170000D03*
X144780000Y-87630000D03*
G04 #@! TD*
D10*
G04 #@! TO.C,J1*
X139700000Y-97790000D03*
D11*
X139700000Y-95250000D03*
X139700000Y-92710000D03*
X139700000Y-90170000D03*
X139700000Y-87630000D03*
G04 #@! TD*
D10*
G04 #@! TO.C,J1*
X132080000Y-97790000D03*
D11*
X132080000Y-95250000D03*
X132080000Y-92710000D03*
X132080000Y-90170000D03*
X132080000Y-87630000D03*
G04 #@! TD*
D10*
G04 #@! TO.C,J1*
X134620000Y-97790000D03*
D11*
X134620000Y-95250000D03*
X134620000Y-92710000D03*
X134620000Y-90170000D03*
X134620000Y-87630000D03*
G04 #@! TD*
D10*
G04 #@! TO.C,J1*
X175260000Y-97790000D03*
D11*
X175260000Y-95250000D03*
X175260000Y-92710000D03*
X175260000Y-90170000D03*
X175260000Y-87630000D03*
G04 #@! TD*
D10*
G04 #@! TO.C,J1*
X137160000Y-97790000D03*
D11*
X137160000Y-95250000D03*
X137160000Y-92710000D03*
X137160000Y-90170000D03*
X137160000Y-87630000D03*
G04 #@! TD*
D10*
G04 #@! TO.C,J1*
X129540000Y-97790000D03*
D11*
X129540000Y-95250000D03*
X129540000Y-92710000D03*
X129540000Y-90170000D03*
X129540000Y-87630000D03*
G04 #@! TD*
D10*
G04 #@! TO.C,J1*
X124460000Y-97790000D03*
D11*
X124460000Y-95250000D03*
X124460000Y-92710000D03*
X124460000Y-90170000D03*
X124460000Y-87630000D03*
G04 #@! TD*
D10*
G04 #@! TO.C,J1*
X127000000Y-97790000D03*
D11*
X127000000Y-95250000D03*
X127000000Y-92710000D03*
X127000000Y-90170000D03*
X127000000Y-87630000D03*
G04 #@! TD*
D10*
G04 #@! TO.C,J1*
X175260000Y-69850000D03*
D11*
X175260000Y-72390000D03*
X175260000Y-74930000D03*
X175260000Y-77470000D03*
X175260000Y-80010000D03*
G04 #@! TD*
D10*
G04 #@! TO.C,J1*
X172720000Y-69850000D03*
D11*
X172720000Y-72390000D03*
X172720000Y-74930000D03*
X172720000Y-77470000D03*
X172720000Y-80010000D03*
G04 #@! TD*
D10*
G04 #@! TO.C,J1*
X170180000Y-69850000D03*
D11*
X170180000Y-72390000D03*
X170180000Y-74930000D03*
X170180000Y-77470000D03*
X170180000Y-80010000D03*
G04 #@! TD*
D10*
G04 #@! TO.C,J1*
X167640000Y-69850000D03*
D11*
X167640000Y-72390000D03*
X167640000Y-74930000D03*
X167640000Y-77470000D03*
X167640000Y-80010000D03*
G04 #@! TD*
D10*
G04 #@! TO.C,J1*
X165100000Y-69850000D03*
D11*
X165100000Y-72390000D03*
X165100000Y-74930000D03*
X165100000Y-77470000D03*
X165100000Y-80010000D03*
G04 #@! TD*
D10*
G04 #@! TO.C,J1*
X162560000Y-69850000D03*
D11*
X162560000Y-72390000D03*
X162560000Y-74930000D03*
X162560000Y-77470000D03*
X162560000Y-80010000D03*
G04 #@! TD*
D10*
G04 #@! TO.C,J1*
X160020000Y-69850000D03*
D11*
X160020000Y-72390000D03*
X160020000Y-74930000D03*
X160020000Y-77470000D03*
X160020000Y-80010000D03*
G04 #@! TD*
D10*
G04 #@! TO.C,J1*
X157480000Y-69850000D03*
D11*
X157480000Y-72390000D03*
X157480000Y-74930000D03*
X157480000Y-77470000D03*
X157480000Y-80010000D03*
G04 #@! TD*
D10*
G04 #@! TO.C,J1*
X154940000Y-69850000D03*
D11*
X154940000Y-72390000D03*
X154940000Y-74930000D03*
X154940000Y-77470000D03*
X154940000Y-80010000D03*
G04 #@! TD*
D10*
G04 #@! TO.C,J1*
X152400000Y-69850000D03*
D11*
X152400000Y-72390000D03*
X152400000Y-74930000D03*
X152400000Y-77470000D03*
X152400000Y-80010000D03*
G04 #@! TD*
D10*
G04 #@! TO.C,J1*
X149860000Y-69850000D03*
D11*
X149860000Y-72390000D03*
X149860000Y-74930000D03*
X149860000Y-77470000D03*
X149860000Y-80010000D03*
G04 #@! TD*
D10*
G04 #@! TO.C,J1*
X147320000Y-69850000D03*
D11*
X147320000Y-72390000D03*
X147320000Y-74930000D03*
X147320000Y-77470000D03*
X147320000Y-80010000D03*
G04 #@! TD*
D10*
G04 #@! TO.C,J1*
X144780000Y-69850000D03*
D11*
X144780000Y-72390000D03*
X144780000Y-74930000D03*
X144780000Y-77470000D03*
X144780000Y-80010000D03*
G04 #@! TD*
D10*
G04 #@! TO.C,J1*
X142240000Y-69850000D03*
D11*
X142240000Y-72390000D03*
X142240000Y-74930000D03*
X142240000Y-77470000D03*
X142240000Y-80010000D03*
G04 #@! TD*
D10*
G04 #@! TO.C,J1*
X139700000Y-69850000D03*
D11*
X139700000Y-72390000D03*
X139700000Y-74930000D03*
X139700000Y-77470000D03*
X139700000Y-80010000D03*
G04 #@! TD*
D10*
G04 #@! TO.C,J1*
X137160000Y-69850000D03*
D11*
X137160000Y-72390000D03*
X137160000Y-74930000D03*
X137160000Y-77470000D03*
X137160000Y-80010000D03*
G04 #@! TD*
D10*
G04 #@! TO.C,J1*
X134620000Y-69850000D03*
D11*
X134620000Y-72390000D03*
X134620000Y-74930000D03*
X134620000Y-77470000D03*
X134620000Y-80010000D03*
G04 #@! TD*
D10*
G04 #@! TO.C,J1*
X132080000Y-69850000D03*
D11*
X132080000Y-72390000D03*
X132080000Y-74930000D03*
X132080000Y-77470000D03*
X132080000Y-80010000D03*
G04 #@! TD*
D10*
G04 #@! TO.C,J1*
X129540000Y-69850000D03*
D11*
X129540000Y-72390000D03*
X129540000Y-74930000D03*
X129540000Y-77470000D03*
X129540000Y-80010000D03*
G04 #@! TD*
D10*
G04 #@! TO.C,J1*
X127000000Y-69850000D03*
D11*
X127000000Y-72390000D03*
X127000000Y-74930000D03*
X127000000Y-77470000D03*
X127000000Y-80010000D03*
G04 #@! TD*
D10*
G04 #@! TO.C,J1*
X124460000Y-69850000D03*
D11*
X124460000Y-72390000D03*
X124460000Y-74930000D03*
X124460000Y-77470000D03*
X124460000Y-80010000D03*
G04 #@! TD*
D10*
G04 #@! TO.C,J1*
X121920000Y-69850000D03*
D11*
X121920000Y-72390000D03*
X121920000Y-74930000D03*
X121920000Y-77470000D03*
X121920000Y-80010000D03*
G04 #@! TD*
D10*
G04 #@! TO.C,J1*
X119380000Y-69850000D03*
D11*
X119380000Y-72390000D03*
X119380000Y-74930000D03*
X119380000Y-77470000D03*
X119380000Y-80010000D03*
G04 #@! TD*
D10*
G04 #@! TO.C,J1*
X116840000Y-69850000D03*
D11*
X116840000Y-72390000D03*
X116840000Y-74930000D03*
X116840000Y-77470000D03*
X116840000Y-80010000D03*
G04 #@! TD*
D10*
G04 #@! TO.C,J1*
X114300000Y-69850000D03*
D11*
X114300000Y-72390000D03*
X114300000Y-74930000D03*
X114300000Y-77470000D03*
X114300000Y-80010000D03*
G04 #@! TD*
D10*
G04 #@! TO.C,J1*
X111760000Y-69850000D03*
D11*
X111760000Y-72390000D03*
X111760000Y-74930000D03*
X111760000Y-77470000D03*
X111760000Y-80010000D03*
G04 #@! TD*
D10*
G04 #@! TO.C,J1*
X109220000Y-69850000D03*
D11*
X109220000Y-72390000D03*
X109220000Y-74930000D03*
X109220000Y-77470000D03*
X109220000Y-80010000D03*
G04 #@! TD*
D10*
G04 #@! TO.C,J1*
X106680000Y-69850000D03*
D11*
X106680000Y-72390000D03*
X106680000Y-74930000D03*
X106680000Y-77470000D03*
X106680000Y-80010000D03*
G04 #@! TD*
D10*
G04 #@! TO.C,J1*
X104140000Y-69850000D03*
D11*
X104140000Y-72390000D03*
X104140000Y-74930000D03*
X104140000Y-77470000D03*
X104140000Y-80010000D03*
G04 #@! TD*
D10*
G04 #@! TO.C,J1*
X101600000Y-69850000D03*
D11*
X101600000Y-72390000D03*
X101600000Y-74930000D03*
X101600000Y-77470000D03*
X101600000Y-80010000D03*
G04 #@! TD*
D12*
G04 #@! TO.C,J3*
X93980000Y-67310000D03*
G04 #@! TD*
G04 #@! TO.C,J3*
X182880000Y-67310000D03*
G04 #@! TD*
G04 #@! TO.C,J3*
X180340000Y-67310000D03*
G04 #@! TD*
G04 #@! TO.C,J3*
X182880000Y-100330000D03*
G04 #@! TD*
G04 #@! TO.C,J3*
X180340000Y-100330000D03*
G04 #@! TD*
G04 #@! TO.C,J3*
X93980000Y-100330000D03*
G04 #@! TD*
G04 #@! TO.C,J3*
X96520000Y-100330000D03*
G04 #@! TD*
G04 #@! TO.C,J3*
X96520000Y-67310000D03*
G04 #@! TD*
G04 #@! TO.C,J3*
X180340000Y-95250000D03*
G04 #@! TD*
G04 #@! TO.C,J3*
X180340000Y-97790000D03*
G04 #@! TD*
G04 #@! TO.C,J3*
X182880000Y-97790000D03*
G04 #@! TD*
G04 #@! TO.C,J3*
X177800000Y-92710000D03*
G04 #@! TD*
G04 #@! TO.C,J3*
X177800000Y-95250000D03*
G04 #@! TD*
G04 #@! TO.C,J3*
X182880000Y-92710000D03*
G04 #@! TD*
G04 #@! TO.C,J3*
X180340000Y-92710000D03*
G04 #@! TD*
G04 #@! TO.C,J3*
X182880000Y-95250000D03*
G04 #@! TD*
G04 #@! TO.C,J3*
X177800000Y-97790000D03*
G04 #@! TD*
G04 #@! TO.C,J3*
X182880000Y-69850000D03*
G04 #@! TD*
G04 #@! TO.C,J3*
X180340000Y-69850000D03*
G04 #@! TD*
G04 #@! TO.C,J3*
X182880000Y-82550000D03*
G04 #@! TD*
G04 #@! TO.C,J3*
X182880000Y-74930000D03*
G04 #@! TD*
G04 #@! TO.C,J3*
X177800000Y-77470000D03*
G04 #@! TD*
G04 #@! TO.C,J3*
X182880000Y-72390000D03*
G04 #@! TD*
G04 #@! TO.C,J3*
X180340000Y-82550000D03*
G04 #@! TD*
G04 #@! TO.C,J3*
X177800000Y-82550000D03*
G04 #@! TD*
G04 #@! TO.C,J3*
X182880000Y-80010000D03*
G04 #@! TD*
G04 #@! TO.C,J3*
X177800000Y-80010000D03*
G04 #@! TD*
G04 #@! TO.C,J3*
X177800000Y-90170000D03*
G04 #@! TD*
G04 #@! TO.C,J3*
X182880000Y-85090000D03*
G04 #@! TD*
G04 #@! TO.C,J3*
X180340000Y-74930000D03*
G04 #@! TD*
G04 #@! TO.C,J3*
X177800000Y-85090000D03*
G04 #@! TD*
G04 #@! TO.C,J3*
X177800000Y-72390000D03*
G04 #@! TD*
G04 #@! TO.C,J3*
X180340000Y-72390000D03*
G04 #@! TD*
G04 #@! TO.C,J3*
X180340000Y-85090000D03*
G04 #@! TD*
G04 #@! TO.C,J3*
X180340000Y-77470000D03*
G04 #@! TD*
G04 #@! TO.C,J3*
X180340000Y-90170000D03*
G04 #@! TD*
G04 #@! TO.C,J3*
X182880000Y-87630000D03*
G04 #@! TD*
G04 #@! TO.C,J3*
X182880000Y-77470000D03*
G04 #@! TD*
G04 #@! TO.C,J3*
X177800000Y-69850000D03*
G04 #@! TD*
G04 #@! TO.C,J3*
X180340000Y-87630000D03*
G04 #@! TD*
G04 #@! TO.C,J3*
X177800000Y-74930000D03*
G04 #@! TD*
G04 #@! TO.C,J3*
X180340000Y-80010000D03*
G04 #@! TD*
G04 #@! TO.C,J3*
X177800000Y-87630000D03*
G04 #@! TD*
G04 #@! TO.C,J3*
X182880000Y-90170000D03*
G04 #@! TD*
G04 #@! TO.C,J3*
X99060000Y-97790000D03*
G04 #@! TD*
G04 #@! TO.C,J3*
X96520000Y-97790000D03*
G04 #@! TD*
G04 #@! TO.C,J3*
X93980000Y-97790000D03*
G04 #@! TD*
G04 #@! TO.C,J3*
X99060000Y-95250000D03*
G04 #@! TD*
G04 #@! TO.C,J3*
X96520000Y-95250000D03*
G04 #@! TD*
G04 #@! TO.C,J3*
X93980000Y-95250000D03*
G04 #@! TD*
G04 #@! TO.C,J3*
X99060000Y-92710000D03*
G04 #@! TD*
G04 #@! TO.C,J3*
X96520000Y-92710000D03*
G04 #@! TD*
G04 #@! TO.C,J3*
X93980000Y-92710000D03*
G04 #@! TD*
G04 #@! TO.C,J3*
X99060000Y-90170000D03*
G04 #@! TD*
G04 #@! TO.C,J3*
X96520000Y-90170000D03*
G04 #@! TD*
G04 #@! TO.C,J3*
X93980000Y-90170000D03*
G04 #@! TD*
G04 #@! TO.C,J3*
X99060000Y-87630000D03*
G04 #@! TD*
G04 #@! TO.C,J3*
X96520000Y-87630000D03*
G04 #@! TD*
G04 #@! TO.C,J3*
X93980000Y-87630000D03*
G04 #@! TD*
G04 #@! TO.C,J3*
X99060000Y-85090000D03*
G04 #@! TD*
G04 #@! TO.C,J3*
X96520000Y-85090000D03*
G04 #@! TD*
G04 #@! TO.C,J3*
X93980000Y-85090000D03*
G04 #@! TD*
G04 #@! TO.C,J3*
X99060000Y-82550000D03*
G04 #@! TD*
G04 #@! TO.C,J3*
X96520000Y-82550000D03*
G04 #@! TD*
G04 #@! TO.C,J3*
X93980000Y-82550000D03*
G04 #@! TD*
G04 #@! TO.C,J3*
X99060000Y-80010000D03*
G04 #@! TD*
G04 #@! TO.C,J3*
X96520000Y-80010000D03*
G04 #@! TD*
G04 #@! TO.C,J3*
X93980000Y-80010000D03*
G04 #@! TD*
G04 #@! TO.C,J3*
X99060000Y-77470000D03*
G04 #@! TD*
G04 #@! TO.C,J3*
X96520000Y-77470000D03*
G04 #@! TD*
G04 #@! TO.C,J3*
X93980000Y-77470000D03*
G04 #@! TD*
G04 #@! TO.C,J3*
X99060000Y-74930000D03*
G04 #@! TD*
G04 #@! TO.C,J3*
X96520000Y-74930000D03*
G04 #@! TD*
G04 #@! TO.C,J3*
X93980000Y-74930000D03*
G04 #@! TD*
G04 #@! TO.C,J3*
X99060000Y-72390000D03*
G04 #@! TD*
G04 #@! TO.C,J3*
X96520000Y-72390000D03*
G04 #@! TD*
G04 #@! TO.C,J3*
X93980000Y-72390000D03*
G04 #@! TD*
G04 #@! TO.C,J3*
X99060000Y-69850000D03*
G04 #@! TD*
G04 #@! TO.C,J3*
X96520000Y-69850000D03*
G04 #@! TD*
G04 #@! TO.C,J3*
X93980000Y-69850000D03*
G04 #@! TD*
M02*
