G04 #@! TF.GenerationSoftware,KiCad,Pcbnew,(5.0.0)*
G04 #@! TF.CreationDate,2018-10-10T12:23:29-06:00*
G04 #@! TF.ProjectId,AltoidsPCB,416C746F6964735043422E6B69636164,rev?*
G04 #@! TF.SameCoordinates,Original*
G04 #@! TF.FileFunction,Legend,Top*
G04 #@! TF.FilePolarity,Positive*
%FSLAX46Y46*%
G04 Gerber Fmt 4.6, Leading zero omitted, Abs format (unit mm)*
G04 Created by KiCad (PCBNEW (5.0.0)) date 10/10/18 12:23:29*
%MOMM*%
%LPD*%
G01*
G04 APERTURE LIST*
%ADD10C,0.300000*%
%ADD11C,0.200000*%
G04 APERTURE END LIST*
D10*
X102620476Y-84724761D02*
X102620476Y-82724761D01*
X103382380Y-82724761D01*
X103572857Y-82820000D01*
X103668095Y-82915238D01*
X103763333Y-83105714D01*
X103763333Y-83391428D01*
X103668095Y-83581904D01*
X103572857Y-83677142D01*
X103382380Y-83772380D01*
X102620476Y-83772380D01*
X105763333Y-84724761D02*
X105096666Y-83772380D01*
X104620476Y-84724761D02*
X104620476Y-82724761D01*
X105382380Y-82724761D01*
X105572857Y-82820000D01*
X105668095Y-82915238D01*
X105763333Y-83105714D01*
X105763333Y-83391428D01*
X105668095Y-83581904D01*
X105572857Y-83677142D01*
X105382380Y-83772380D01*
X104620476Y-83772380D01*
X107001428Y-82724761D02*
X107382380Y-82724761D01*
X107572857Y-82820000D01*
X107763333Y-83010476D01*
X107858571Y-83391428D01*
X107858571Y-84058095D01*
X107763333Y-84439047D01*
X107572857Y-84629523D01*
X107382380Y-84724761D01*
X107001428Y-84724761D01*
X106810952Y-84629523D01*
X106620476Y-84439047D01*
X106525238Y-84058095D01*
X106525238Y-83391428D01*
X106620476Y-83010476D01*
X106810952Y-82820000D01*
X107001428Y-82724761D01*
X108430000Y-82724761D02*
X109572857Y-82724761D01*
X109001428Y-84724761D02*
X109001428Y-82724761D01*
X110620476Y-82724761D02*
X111001428Y-82724761D01*
X111191904Y-82820000D01*
X111382380Y-83010476D01*
X111477619Y-83391428D01*
X111477619Y-84058095D01*
X111382380Y-84439047D01*
X111191904Y-84629523D01*
X111001428Y-84724761D01*
X110620476Y-84724761D01*
X110430000Y-84629523D01*
X110239523Y-84439047D01*
X110144285Y-84058095D01*
X110144285Y-83391428D01*
X110239523Y-83010476D01*
X110430000Y-82820000D01*
X110620476Y-82724761D01*
X112049047Y-82724761D02*
X113191904Y-82724761D01*
X112620476Y-84724761D02*
X112620476Y-82724761D01*
X114239523Y-83772380D02*
X114239523Y-84724761D01*
X113572857Y-82724761D02*
X114239523Y-83772380D01*
X114906190Y-82724761D01*
X115572857Y-84724761D02*
X115572857Y-82724761D01*
X116334761Y-82724761D01*
X116525238Y-82820000D01*
X116620476Y-82915238D01*
X116715714Y-83105714D01*
X116715714Y-83391428D01*
X116620476Y-83581904D01*
X116525238Y-83677142D01*
X116334761Y-83772380D01*
X115572857Y-83772380D01*
X117572857Y-84724761D02*
X117572857Y-82724761D01*
X118525238Y-84724761D02*
X118525238Y-82724761D01*
X119668095Y-84724761D01*
X119668095Y-82724761D01*
X121668095Y-82820000D02*
X121477619Y-82724761D01*
X121191904Y-82724761D01*
X120906190Y-82820000D01*
X120715714Y-83010476D01*
X120620476Y-83200952D01*
X120525238Y-83581904D01*
X120525238Y-83867619D01*
X120620476Y-84248571D01*
X120715714Y-84439047D01*
X120906190Y-84629523D01*
X121191904Y-84724761D01*
X121382380Y-84724761D01*
X121668095Y-84629523D01*
X121763333Y-84534285D01*
X121763333Y-83867619D01*
X121382380Y-83867619D01*
X124810952Y-83677142D02*
X125096666Y-83772380D01*
X125191904Y-83867619D01*
X125287142Y-84058095D01*
X125287142Y-84343809D01*
X125191904Y-84534285D01*
X125096666Y-84629523D01*
X124906190Y-84724761D01*
X124144285Y-84724761D01*
X124144285Y-82724761D01*
X124810952Y-82724761D01*
X125001428Y-82820000D01*
X125096666Y-82915238D01*
X125191904Y-83105714D01*
X125191904Y-83296190D01*
X125096666Y-83486666D01*
X125001428Y-83581904D01*
X124810952Y-83677142D01*
X124144285Y-83677142D01*
X127287142Y-84724761D02*
X126620476Y-83772380D01*
X126144285Y-84724761D02*
X126144285Y-82724761D01*
X126906190Y-82724761D01*
X127096666Y-82820000D01*
X127191904Y-82915238D01*
X127287142Y-83105714D01*
X127287142Y-83391428D01*
X127191904Y-83581904D01*
X127096666Y-83677142D01*
X126906190Y-83772380D01*
X126144285Y-83772380D01*
X128144285Y-83677142D02*
X128810952Y-83677142D01*
X129096666Y-84724761D02*
X128144285Y-84724761D01*
X128144285Y-82724761D01*
X129096666Y-82724761D01*
X129858571Y-84153333D02*
X130810952Y-84153333D01*
X129668095Y-84724761D02*
X130334761Y-82724761D01*
X131001428Y-84724761D01*
X131668095Y-84724761D02*
X131668095Y-82724761D01*
X132144285Y-82724761D01*
X132430000Y-82820000D01*
X132620476Y-83010476D01*
X132715714Y-83200952D01*
X132810952Y-83581904D01*
X132810952Y-83867619D01*
X132715714Y-84248571D01*
X132620476Y-84439047D01*
X132430000Y-84629523D01*
X132144285Y-84724761D01*
X131668095Y-84724761D01*
X134334761Y-83677142D02*
X134620476Y-83772380D01*
X134715714Y-83867619D01*
X134810952Y-84058095D01*
X134810952Y-84343809D01*
X134715714Y-84534285D01*
X134620476Y-84629523D01*
X134430000Y-84724761D01*
X133668095Y-84724761D01*
X133668095Y-82724761D01*
X134334761Y-82724761D01*
X134525238Y-82820000D01*
X134620476Y-82915238D01*
X134715714Y-83105714D01*
X134715714Y-83296190D01*
X134620476Y-83486666D01*
X134525238Y-83581904D01*
X134334761Y-83677142D01*
X133668095Y-83677142D01*
X136049047Y-82724761D02*
X136430000Y-82724761D01*
X136620476Y-82820000D01*
X136810952Y-83010476D01*
X136906190Y-83391428D01*
X136906190Y-84058095D01*
X136810952Y-84439047D01*
X136620476Y-84629523D01*
X136430000Y-84724761D01*
X136049047Y-84724761D01*
X135858571Y-84629523D01*
X135668095Y-84439047D01*
X135572857Y-84058095D01*
X135572857Y-83391428D01*
X135668095Y-83010476D01*
X135858571Y-82820000D01*
X136049047Y-82724761D01*
X137668095Y-84153333D02*
X138620476Y-84153333D01*
X137477619Y-84724761D02*
X138144285Y-82724761D01*
X138810952Y-84724761D01*
X140620476Y-84724761D02*
X139953809Y-83772380D01*
X139477619Y-84724761D02*
X139477619Y-82724761D01*
X140239523Y-82724761D01*
X140430000Y-82820000D01*
X140525238Y-82915238D01*
X140620476Y-83105714D01*
X140620476Y-83391428D01*
X140525238Y-83581904D01*
X140430000Y-83677142D01*
X140239523Y-83772380D01*
X139477619Y-83772380D01*
X141477619Y-84724761D02*
X141477619Y-82724761D01*
X141953809Y-82724761D01*
X142239523Y-82820000D01*
X142430000Y-83010476D01*
X142525238Y-83200952D01*
X142620476Y-83581904D01*
X142620476Y-83867619D01*
X142525238Y-84248571D01*
X142430000Y-84439047D01*
X142239523Y-84629523D01*
X141953809Y-84724761D01*
X141477619Y-84724761D01*
X146144285Y-84534285D02*
X146049047Y-84629523D01*
X145763333Y-84724761D01*
X145572857Y-84724761D01*
X145287142Y-84629523D01*
X145096666Y-84439047D01*
X145001428Y-84248571D01*
X144906190Y-83867619D01*
X144906190Y-83581904D01*
X145001428Y-83200952D01*
X145096666Y-83010476D01*
X145287142Y-82820000D01*
X145572857Y-82724761D01*
X145763333Y-82724761D01*
X146049047Y-82820000D01*
X146144285Y-82915238D01*
X148144285Y-84724761D02*
X147477619Y-83772380D01*
X147001428Y-84724761D02*
X147001428Y-82724761D01*
X147763333Y-82724761D01*
X147953809Y-82820000D01*
X148049047Y-82915238D01*
X148144285Y-83105714D01*
X148144285Y-83391428D01*
X148049047Y-83581904D01*
X147953809Y-83677142D01*
X147763333Y-83772380D01*
X147001428Y-83772380D01*
X150144285Y-84534285D02*
X150049047Y-84629523D01*
X149763333Y-84724761D01*
X149572857Y-84724761D01*
X149287142Y-84629523D01*
X149096666Y-84439047D01*
X149001428Y-84248571D01*
X148906190Y-83867619D01*
X148906190Y-83581904D01*
X149001428Y-83200952D01*
X149096666Y-83010476D01*
X149287142Y-82820000D01*
X149572857Y-82724761D01*
X149763333Y-82724761D01*
X150049047Y-82820000D01*
X150144285Y-82915238D01*
X151001428Y-84724761D02*
X151001428Y-82724761D01*
X152620476Y-83677142D02*
X152906190Y-83772380D01*
X153001428Y-83867619D01*
X153096666Y-84058095D01*
X153096666Y-84343809D01*
X153001428Y-84534285D01*
X152906190Y-84629523D01*
X152715714Y-84724761D01*
X151953809Y-84724761D01*
X151953809Y-82724761D01*
X152620476Y-82724761D01*
X152810952Y-82820000D01*
X152906190Y-82915238D01*
X153001428Y-83105714D01*
X153001428Y-83296190D01*
X152906190Y-83486666D01*
X152810952Y-83581904D01*
X152620476Y-83677142D01*
X151953809Y-83677142D01*
X153953809Y-83677142D02*
X154620476Y-83677142D01*
X154906190Y-84724761D02*
X153953809Y-84724761D01*
X153953809Y-82724761D01*
X154906190Y-82724761D01*
X156906190Y-84724761D02*
X156239523Y-83772380D01*
X155763333Y-84724761D02*
X155763333Y-82724761D01*
X156525238Y-82724761D01*
X156715714Y-82820000D01*
X156810952Y-82915238D01*
X156906190Y-83105714D01*
X156906190Y-83391428D01*
X156810952Y-83581904D01*
X156715714Y-83677142D01*
X156525238Y-83772380D01*
X155763333Y-83772380D01*
X157763333Y-84724761D02*
X157763333Y-82724761D01*
X158906190Y-84724761D01*
X158906190Y-82724761D01*
X159858571Y-83677142D02*
X160525238Y-83677142D01*
X160810952Y-84724761D02*
X159858571Y-84724761D01*
X159858571Y-82724761D01*
X160810952Y-82724761D01*
X161382380Y-82724761D02*
X162525238Y-82724761D01*
X161953809Y-84724761D02*
X161953809Y-82724761D01*
X163191904Y-84724761D02*
X163191904Y-82724761D01*
X165287142Y-84534285D02*
X165191904Y-84629523D01*
X164906190Y-84724761D01*
X164715714Y-84724761D01*
X164430000Y-84629523D01*
X164239523Y-84439047D01*
X164144285Y-84248571D01*
X164049047Y-83867619D01*
X164049047Y-83581904D01*
X164144285Y-83200952D01*
X164239523Y-83010476D01*
X164430000Y-82820000D01*
X164715714Y-82724761D01*
X164906190Y-82724761D01*
X165191904Y-82820000D01*
X165287142Y-82915238D01*
X166049047Y-84153333D02*
X167001428Y-84153333D01*
X165858571Y-84724761D02*
X166525238Y-82724761D01*
X167191904Y-84724761D01*
X167858571Y-84534285D02*
X167953809Y-84629523D01*
X167858571Y-84724761D01*
X167763333Y-84629523D01*
X167858571Y-84534285D01*
X167858571Y-84724761D01*
X169953809Y-84534285D02*
X169858571Y-84629523D01*
X169572857Y-84724761D01*
X169382380Y-84724761D01*
X169096666Y-84629523D01*
X168906190Y-84439047D01*
X168810952Y-84248571D01*
X168715714Y-83867619D01*
X168715714Y-83581904D01*
X168810952Y-83200952D01*
X168906190Y-83010476D01*
X169096666Y-82820000D01*
X169382380Y-82724761D01*
X169572857Y-82724761D01*
X169858571Y-82820000D01*
X169953809Y-82915238D01*
X171191904Y-82724761D02*
X171572857Y-82724761D01*
X171763333Y-82820000D01*
X171953809Y-83010476D01*
X172049047Y-83391428D01*
X172049047Y-84058095D01*
X171953809Y-84439047D01*
X171763333Y-84629523D01*
X171572857Y-84724761D01*
X171191904Y-84724761D01*
X171001428Y-84629523D01*
X170810952Y-84439047D01*
X170715714Y-84058095D01*
X170715714Y-83391428D01*
X170810952Y-83010476D01*
X171001428Y-82820000D01*
X171191904Y-82724761D01*
X172906190Y-84724761D02*
X172906190Y-82724761D01*
X173572857Y-84153333D01*
X174239523Y-82724761D01*
X174239523Y-84724761D01*
D11*
X135890000Y-81280000D02*
X135890000Y-68580000D01*
X120650000Y-81280000D02*
X120650000Y-68580000D01*
X171450000Y-81280000D02*
X171450000Y-68580000D01*
X168910000Y-81280000D02*
X168910000Y-68580000D01*
X161290000Y-81280000D02*
X161290000Y-68580000D01*
X128270000Y-81280000D02*
X128270000Y-68580000D01*
X158750000Y-81280000D02*
X158750000Y-68580000D01*
X133350000Y-81280000D02*
X133350000Y-68580000D01*
X151130000Y-81280000D02*
X151130000Y-68580000D01*
X148590000Y-81280000D02*
X148590000Y-68580000D01*
X138430000Y-81280000D02*
X138430000Y-68580000D01*
X156210000Y-81280000D02*
X156210000Y-68580000D01*
X140970000Y-81280000D02*
X140970000Y-68580000D01*
X153670000Y-81280000D02*
X153670000Y-68580000D01*
X146050000Y-81280000D02*
X146050000Y-68580000D01*
X125730000Y-81280000D02*
X125730000Y-68580000D01*
X130810000Y-81280000D02*
X130810000Y-68580000D01*
X123190000Y-81280000D02*
X123190000Y-68580000D01*
X102870000Y-68580000D02*
X105410000Y-68580000D01*
X173990000Y-81280000D02*
X173990000Y-68580000D01*
X166370000Y-81280000D02*
X166370000Y-68580000D01*
X163830000Y-81280000D02*
X163830000Y-68580000D01*
X143510000Y-81280000D02*
X143510000Y-68580000D01*
X105410000Y-68580000D02*
X107950000Y-68580000D01*
X161290000Y-68580000D02*
X163830000Y-68580000D01*
X138430000Y-68580000D02*
X140970000Y-68580000D01*
X107950000Y-68580000D02*
X110490000Y-68580000D01*
X146050000Y-68580000D02*
X148590000Y-68580000D01*
X156210000Y-68580000D02*
X158750000Y-68580000D01*
X120650000Y-68580000D02*
X123190000Y-68580000D01*
X128270000Y-68580000D02*
X130810000Y-68580000D01*
X166370000Y-68580000D02*
X168910000Y-68580000D01*
X148590000Y-68580000D02*
X151130000Y-68580000D01*
X130810000Y-68580000D02*
X133350000Y-68580000D01*
X125730000Y-68580000D02*
X128270000Y-68580000D01*
X171450000Y-68580000D02*
X173990000Y-68580000D01*
X135890000Y-68580000D02*
X138430000Y-68580000D01*
X115570000Y-68580000D02*
X118110000Y-68580000D01*
X173990000Y-68580000D02*
X176530000Y-68580000D01*
X151130000Y-68580000D02*
X153670000Y-68580000D01*
X143510000Y-68580000D02*
X146050000Y-68580000D01*
X123190000Y-68580000D02*
X125730000Y-68580000D01*
X118110000Y-68580000D02*
X120650000Y-68580000D01*
X113030000Y-68580000D02*
X115570000Y-68580000D01*
X153670000Y-68580000D02*
X156210000Y-68580000D01*
X168910000Y-68580000D02*
X171450000Y-68580000D01*
X158750000Y-68580000D02*
X161290000Y-68580000D01*
X163830000Y-68580000D02*
X166370000Y-68580000D01*
X133350000Y-68580000D02*
X135890000Y-68580000D01*
X140970000Y-68580000D02*
X143510000Y-68580000D01*
X110490000Y-68580000D02*
X113030000Y-68580000D01*
X123190000Y-68580000D02*
X123190000Y-81280000D01*
X113030000Y-68580000D02*
X113030000Y-81280000D01*
X151130000Y-68580000D02*
X151130000Y-81280000D01*
X148590000Y-68580000D02*
X148590000Y-81280000D01*
X146050000Y-68580000D02*
X146050000Y-81280000D01*
X143510000Y-68580000D02*
X143510000Y-81280000D01*
X140970000Y-68580000D02*
X140970000Y-81280000D01*
X138430000Y-68580000D02*
X138430000Y-81280000D01*
X135890000Y-68580000D02*
X135890000Y-81280000D01*
X133350000Y-68580000D02*
X133350000Y-81280000D01*
X118110000Y-68580000D02*
X118110000Y-81280000D01*
X107950000Y-68580000D02*
X107950000Y-81280000D01*
X130810000Y-68580000D02*
X130810000Y-81280000D01*
X120650000Y-68580000D02*
X120650000Y-81280000D01*
X128270000Y-68580000D02*
X128270000Y-81280000D01*
X125730000Y-68580000D02*
X125730000Y-81280000D01*
X115570000Y-68580000D02*
X115570000Y-81280000D01*
X110490000Y-68580000D02*
X110490000Y-81280000D01*
X105410000Y-68580000D02*
X105410000Y-81280000D01*
X156210000Y-68580000D02*
X156210000Y-81280000D01*
X110490000Y-81280000D02*
X107950000Y-81280000D01*
X161290000Y-68580000D02*
X161290000Y-81280000D01*
X107950000Y-81280000D02*
X105410000Y-81280000D01*
X173990000Y-68580000D02*
X173990000Y-81280000D01*
X168910000Y-68580000D02*
X168910000Y-81280000D01*
X158750000Y-68580000D02*
X158750000Y-81280000D01*
X125730000Y-81280000D02*
X123190000Y-81280000D01*
X163830000Y-68580000D02*
X163830000Y-81280000D01*
X176530000Y-68580000D02*
X176530000Y-81280000D01*
X153670000Y-68580000D02*
X153670000Y-81280000D01*
X171450000Y-68580000D02*
X171450000Y-81280000D01*
X118110000Y-81280000D02*
X115570000Y-81280000D01*
X166370000Y-68580000D02*
X166370000Y-81280000D01*
X135890000Y-81280000D02*
X133350000Y-81280000D01*
X133350000Y-81280000D02*
X130810000Y-81280000D01*
X130810000Y-81280000D02*
X128270000Y-81280000D01*
X123190000Y-81280000D02*
X120650000Y-81280000D01*
X120650000Y-81280000D02*
X118110000Y-81280000D01*
X115570000Y-81280000D02*
X113030000Y-81280000D01*
X113030000Y-81280000D02*
X110490000Y-81280000D01*
X105410000Y-81280000D02*
X102870000Y-81280000D01*
X128270000Y-81280000D02*
X125730000Y-81280000D01*
X118110000Y-81280000D02*
X118110000Y-68580000D01*
X115570000Y-81280000D02*
X115570000Y-68580000D01*
X173990000Y-81280000D02*
X171450000Y-81280000D01*
X113030000Y-81280000D02*
X113030000Y-68580000D01*
X110490000Y-81280000D02*
X110490000Y-68580000D01*
X102870000Y-81280000D02*
X102870000Y-68580000D01*
X163830000Y-81280000D02*
X161290000Y-81280000D01*
X107950000Y-81280000D02*
X107950000Y-68580000D01*
X105410000Y-81280000D02*
X105410000Y-68580000D01*
X140970000Y-81280000D02*
X138430000Y-81280000D01*
X166370000Y-81280000D02*
X163830000Y-81280000D01*
X161290000Y-81280000D02*
X158750000Y-81280000D01*
X158750000Y-81280000D02*
X156210000Y-81280000D01*
X143510000Y-81280000D02*
X140970000Y-81280000D01*
X171450000Y-81280000D02*
X168910000Y-81280000D01*
X138430000Y-81280000D02*
X135890000Y-81280000D01*
X153670000Y-81280000D02*
X151130000Y-81280000D01*
X176530000Y-81280000D02*
X173990000Y-81280000D01*
X168910000Y-81280000D02*
X166370000Y-81280000D01*
X156210000Y-81280000D02*
X153670000Y-81280000D01*
X151130000Y-81280000D02*
X148590000Y-81280000D01*
X148590000Y-81280000D02*
X146050000Y-81280000D01*
X146050000Y-81280000D02*
X143510000Y-81280000D01*
X100330000Y-68580000D02*
X102870000Y-68580000D01*
X100330000Y-81280000D02*
X100330000Y-68580000D01*
X102870000Y-81280000D02*
X100330000Y-81280000D01*
X102870000Y-68580000D02*
X102870000Y-81280000D01*
X173990000Y-86360000D02*
X176530000Y-86360000D01*
X171450000Y-86360000D02*
X173990000Y-86360000D01*
X168910000Y-86360000D02*
X171450000Y-86360000D01*
X166370000Y-86360000D02*
X168910000Y-86360000D01*
X163830000Y-86360000D02*
X166370000Y-86360000D01*
X161290000Y-86360000D02*
X163830000Y-86360000D01*
X158750000Y-86360000D02*
X161290000Y-86360000D01*
X156210000Y-86360000D02*
X158750000Y-86360000D01*
X153670000Y-86360000D02*
X156210000Y-86360000D01*
X151130000Y-86360000D02*
X153670000Y-86360000D01*
X148590000Y-86360000D02*
X151130000Y-86360000D01*
X146050000Y-86360000D02*
X148590000Y-86360000D01*
X143510000Y-86360000D02*
X146050000Y-86360000D01*
X140970000Y-86360000D02*
X143510000Y-86360000D01*
X138430000Y-86360000D02*
X140970000Y-86360000D01*
X135890000Y-86360000D02*
X138430000Y-86360000D01*
X133350000Y-86360000D02*
X135890000Y-86360000D01*
X130810000Y-86360000D02*
X133350000Y-86360000D01*
X128270000Y-86360000D02*
X130810000Y-86360000D01*
X125730000Y-86360000D02*
X128270000Y-86360000D01*
X123190000Y-86360000D02*
X125730000Y-86360000D01*
X120650000Y-86360000D02*
X123190000Y-86360000D01*
X118110000Y-86360000D02*
X120650000Y-86360000D01*
X115570000Y-86360000D02*
X118110000Y-86360000D01*
X113030000Y-86360000D02*
X115570000Y-86360000D01*
X110490000Y-86360000D02*
X113030000Y-86360000D01*
X107950000Y-86360000D02*
X110490000Y-86360000D01*
X105410000Y-86360000D02*
X107950000Y-86360000D01*
X102870000Y-86360000D02*
X105410000Y-86360000D01*
X173990000Y-99060000D02*
X173990000Y-86360000D01*
X171450000Y-99060000D02*
X171450000Y-86360000D01*
X168910000Y-99060000D02*
X168910000Y-86360000D01*
X166370000Y-99060000D02*
X166370000Y-86360000D01*
X163830000Y-99060000D02*
X163830000Y-86360000D01*
X161290000Y-99060000D02*
X161290000Y-86360000D01*
X158750000Y-99060000D02*
X158750000Y-86360000D01*
X156210000Y-99060000D02*
X156210000Y-86360000D01*
X153670000Y-99060000D02*
X153670000Y-86360000D01*
X151130000Y-99060000D02*
X151130000Y-86360000D01*
X148590000Y-99060000D02*
X148590000Y-86360000D01*
X146050000Y-99060000D02*
X146050000Y-86360000D01*
X143510000Y-99060000D02*
X143510000Y-86360000D01*
X140970000Y-99060000D02*
X140970000Y-86360000D01*
X138430000Y-99060000D02*
X138430000Y-86360000D01*
X135890000Y-99060000D02*
X135890000Y-86360000D01*
X133350000Y-99060000D02*
X133350000Y-86360000D01*
X130810000Y-99060000D02*
X130810000Y-86360000D01*
X128270000Y-99060000D02*
X128270000Y-86360000D01*
X125730000Y-99060000D02*
X125730000Y-86360000D01*
X123190000Y-99060000D02*
X123190000Y-86360000D01*
X120650000Y-99060000D02*
X120650000Y-86360000D01*
X118110000Y-99060000D02*
X118110000Y-86360000D01*
X115570000Y-99060000D02*
X115570000Y-86360000D01*
X113030000Y-99060000D02*
X113030000Y-86360000D01*
X110490000Y-99060000D02*
X110490000Y-86360000D01*
X107950000Y-99060000D02*
X107950000Y-86360000D01*
X105410000Y-99060000D02*
X105410000Y-86360000D01*
X102870000Y-99060000D02*
X102870000Y-86360000D01*
X176530000Y-99060000D02*
X173990000Y-99060000D01*
X173990000Y-99060000D02*
X171450000Y-99060000D01*
X171450000Y-99060000D02*
X168910000Y-99060000D01*
X168910000Y-99060000D02*
X166370000Y-99060000D01*
X166370000Y-99060000D02*
X163830000Y-99060000D01*
X163830000Y-99060000D02*
X161290000Y-99060000D01*
X161290000Y-99060000D02*
X158750000Y-99060000D01*
X158750000Y-99060000D02*
X156210000Y-99060000D01*
X156210000Y-99060000D02*
X153670000Y-99060000D01*
X153670000Y-99060000D02*
X151130000Y-99060000D01*
X151130000Y-99060000D02*
X148590000Y-99060000D01*
X148590000Y-99060000D02*
X146050000Y-99060000D01*
X146050000Y-99060000D02*
X143510000Y-99060000D01*
X143510000Y-99060000D02*
X140970000Y-99060000D01*
X140970000Y-99060000D02*
X138430000Y-99060000D01*
X138430000Y-99060000D02*
X135890000Y-99060000D01*
X135890000Y-99060000D02*
X133350000Y-99060000D01*
X133350000Y-99060000D02*
X130810000Y-99060000D01*
X130810000Y-99060000D02*
X128270000Y-99060000D01*
X128270000Y-99060000D02*
X125730000Y-99060000D01*
X125730000Y-99060000D02*
X123190000Y-99060000D01*
X123190000Y-99060000D02*
X120650000Y-99060000D01*
X120650000Y-99060000D02*
X118110000Y-99060000D01*
X118110000Y-99060000D02*
X115570000Y-99060000D01*
X115570000Y-99060000D02*
X113030000Y-99060000D01*
X113030000Y-99060000D02*
X110490000Y-99060000D01*
X110490000Y-99060000D02*
X107950000Y-99060000D01*
X107950000Y-99060000D02*
X105410000Y-99060000D01*
X105410000Y-99060000D02*
X102870000Y-99060000D01*
X176530000Y-86360000D02*
X176530000Y-99060000D01*
X173990000Y-86360000D02*
X173990000Y-99060000D01*
X171450000Y-86360000D02*
X171450000Y-99060000D01*
X168910000Y-86360000D02*
X168910000Y-99060000D01*
X166370000Y-86360000D02*
X166370000Y-99060000D01*
X163830000Y-86360000D02*
X163830000Y-99060000D01*
X161290000Y-86360000D02*
X161290000Y-99060000D01*
X158750000Y-86360000D02*
X158750000Y-99060000D01*
X156210000Y-86360000D02*
X156210000Y-99060000D01*
X153670000Y-86360000D02*
X153670000Y-99060000D01*
X151130000Y-86360000D02*
X151130000Y-99060000D01*
X148590000Y-86360000D02*
X148590000Y-99060000D01*
X146050000Y-86360000D02*
X146050000Y-99060000D01*
X143510000Y-86360000D02*
X143510000Y-99060000D01*
X140970000Y-86360000D02*
X140970000Y-99060000D01*
X138430000Y-86360000D02*
X138430000Y-99060000D01*
X135890000Y-86360000D02*
X135890000Y-99060000D01*
X133350000Y-86360000D02*
X133350000Y-99060000D01*
X130810000Y-86360000D02*
X130810000Y-99060000D01*
X128270000Y-86360000D02*
X128270000Y-99060000D01*
X125730000Y-86360000D02*
X125730000Y-99060000D01*
X123190000Y-86360000D02*
X123190000Y-99060000D01*
X120650000Y-86360000D02*
X120650000Y-99060000D01*
X118110000Y-86360000D02*
X118110000Y-99060000D01*
X115570000Y-86360000D02*
X115570000Y-99060000D01*
X113030000Y-86360000D02*
X113030000Y-99060000D01*
X110490000Y-86360000D02*
X110490000Y-99060000D01*
X107950000Y-86360000D02*
X107950000Y-99060000D01*
X105410000Y-86360000D02*
X105410000Y-99060000D01*
X100330000Y-99060000D02*
X100330000Y-86360000D01*
X102870000Y-99060000D02*
X100330000Y-99060000D01*
X102870000Y-86360000D02*
X102870000Y-99060000D01*
X100330000Y-86360000D02*
X102870000Y-86360000D01*
X105410000Y-104140000D02*
X171450000Y-104140000D01*
X105410000Y-106680000D02*
X105410000Y-101600000D01*
X171450000Y-106680000D02*
X105410000Y-106680000D01*
X171450000Y-101600000D02*
X171450000Y-106680000D01*
X105410000Y-101600000D02*
X171450000Y-101600000D01*
X105410000Y-66040000D02*
X105410000Y-63500000D01*
X171450000Y-66040000D02*
X105410000Y-66040000D01*
X171450000Y-63500000D02*
X171450000Y-66040000D01*
X171450000Y-60960000D02*
X171450000Y-63500000D01*
X105410000Y-60960000D02*
X171450000Y-60960000D01*
X105410000Y-63500000D02*
X105410000Y-60960000D01*
X105410000Y-63500000D02*
X171450000Y-63500000D01*
M02*
