%TF.GenerationSoftware,KiCad,Pcbnew,(6.0.7)*%
%TF.CreationDate,2022-10-24T07:09:43-06:00*%
%TF.ProjectId,AltoidsPCB,416c746f-6964-4735-9043-422e6b696361,rev?*%
%TF.SameCoordinates,Original*%
%TF.FileFunction,Other,Comment*%
%FSLAX46Y46*%
G04 Gerber Fmt 4.6, Leading zero omitted, Abs format (unit mm)*
G04 Created by KiCad (PCBNEW (6.0.7)) date 2022-10-24 07:09:43*
%MOMM*%
%LPD*%
G01*
G04 APERTURE LIST*
%ADD10C,0.150000*%
G04 APERTURE END LIST*
D10*
%TO.C,J2*%
X98512380Y-119713333D02*
X99226666Y-119713333D01*
X99369523Y-119760952D01*
X99464761Y-119856190D01*
X99512380Y-119999047D01*
X99512380Y-120094285D01*
X98607619Y-119284761D02*
X98560000Y-119237142D01*
X98512380Y-119141904D01*
X98512380Y-118903809D01*
X98560000Y-118808571D01*
X98607619Y-118760952D01*
X98702857Y-118713333D01*
X98798095Y-118713333D01*
X98940952Y-118760952D01*
X99512380Y-119332380D01*
X99512380Y-118713333D01*
X183602380Y-122253333D02*
X184316666Y-122253333D01*
X184459523Y-122300952D01*
X184554761Y-122396190D01*
X184602380Y-122539047D01*
X184602380Y-122634285D01*
X183697619Y-121824761D02*
X183650000Y-121777142D01*
X183602380Y-121681904D01*
X183602380Y-121443809D01*
X183650000Y-121348571D01*
X183697619Y-121300952D01*
X183792857Y-121253333D01*
X183888095Y-121253333D01*
X184030952Y-121300952D01*
X184602380Y-121872380D01*
X184602380Y-121253333D01*
X174502380Y-44783333D02*
X175216666Y-44783333D01*
X175359523Y-44830952D01*
X175454761Y-44926190D01*
X175502380Y-45069047D01*
X175502380Y-45164285D01*
X174597619Y-44354761D02*
X174550000Y-44307142D01*
X174502380Y-44211904D01*
X174502380Y-43973809D01*
X174550000Y-43878571D01*
X174597619Y-43830952D01*
X174692857Y-43783333D01*
X174788095Y-43783333D01*
X174930952Y-43830952D01*
X175502380Y-44402380D01*
X175502380Y-43783333D01*
X99992380Y-51133333D02*
X100706666Y-51133333D01*
X100849523Y-51180952D01*
X100944761Y-51276190D01*
X100992380Y-51419047D01*
X100992380Y-51514285D01*
X100087619Y-50704761D02*
X100040000Y-50657142D01*
X99992380Y-50561904D01*
X99992380Y-50323809D01*
X100040000Y-50228571D01*
X100087619Y-50180952D01*
X100182857Y-50133333D01*
X100278095Y-50133333D01*
X100420952Y-50180952D01*
X100992380Y-50752380D01*
X100992380Y-50133333D01*
%TO.C,J1*%
X115236666Y-116082380D02*
X115236666Y-116796666D01*
X115189047Y-116939523D01*
X115093809Y-117034761D01*
X114950952Y-117082380D01*
X114855714Y-117082380D01*
X116236666Y-117082380D02*
X115665238Y-117082380D01*
X115950952Y-117082380D02*
X115950952Y-116082380D01*
X115855714Y-116225238D01*
X115760476Y-116320476D01*
X115665238Y-116368095D01*
X105076666Y-116082380D02*
X105076666Y-116796666D01*
X105029047Y-116939523D01*
X104933809Y-117034761D01*
X104790952Y-117082380D01*
X104695714Y-117082380D01*
X106076666Y-117082380D02*
X105505238Y-117082380D01*
X105790952Y-117082380D02*
X105790952Y-116082380D01*
X105695714Y-116225238D01*
X105600476Y-116320476D01*
X105505238Y-116368095D01*
X120316666Y-116082380D02*
X120316666Y-116796666D01*
X120269047Y-116939523D01*
X120173809Y-117034761D01*
X120030952Y-117082380D01*
X119935714Y-117082380D01*
X121316666Y-117082380D02*
X120745238Y-117082380D01*
X121030952Y-117082380D02*
X121030952Y-116082380D01*
X120935714Y-116225238D01*
X120840476Y-116320476D01*
X120745238Y-116368095D01*
X117776666Y-116082380D02*
X117776666Y-116796666D01*
X117729047Y-116939523D01*
X117633809Y-117034761D01*
X117490952Y-117082380D01*
X117395714Y-117082380D01*
X118776666Y-117082380D02*
X118205238Y-117082380D01*
X118490952Y-117082380D02*
X118490952Y-116082380D01*
X118395714Y-116225238D01*
X118300476Y-116320476D01*
X118205238Y-116368095D01*
X112696666Y-116082380D02*
X112696666Y-116796666D01*
X112649047Y-116939523D01*
X112553809Y-117034761D01*
X112410952Y-117082380D01*
X112315714Y-117082380D01*
X113696666Y-117082380D02*
X113125238Y-117082380D01*
X113410952Y-117082380D02*
X113410952Y-116082380D01*
X113315714Y-116225238D01*
X113220476Y-116320476D01*
X113125238Y-116368095D01*
X107616666Y-116082380D02*
X107616666Y-116796666D01*
X107569047Y-116939523D01*
X107473809Y-117034761D01*
X107330952Y-117082380D01*
X107235714Y-117082380D01*
X108616666Y-117082380D02*
X108045238Y-117082380D01*
X108330952Y-117082380D02*
X108330952Y-116082380D01*
X108235714Y-116225238D01*
X108140476Y-116320476D01*
X108045238Y-116368095D01*
X122856666Y-116082380D02*
X122856666Y-116796666D01*
X122809047Y-116939523D01*
X122713809Y-117034761D01*
X122570952Y-117082380D01*
X122475714Y-117082380D01*
X123856666Y-117082380D02*
X123285238Y-117082380D01*
X123570952Y-117082380D02*
X123570952Y-116082380D01*
X123475714Y-116225238D01*
X123380476Y-116320476D01*
X123285238Y-116368095D01*
X110156666Y-116082380D02*
X110156666Y-116796666D01*
X110109047Y-116939523D01*
X110013809Y-117034761D01*
X109870952Y-117082380D01*
X109775714Y-117082380D01*
X111156666Y-117082380D02*
X110585238Y-117082380D01*
X110870952Y-117082380D02*
X110870952Y-116082380D01*
X110775714Y-116225238D01*
X110680476Y-116320476D01*
X110585238Y-116368095D01*
X102536666Y-116082380D02*
X102536666Y-116796666D01*
X102489047Y-116939523D01*
X102393809Y-117034761D01*
X102250952Y-117082380D01*
X102155714Y-117082380D01*
X103536666Y-117082380D02*
X102965238Y-117082380D01*
X103250952Y-117082380D02*
X103250952Y-116082380D01*
X103155714Y-116225238D01*
X103060476Y-116320476D01*
X102965238Y-116368095D01*
X176196666Y-121162380D02*
X176196666Y-121876666D01*
X176149047Y-122019523D01*
X176053809Y-122114761D01*
X175910952Y-122162380D01*
X175815714Y-122162380D01*
X177196666Y-122162380D02*
X176625238Y-122162380D01*
X176910952Y-122162380D02*
X176910952Y-121162380D01*
X176815714Y-121305238D01*
X176720476Y-121400476D01*
X176625238Y-121448095D01*
X155876666Y-116082380D02*
X155876666Y-116796666D01*
X155829047Y-116939523D01*
X155733809Y-117034761D01*
X155590952Y-117082380D01*
X155495714Y-117082380D01*
X156876666Y-117082380D02*
X156305238Y-117082380D01*
X156590952Y-117082380D02*
X156590952Y-116082380D01*
X156495714Y-116225238D01*
X156400476Y-116320476D01*
X156305238Y-116368095D01*
X150796666Y-116082380D02*
X150796666Y-116796666D01*
X150749047Y-116939523D01*
X150653809Y-117034761D01*
X150510952Y-117082380D01*
X150415714Y-117082380D01*
X151796666Y-117082380D02*
X151225238Y-117082380D01*
X151510952Y-117082380D02*
X151510952Y-116082380D01*
X151415714Y-116225238D01*
X151320476Y-116320476D01*
X151225238Y-116368095D01*
X173656666Y-121162380D02*
X173656666Y-121876666D01*
X173609047Y-122019523D01*
X173513809Y-122114761D01*
X173370952Y-122162380D01*
X173275714Y-122162380D01*
X174656666Y-122162380D02*
X174085238Y-122162380D01*
X174370952Y-122162380D02*
X174370952Y-121162380D01*
X174275714Y-121305238D01*
X174180476Y-121400476D01*
X174085238Y-121448095D01*
X153336666Y-116082380D02*
X153336666Y-116796666D01*
X153289047Y-116939523D01*
X153193809Y-117034761D01*
X153050952Y-117082380D01*
X152955714Y-117082380D01*
X154336666Y-117082380D02*
X153765238Y-117082380D01*
X154050952Y-117082380D02*
X154050952Y-116082380D01*
X153955714Y-116225238D01*
X153860476Y-116320476D01*
X153765238Y-116368095D01*
X158416666Y-116082380D02*
X158416666Y-116796666D01*
X158369047Y-116939523D01*
X158273809Y-117034761D01*
X158130952Y-117082380D01*
X158035714Y-117082380D01*
X159416666Y-117082380D02*
X158845238Y-117082380D01*
X159130952Y-117082380D02*
X159130952Y-116082380D01*
X159035714Y-116225238D01*
X158940476Y-116320476D01*
X158845238Y-116368095D01*
X160956666Y-116082380D02*
X160956666Y-116796666D01*
X160909047Y-116939523D01*
X160813809Y-117034761D01*
X160670952Y-117082380D01*
X160575714Y-117082380D01*
X161956666Y-117082380D02*
X161385238Y-117082380D01*
X161670952Y-117082380D02*
X161670952Y-116082380D01*
X161575714Y-116225238D01*
X161480476Y-116320476D01*
X161385238Y-116368095D01*
X166036666Y-121162380D02*
X166036666Y-121876666D01*
X165989047Y-122019523D01*
X165893809Y-122114761D01*
X165750952Y-122162380D01*
X165655714Y-122162380D01*
X167036666Y-122162380D02*
X166465238Y-122162380D01*
X166750952Y-122162380D02*
X166750952Y-121162380D01*
X166655714Y-121305238D01*
X166560476Y-121400476D01*
X166465238Y-121448095D01*
X148256666Y-116082380D02*
X148256666Y-116796666D01*
X148209047Y-116939523D01*
X148113809Y-117034761D01*
X147970952Y-117082380D01*
X147875714Y-117082380D01*
X149256666Y-117082380D02*
X148685238Y-117082380D01*
X148970952Y-117082380D02*
X148970952Y-116082380D01*
X148875714Y-116225238D01*
X148780476Y-116320476D01*
X148685238Y-116368095D01*
X143176666Y-116082380D02*
X143176666Y-116796666D01*
X143129047Y-116939523D01*
X143033809Y-117034761D01*
X142890952Y-117082380D01*
X142795714Y-117082380D01*
X144176666Y-117082380D02*
X143605238Y-117082380D01*
X143890952Y-117082380D02*
X143890952Y-116082380D01*
X143795714Y-116225238D01*
X143700476Y-116320476D01*
X143605238Y-116368095D01*
X168576666Y-121162380D02*
X168576666Y-121876666D01*
X168529047Y-122019523D01*
X168433809Y-122114761D01*
X168290952Y-122162380D01*
X168195714Y-122162380D01*
X169576666Y-122162380D02*
X169005238Y-122162380D01*
X169290952Y-122162380D02*
X169290952Y-121162380D01*
X169195714Y-121305238D01*
X169100476Y-121400476D01*
X169005238Y-121448095D01*
X171116666Y-121162380D02*
X171116666Y-121876666D01*
X171069047Y-122019523D01*
X170973809Y-122114761D01*
X170830952Y-122162380D01*
X170735714Y-122162380D01*
X172116666Y-122162380D02*
X171545238Y-122162380D01*
X171830952Y-122162380D02*
X171830952Y-121162380D01*
X171735714Y-121305238D01*
X171640476Y-121400476D01*
X171545238Y-121448095D01*
X145716666Y-116082380D02*
X145716666Y-116796666D01*
X145669047Y-116939523D01*
X145573809Y-117034761D01*
X145430952Y-117082380D01*
X145335714Y-117082380D01*
X146716666Y-117082380D02*
X146145238Y-117082380D01*
X146430952Y-117082380D02*
X146430952Y-116082380D01*
X146335714Y-116225238D01*
X146240476Y-116320476D01*
X146145238Y-116368095D01*
X140636666Y-116082380D02*
X140636666Y-116796666D01*
X140589047Y-116939523D01*
X140493809Y-117034761D01*
X140350952Y-117082380D01*
X140255714Y-117082380D01*
X141636666Y-117082380D02*
X141065238Y-117082380D01*
X141350952Y-117082380D02*
X141350952Y-116082380D01*
X141255714Y-116225238D01*
X141160476Y-116320476D01*
X141065238Y-116368095D01*
X133016666Y-116082380D02*
X133016666Y-116796666D01*
X132969047Y-116939523D01*
X132873809Y-117034761D01*
X132730952Y-117082380D01*
X132635714Y-117082380D01*
X134016666Y-117082380D02*
X133445238Y-117082380D01*
X133730952Y-117082380D02*
X133730952Y-116082380D01*
X133635714Y-116225238D01*
X133540476Y-116320476D01*
X133445238Y-116368095D01*
X135556666Y-116082380D02*
X135556666Y-116796666D01*
X135509047Y-116939523D01*
X135413809Y-117034761D01*
X135270952Y-117082380D01*
X135175714Y-117082380D01*
X136556666Y-117082380D02*
X135985238Y-117082380D01*
X136270952Y-117082380D02*
X136270952Y-116082380D01*
X136175714Y-116225238D01*
X136080476Y-116320476D01*
X135985238Y-116368095D01*
X178736666Y-121162380D02*
X178736666Y-121876666D01*
X178689047Y-122019523D01*
X178593809Y-122114761D01*
X178450952Y-122162380D01*
X178355714Y-122162380D01*
X179736666Y-122162380D02*
X179165238Y-122162380D01*
X179450952Y-122162380D02*
X179450952Y-121162380D01*
X179355714Y-121305238D01*
X179260476Y-121400476D01*
X179165238Y-121448095D01*
X138096666Y-116082380D02*
X138096666Y-116796666D01*
X138049047Y-116939523D01*
X137953809Y-117034761D01*
X137810952Y-117082380D01*
X137715714Y-117082380D01*
X139096666Y-117082380D02*
X138525238Y-117082380D01*
X138810952Y-117082380D02*
X138810952Y-116082380D01*
X138715714Y-116225238D01*
X138620476Y-116320476D01*
X138525238Y-116368095D01*
X130476666Y-116082380D02*
X130476666Y-116796666D01*
X130429047Y-116939523D01*
X130333809Y-117034761D01*
X130190952Y-117082380D01*
X130095714Y-117082380D01*
X131476666Y-117082380D02*
X130905238Y-117082380D01*
X131190952Y-117082380D02*
X131190952Y-116082380D01*
X131095714Y-116225238D01*
X131000476Y-116320476D01*
X130905238Y-116368095D01*
X125396666Y-116082380D02*
X125396666Y-116796666D01*
X125349047Y-116939523D01*
X125253809Y-117034761D01*
X125110952Y-117082380D01*
X125015714Y-117082380D01*
X126396666Y-117082380D02*
X125825238Y-117082380D01*
X126110952Y-117082380D02*
X126110952Y-116082380D01*
X126015714Y-116225238D01*
X125920476Y-116320476D01*
X125825238Y-116368095D01*
X127936666Y-116082380D02*
X127936666Y-116796666D01*
X127889047Y-116939523D01*
X127793809Y-117034761D01*
X127650952Y-117082380D01*
X127555714Y-117082380D01*
X128936666Y-117082380D02*
X128365238Y-117082380D01*
X128650952Y-117082380D02*
X128650952Y-116082380D01*
X128555714Y-116225238D01*
X128460476Y-116320476D01*
X128365238Y-116368095D01*
X177466666Y-49192380D02*
X177466666Y-49906666D01*
X177419047Y-50049523D01*
X177323809Y-50144761D01*
X177180952Y-50192380D01*
X177085714Y-50192380D01*
X178466666Y-50192380D02*
X177895238Y-50192380D01*
X178180952Y-50192380D02*
X178180952Y-49192380D01*
X178085714Y-49335238D01*
X177990476Y-49430476D01*
X177895238Y-49478095D01*
X174926666Y-49192380D02*
X174926666Y-49906666D01*
X174879047Y-50049523D01*
X174783809Y-50144761D01*
X174640952Y-50192380D01*
X174545714Y-50192380D01*
X175926666Y-50192380D02*
X175355238Y-50192380D01*
X175640952Y-50192380D02*
X175640952Y-49192380D01*
X175545714Y-49335238D01*
X175450476Y-49430476D01*
X175355238Y-49478095D01*
X172386666Y-49192380D02*
X172386666Y-49906666D01*
X172339047Y-50049523D01*
X172243809Y-50144761D01*
X172100952Y-50192380D01*
X172005714Y-50192380D01*
X173386666Y-50192380D02*
X172815238Y-50192380D01*
X173100952Y-50192380D02*
X173100952Y-49192380D01*
X173005714Y-49335238D01*
X172910476Y-49430476D01*
X172815238Y-49478095D01*
X169846666Y-49192380D02*
X169846666Y-49906666D01*
X169799047Y-50049523D01*
X169703809Y-50144761D01*
X169560952Y-50192380D01*
X169465714Y-50192380D01*
X170846666Y-50192380D02*
X170275238Y-50192380D01*
X170560952Y-50192380D02*
X170560952Y-49192380D01*
X170465714Y-49335238D01*
X170370476Y-49430476D01*
X170275238Y-49478095D01*
X167306666Y-49192380D02*
X167306666Y-49906666D01*
X167259047Y-50049523D01*
X167163809Y-50144761D01*
X167020952Y-50192380D01*
X166925714Y-50192380D01*
X168306666Y-50192380D02*
X167735238Y-50192380D01*
X168020952Y-50192380D02*
X168020952Y-49192380D01*
X167925714Y-49335238D01*
X167830476Y-49430476D01*
X167735238Y-49478095D01*
X164766666Y-49192380D02*
X164766666Y-49906666D01*
X164719047Y-50049523D01*
X164623809Y-50144761D01*
X164480952Y-50192380D01*
X164385714Y-50192380D01*
X165766666Y-50192380D02*
X165195238Y-50192380D01*
X165480952Y-50192380D02*
X165480952Y-49192380D01*
X165385714Y-49335238D01*
X165290476Y-49430476D01*
X165195238Y-49478095D01*
X162226666Y-49192380D02*
X162226666Y-49906666D01*
X162179047Y-50049523D01*
X162083809Y-50144761D01*
X161940952Y-50192380D01*
X161845714Y-50192380D01*
X163226666Y-50192380D02*
X162655238Y-50192380D01*
X162940952Y-50192380D02*
X162940952Y-49192380D01*
X162845714Y-49335238D01*
X162750476Y-49430476D01*
X162655238Y-49478095D01*
X158416666Y-23582380D02*
X158416666Y-24296666D01*
X158369047Y-24439523D01*
X158273809Y-24534761D01*
X158130952Y-24582380D01*
X158035714Y-24582380D01*
X159416666Y-24582380D02*
X158845238Y-24582380D01*
X159130952Y-24582380D02*
X159130952Y-23582380D01*
X159035714Y-23725238D01*
X158940476Y-23820476D01*
X158845238Y-23868095D01*
X155876666Y-36492380D02*
X155876666Y-37206666D01*
X155829047Y-37349523D01*
X155733809Y-37444761D01*
X155590952Y-37492380D01*
X155495714Y-37492380D01*
X156876666Y-37492380D02*
X156305238Y-37492380D01*
X156590952Y-37492380D02*
X156590952Y-36492380D01*
X156495714Y-36635238D01*
X156400476Y-36730476D01*
X156305238Y-36778095D01*
X153336666Y-36492380D02*
X153336666Y-37206666D01*
X153289047Y-37349523D01*
X153193809Y-37444761D01*
X153050952Y-37492380D01*
X152955714Y-37492380D01*
X154336666Y-37492380D02*
X153765238Y-37492380D01*
X154050952Y-37492380D02*
X154050952Y-36492380D01*
X153955714Y-36635238D01*
X153860476Y-36730476D01*
X153765238Y-36778095D01*
X150796666Y-36492380D02*
X150796666Y-37206666D01*
X150749047Y-37349523D01*
X150653809Y-37444761D01*
X150510952Y-37492380D01*
X150415714Y-37492380D01*
X151796666Y-37492380D02*
X151225238Y-37492380D01*
X151510952Y-37492380D02*
X151510952Y-36492380D01*
X151415714Y-36635238D01*
X151320476Y-36730476D01*
X151225238Y-36778095D01*
X148256666Y-36492380D02*
X148256666Y-37206666D01*
X148209047Y-37349523D01*
X148113809Y-37444761D01*
X147970952Y-37492380D01*
X147875714Y-37492380D01*
X149256666Y-37492380D02*
X148685238Y-37492380D01*
X148970952Y-37492380D02*
X148970952Y-36492380D01*
X148875714Y-36635238D01*
X148780476Y-36730476D01*
X148685238Y-36778095D01*
X145716666Y-36492380D02*
X145716666Y-37206666D01*
X145669047Y-37349523D01*
X145573809Y-37444761D01*
X145430952Y-37492380D01*
X145335714Y-37492380D01*
X146716666Y-37492380D02*
X146145238Y-37492380D01*
X146430952Y-37492380D02*
X146430952Y-36492380D01*
X146335714Y-36635238D01*
X146240476Y-36730476D01*
X146145238Y-36778095D01*
X143176666Y-36492380D02*
X143176666Y-37206666D01*
X143129047Y-37349523D01*
X143033809Y-37444761D01*
X142890952Y-37492380D01*
X142795714Y-37492380D01*
X144176666Y-37492380D02*
X143605238Y-37492380D01*
X143890952Y-37492380D02*
X143890952Y-36492380D01*
X143795714Y-36635238D01*
X143700476Y-36730476D01*
X143605238Y-36778095D01*
X140636666Y-36492380D02*
X140636666Y-37206666D01*
X140589047Y-37349523D01*
X140493809Y-37444761D01*
X140350952Y-37492380D01*
X140255714Y-37492380D01*
X141636666Y-37492380D02*
X141065238Y-37492380D01*
X141350952Y-37492380D02*
X141350952Y-36492380D01*
X141255714Y-36635238D01*
X141160476Y-36730476D01*
X141065238Y-36778095D01*
X138096666Y-36492380D02*
X138096666Y-37206666D01*
X138049047Y-37349523D01*
X137953809Y-37444761D01*
X137810952Y-37492380D01*
X137715714Y-37492380D01*
X139096666Y-37492380D02*
X138525238Y-37492380D01*
X138810952Y-37492380D02*
X138810952Y-36492380D01*
X138715714Y-36635238D01*
X138620476Y-36730476D01*
X138525238Y-36778095D01*
X135556666Y-36492380D02*
X135556666Y-37206666D01*
X135509047Y-37349523D01*
X135413809Y-37444761D01*
X135270952Y-37492380D01*
X135175714Y-37492380D01*
X136556666Y-37492380D02*
X135985238Y-37492380D01*
X136270952Y-37492380D02*
X136270952Y-36492380D01*
X136175714Y-36635238D01*
X136080476Y-36730476D01*
X135985238Y-36778095D01*
X133016666Y-36492380D02*
X133016666Y-37206666D01*
X132969047Y-37349523D01*
X132873809Y-37444761D01*
X132730952Y-37492380D01*
X132635714Y-37492380D01*
X134016666Y-37492380D02*
X133445238Y-37492380D01*
X133730952Y-37492380D02*
X133730952Y-36492380D01*
X133635714Y-36635238D01*
X133540476Y-36730476D01*
X133445238Y-36778095D01*
X130476666Y-36492380D02*
X130476666Y-37206666D01*
X130429047Y-37349523D01*
X130333809Y-37444761D01*
X130190952Y-37492380D01*
X130095714Y-37492380D01*
X131476666Y-37492380D02*
X130905238Y-37492380D01*
X131190952Y-37492380D02*
X131190952Y-36492380D01*
X131095714Y-36635238D01*
X131000476Y-36730476D01*
X130905238Y-36778095D01*
X127936666Y-36492380D02*
X127936666Y-37206666D01*
X127889047Y-37349523D01*
X127793809Y-37444761D01*
X127650952Y-37492380D01*
X127555714Y-37492380D01*
X128936666Y-37492380D02*
X128365238Y-37492380D01*
X128650952Y-37492380D02*
X128650952Y-36492380D01*
X128555714Y-36635238D01*
X128460476Y-36730476D01*
X128365238Y-36778095D01*
X125396666Y-36492380D02*
X125396666Y-37206666D01*
X125349047Y-37349523D01*
X125253809Y-37444761D01*
X125110952Y-37492380D01*
X125015714Y-37492380D01*
X126396666Y-37492380D02*
X125825238Y-37492380D01*
X126110952Y-37492380D02*
X126110952Y-36492380D01*
X126015714Y-36635238D01*
X125920476Y-36730476D01*
X125825238Y-36778095D01*
X122856666Y-36492380D02*
X122856666Y-37206666D01*
X122809047Y-37349523D01*
X122713809Y-37444761D01*
X122570952Y-37492380D01*
X122475714Y-37492380D01*
X123856666Y-37492380D02*
X123285238Y-37492380D01*
X123570952Y-37492380D02*
X123570952Y-36492380D01*
X123475714Y-36635238D01*
X123380476Y-36730476D01*
X123285238Y-36778095D01*
X120316666Y-36492380D02*
X120316666Y-37206666D01*
X120269047Y-37349523D01*
X120173809Y-37444761D01*
X120030952Y-37492380D01*
X119935714Y-37492380D01*
X121316666Y-37492380D02*
X120745238Y-37492380D01*
X121030952Y-37492380D02*
X121030952Y-36492380D01*
X120935714Y-36635238D01*
X120840476Y-36730476D01*
X120745238Y-36778095D01*
X117776666Y-36492380D02*
X117776666Y-37206666D01*
X117729047Y-37349523D01*
X117633809Y-37444761D01*
X117490952Y-37492380D01*
X117395714Y-37492380D01*
X118776666Y-37492380D02*
X118205238Y-37492380D01*
X118490952Y-37492380D02*
X118490952Y-36492380D01*
X118395714Y-36635238D01*
X118300476Y-36730476D01*
X118205238Y-36778095D01*
X115236666Y-36492380D02*
X115236666Y-37206666D01*
X115189047Y-37349523D01*
X115093809Y-37444761D01*
X114950952Y-37492380D01*
X114855714Y-37492380D01*
X116236666Y-37492380D02*
X115665238Y-37492380D01*
X115950952Y-37492380D02*
X115950952Y-36492380D01*
X115855714Y-36635238D01*
X115760476Y-36730476D01*
X115665238Y-36778095D01*
X112696666Y-36492380D02*
X112696666Y-37206666D01*
X112649047Y-37349523D01*
X112553809Y-37444761D01*
X112410952Y-37492380D01*
X112315714Y-37492380D01*
X113696666Y-37492380D02*
X113125238Y-37492380D01*
X113410952Y-37492380D02*
X113410952Y-36492380D01*
X113315714Y-36635238D01*
X113220476Y-36730476D01*
X113125238Y-36778095D01*
X110156666Y-36492380D02*
X110156666Y-37206666D01*
X110109047Y-37349523D01*
X110013809Y-37444761D01*
X109870952Y-37492380D01*
X109775714Y-37492380D01*
X111156666Y-37492380D02*
X110585238Y-37492380D01*
X110870952Y-37492380D02*
X110870952Y-36492380D01*
X110775714Y-36635238D01*
X110680476Y-36730476D01*
X110585238Y-36778095D01*
X107616666Y-36492380D02*
X107616666Y-37206666D01*
X107569047Y-37349523D01*
X107473809Y-37444761D01*
X107330952Y-37492380D01*
X107235714Y-37492380D01*
X108616666Y-37492380D02*
X108045238Y-37492380D01*
X108330952Y-37492380D02*
X108330952Y-36492380D01*
X108235714Y-36635238D01*
X108140476Y-36730476D01*
X108045238Y-36778095D01*
X99996666Y-53002380D02*
X99996666Y-53716666D01*
X99949047Y-53859523D01*
X99853809Y-53954761D01*
X99710952Y-54002380D01*
X99615714Y-54002380D01*
X100996666Y-54002380D02*
X100425238Y-54002380D01*
X100710952Y-54002380D02*
X100710952Y-53002380D01*
X100615714Y-53145238D01*
X100520476Y-53240476D01*
X100425238Y-53288095D01*
X97456666Y-53002380D02*
X97456666Y-53716666D01*
X97409047Y-53859523D01*
X97313809Y-53954761D01*
X97170952Y-54002380D01*
X97075714Y-54002380D01*
X98456666Y-54002380D02*
X97885238Y-54002380D01*
X98170952Y-54002380D02*
X98170952Y-53002380D01*
X98075714Y-53145238D01*
X97980476Y-53240476D01*
X97885238Y-53288095D01*
%TO.C,J3*%
X89836666Y-50462380D02*
X89836666Y-51176666D01*
X89789047Y-51319523D01*
X89693809Y-51414761D01*
X89550952Y-51462380D01*
X89455714Y-51462380D01*
X90217619Y-50462380D02*
X90836666Y-50462380D01*
X90503333Y-50843333D01*
X90646190Y-50843333D01*
X90741428Y-50890952D01*
X90789047Y-50938571D01*
X90836666Y-51033809D01*
X90836666Y-51271904D01*
X90789047Y-51367142D01*
X90741428Y-51414761D01*
X90646190Y-51462380D01*
X90360476Y-51462380D01*
X90265238Y-51414761D01*
X90217619Y-51367142D01*
X195246666Y-41362380D02*
X195246666Y-42076666D01*
X195199047Y-42219523D01*
X195103809Y-42314761D01*
X194960952Y-42362380D01*
X194865714Y-42362380D01*
X195627619Y-41362380D02*
X196246666Y-41362380D01*
X195913333Y-41743333D01*
X196056190Y-41743333D01*
X196151428Y-41790952D01*
X196199047Y-41838571D01*
X196246666Y-41933809D01*
X196246666Y-42171904D01*
X196199047Y-42267142D01*
X196151428Y-42314761D01*
X196056190Y-42362380D01*
X195770476Y-42362380D01*
X195675238Y-42314761D01*
X195627619Y-42267142D01*
X192706666Y-41572380D02*
X192706666Y-42286666D01*
X192659047Y-42429523D01*
X192563809Y-42524761D01*
X192420952Y-42572380D01*
X192325714Y-42572380D01*
X193087619Y-41572380D02*
X193706666Y-41572380D01*
X193373333Y-41953333D01*
X193516190Y-41953333D01*
X193611428Y-42000952D01*
X193659047Y-42048571D01*
X193706666Y-42143809D01*
X193706666Y-42381904D01*
X193659047Y-42477142D01*
X193611428Y-42524761D01*
X193516190Y-42572380D01*
X193230476Y-42572380D01*
X193135238Y-42524761D01*
X193087619Y-42477142D01*
X182546666Y-97452380D02*
X182546666Y-98166666D01*
X182499047Y-98309523D01*
X182403809Y-98404761D01*
X182260952Y-98452380D01*
X182165714Y-98452380D01*
X182927619Y-97452380D02*
X183546666Y-97452380D01*
X183213333Y-97833333D01*
X183356190Y-97833333D01*
X183451428Y-97880952D01*
X183499047Y-97928571D01*
X183546666Y-98023809D01*
X183546666Y-98261904D01*
X183499047Y-98357142D01*
X183451428Y-98404761D01*
X183356190Y-98452380D01*
X183070476Y-98452380D01*
X182975238Y-98404761D01*
X182927619Y-98357142D01*
X180006666Y-97452380D02*
X180006666Y-98166666D01*
X179959047Y-98309523D01*
X179863809Y-98404761D01*
X179720952Y-98452380D01*
X179625714Y-98452380D01*
X180387619Y-97452380D02*
X181006666Y-97452380D01*
X180673333Y-97833333D01*
X180816190Y-97833333D01*
X180911428Y-97880952D01*
X180959047Y-97928571D01*
X181006666Y-98023809D01*
X181006666Y-98261904D01*
X180959047Y-98357142D01*
X180911428Y-98404761D01*
X180816190Y-98452380D01*
X180530476Y-98452380D01*
X180435238Y-98404761D01*
X180387619Y-98357142D01*
X93646666Y-97452380D02*
X93646666Y-98166666D01*
X93599047Y-98309523D01*
X93503809Y-98404761D01*
X93360952Y-98452380D01*
X93265714Y-98452380D01*
X94027619Y-97452380D02*
X94646666Y-97452380D01*
X94313333Y-97833333D01*
X94456190Y-97833333D01*
X94551428Y-97880952D01*
X94599047Y-97928571D01*
X94646666Y-98023809D01*
X94646666Y-98261904D01*
X94599047Y-98357142D01*
X94551428Y-98404761D01*
X94456190Y-98452380D01*
X94170476Y-98452380D01*
X94075238Y-98404761D01*
X94027619Y-98357142D01*
X96186666Y-97452380D02*
X96186666Y-98166666D01*
X96139047Y-98309523D01*
X96043809Y-98404761D01*
X95900952Y-98452380D01*
X95805714Y-98452380D01*
X96567619Y-97452380D02*
X97186666Y-97452380D01*
X96853333Y-97833333D01*
X96996190Y-97833333D01*
X97091428Y-97880952D01*
X97139047Y-97928571D01*
X97186666Y-98023809D01*
X97186666Y-98261904D01*
X97139047Y-98357142D01*
X97091428Y-98404761D01*
X96996190Y-98452380D01*
X96710476Y-98452380D01*
X96615238Y-98404761D01*
X96567619Y-98357142D01*
X92376666Y-50462380D02*
X92376666Y-51176666D01*
X92329047Y-51319523D01*
X92233809Y-51414761D01*
X92090952Y-51462380D01*
X91995714Y-51462380D01*
X92757619Y-50462380D02*
X93376666Y-50462380D01*
X93043333Y-50843333D01*
X93186190Y-50843333D01*
X93281428Y-50890952D01*
X93329047Y-50938571D01*
X93376666Y-51033809D01*
X93376666Y-51271904D01*
X93329047Y-51367142D01*
X93281428Y-51414761D01*
X93186190Y-51462380D01*
X92900476Y-51462380D01*
X92805238Y-51414761D01*
X92757619Y-51367142D01*
X180006666Y-92372380D02*
X180006666Y-93086666D01*
X179959047Y-93229523D01*
X179863809Y-93324761D01*
X179720952Y-93372380D01*
X179625714Y-93372380D01*
X180387619Y-92372380D02*
X181006666Y-92372380D01*
X180673333Y-92753333D01*
X180816190Y-92753333D01*
X180911428Y-92800952D01*
X180959047Y-92848571D01*
X181006666Y-92943809D01*
X181006666Y-93181904D01*
X180959047Y-93277142D01*
X180911428Y-93324761D01*
X180816190Y-93372380D01*
X180530476Y-93372380D01*
X180435238Y-93324761D01*
X180387619Y-93277142D01*
X180006666Y-94912380D02*
X180006666Y-95626666D01*
X179959047Y-95769523D01*
X179863809Y-95864761D01*
X179720952Y-95912380D01*
X179625714Y-95912380D01*
X180387619Y-94912380D02*
X181006666Y-94912380D01*
X180673333Y-95293333D01*
X180816190Y-95293333D01*
X180911428Y-95340952D01*
X180959047Y-95388571D01*
X181006666Y-95483809D01*
X181006666Y-95721904D01*
X180959047Y-95817142D01*
X180911428Y-95864761D01*
X180816190Y-95912380D01*
X180530476Y-95912380D01*
X180435238Y-95864761D01*
X180387619Y-95817142D01*
X182546666Y-94912380D02*
X182546666Y-95626666D01*
X182499047Y-95769523D01*
X182403809Y-95864761D01*
X182260952Y-95912380D01*
X182165714Y-95912380D01*
X182927619Y-94912380D02*
X183546666Y-94912380D01*
X183213333Y-95293333D01*
X183356190Y-95293333D01*
X183451428Y-95340952D01*
X183499047Y-95388571D01*
X183546666Y-95483809D01*
X183546666Y-95721904D01*
X183499047Y-95817142D01*
X183451428Y-95864761D01*
X183356190Y-95912380D01*
X183070476Y-95912380D01*
X182975238Y-95864761D01*
X182927619Y-95817142D01*
X177466666Y-89832380D02*
X177466666Y-90546666D01*
X177419047Y-90689523D01*
X177323809Y-90784761D01*
X177180952Y-90832380D01*
X177085714Y-90832380D01*
X177847619Y-89832380D02*
X178466666Y-89832380D01*
X178133333Y-90213333D01*
X178276190Y-90213333D01*
X178371428Y-90260952D01*
X178419047Y-90308571D01*
X178466666Y-90403809D01*
X178466666Y-90641904D01*
X178419047Y-90737142D01*
X178371428Y-90784761D01*
X178276190Y-90832380D01*
X177990476Y-90832380D01*
X177895238Y-90784761D01*
X177847619Y-90737142D01*
X177466666Y-92372380D02*
X177466666Y-93086666D01*
X177419047Y-93229523D01*
X177323809Y-93324761D01*
X177180952Y-93372380D01*
X177085714Y-93372380D01*
X177847619Y-92372380D02*
X178466666Y-92372380D01*
X178133333Y-92753333D01*
X178276190Y-92753333D01*
X178371428Y-92800952D01*
X178419047Y-92848571D01*
X178466666Y-92943809D01*
X178466666Y-93181904D01*
X178419047Y-93277142D01*
X178371428Y-93324761D01*
X178276190Y-93372380D01*
X177990476Y-93372380D01*
X177895238Y-93324761D01*
X177847619Y-93277142D01*
X182546666Y-89832380D02*
X182546666Y-90546666D01*
X182499047Y-90689523D01*
X182403809Y-90784761D01*
X182260952Y-90832380D01*
X182165714Y-90832380D01*
X182927619Y-89832380D02*
X183546666Y-89832380D01*
X183213333Y-90213333D01*
X183356190Y-90213333D01*
X183451428Y-90260952D01*
X183499047Y-90308571D01*
X183546666Y-90403809D01*
X183546666Y-90641904D01*
X183499047Y-90737142D01*
X183451428Y-90784761D01*
X183356190Y-90832380D01*
X183070476Y-90832380D01*
X182975238Y-90784761D01*
X182927619Y-90737142D01*
X180006666Y-89832380D02*
X180006666Y-90546666D01*
X179959047Y-90689523D01*
X179863809Y-90784761D01*
X179720952Y-90832380D01*
X179625714Y-90832380D01*
X180387619Y-89832380D02*
X181006666Y-89832380D01*
X180673333Y-90213333D01*
X180816190Y-90213333D01*
X180911428Y-90260952D01*
X180959047Y-90308571D01*
X181006666Y-90403809D01*
X181006666Y-90641904D01*
X180959047Y-90737142D01*
X180911428Y-90784761D01*
X180816190Y-90832380D01*
X180530476Y-90832380D01*
X180435238Y-90784761D01*
X180387619Y-90737142D01*
X182546666Y-92372380D02*
X182546666Y-93086666D01*
X182499047Y-93229523D01*
X182403809Y-93324761D01*
X182260952Y-93372380D01*
X182165714Y-93372380D01*
X182927619Y-92372380D02*
X183546666Y-92372380D01*
X183213333Y-92753333D01*
X183356190Y-92753333D01*
X183451428Y-92800952D01*
X183499047Y-92848571D01*
X183546666Y-92943809D01*
X183546666Y-93181904D01*
X183499047Y-93277142D01*
X183451428Y-93324761D01*
X183356190Y-93372380D01*
X183070476Y-93372380D01*
X182975238Y-93324761D01*
X182927619Y-93277142D01*
X177466666Y-94912380D02*
X177466666Y-95626666D01*
X177419047Y-95769523D01*
X177323809Y-95864761D01*
X177180952Y-95912380D01*
X177085714Y-95912380D01*
X177847619Y-94912380D02*
X178466666Y-94912380D01*
X178133333Y-95293333D01*
X178276190Y-95293333D01*
X178371428Y-95340952D01*
X178419047Y-95388571D01*
X178466666Y-95483809D01*
X178466666Y-95721904D01*
X178419047Y-95817142D01*
X178371428Y-95864761D01*
X178276190Y-95912380D01*
X177990476Y-95912380D01*
X177895238Y-95864761D01*
X177847619Y-95817142D01*
X182546666Y-66972380D02*
X182546666Y-67686666D01*
X182499047Y-67829523D01*
X182403809Y-67924761D01*
X182260952Y-67972380D01*
X182165714Y-67972380D01*
X182927619Y-66972380D02*
X183546666Y-66972380D01*
X183213333Y-67353333D01*
X183356190Y-67353333D01*
X183451428Y-67400952D01*
X183499047Y-67448571D01*
X183546666Y-67543809D01*
X183546666Y-67781904D01*
X183499047Y-67877142D01*
X183451428Y-67924761D01*
X183356190Y-67972380D01*
X183070476Y-67972380D01*
X182975238Y-67924761D01*
X182927619Y-67877142D01*
X180006666Y-66972380D02*
X180006666Y-67686666D01*
X179959047Y-67829523D01*
X179863809Y-67924761D01*
X179720952Y-67972380D01*
X179625714Y-67972380D01*
X180387619Y-66972380D02*
X181006666Y-66972380D01*
X180673333Y-67353333D01*
X180816190Y-67353333D01*
X180911428Y-67400952D01*
X180959047Y-67448571D01*
X181006666Y-67543809D01*
X181006666Y-67781904D01*
X180959047Y-67877142D01*
X180911428Y-67924761D01*
X180816190Y-67972380D01*
X180530476Y-67972380D01*
X180435238Y-67924761D01*
X180387619Y-67877142D01*
X182546666Y-79672380D02*
X182546666Y-80386666D01*
X182499047Y-80529523D01*
X182403809Y-80624761D01*
X182260952Y-80672380D01*
X182165714Y-80672380D01*
X182927619Y-79672380D02*
X183546666Y-79672380D01*
X183213333Y-80053333D01*
X183356190Y-80053333D01*
X183451428Y-80100952D01*
X183499047Y-80148571D01*
X183546666Y-80243809D01*
X183546666Y-80481904D01*
X183499047Y-80577142D01*
X183451428Y-80624761D01*
X183356190Y-80672380D01*
X183070476Y-80672380D01*
X182975238Y-80624761D01*
X182927619Y-80577142D01*
X182546666Y-72052380D02*
X182546666Y-72766666D01*
X182499047Y-72909523D01*
X182403809Y-73004761D01*
X182260952Y-73052380D01*
X182165714Y-73052380D01*
X182927619Y-72052380D02*
X183546666Y-72052380D01*
X183213333Y-72433333D01*
X183356190Y-72433333D01*
X183451428Y-72480952D01*
X183499047Y-72528571D01*
X183546666Y-72623809D01*
X183546666Y-72861904D01*
X183499047Y-72957142D01*
X183451428Y-73004761D01*
X183356190Y-73052380D01*
X183070476Y-73052380D01*
X182975238Y-73004761D01*
X182927619Y-72957142D01*
X177466666Y-74592380D02*
X177466666Y-75306666D01*
X177419047Y-75449523D01*
X177323809Y-75544761D01*
X177180952Y-75592380D01*
X177085714Y-75592380D01*
X177847619Y-74592380D02*
X178466666Y-74592380D01*
X178133333Y-74973333D01*
X178276190Y-74973333D01*
X178371428Y-75020952D01*
X178419047Y-75068571D01*
X178466666Y-75163809D01*
X178466666Y-75401904D01*
X178419047Y-75497142D01*
X178371428Y-75544761D01*
X178276190Y-75592380D01*
X177990476Y-75592380D01*
X177895238Y-75544761D01*
X177847619Y-75497142D01*
X182546666Y-69512380D02*
X182546666Y-70226666D01*
X182499047Y-70369523D01*
X182403809Y-70464761D01*
X182260952Y-70512380D01*
X182165714Y-70512380D01*
X182927619Y-69512380D02*
X183546666Y-69512380D01*
X183213333Y-69893333D01*
X183356190Y-69893333D01*
X183451428Y-69940952D01*
X183499047Y-69988571D01*
X183546666Y-70083809D01*
X183546666Y-70321904D01*
X183499047Y-70417142D01*
X183451428Y-70464761D01*
X183356190Y-70512380D01*
X183070476Y-70512380D01*
X182975238Y-70464761D01*
X182927619Y-70417142D01*
X180006666Y-79672380D02*
X180006666Y-80386666D01*
X179959047Y-80529523D01*
X179863809Y-80624761D01*
X179720952Y-80672380D01*
X179625714Y-80672380D01*
X180387619Y-79672380D02*
X181006666Y-79672380D01*
X180673333Y-80053333D01*
X180816190Y-80053333D01*
X180911428Y-80100952D01*
X180959047Y-80148571D01*
X181006666Y-80243809D01*
X181006666Y-80481904D01*
X180959047Y-80577142D01*
X180911428Y-80624761D01*
X180816190Y-80672380D01*
X180530476Y-80672380D01*
X180435238Y-80624761D01*
X180387619Y-80577142D01*
X177466666Y-79672380D02*
X177466666Y-80386666D01*
X177419047Y-80529523D01*
X177323809Y-80624761D01*
X177180952Y-80672380D01*
X177085714Y-80672380D01*
X177847619Y-79672380D02*
X178466666Y-79672380D01*
X178133333Y-80053333D01*
X178276190Y-80053333D01*
X178371428Y-80100952D01*
X178419047Y-80148571D01*
X178466666Y-80243809D01*
X178466666Y-80481904D01*
X178419047Y-80577142D01*
X178371428Y-80624761D01*
X178276190Y-80672380D01*
X177990476Y-80672380D01*
X177895238Y-80624761D01*
X177847619Y-80577142D01*
X182546666Y-77132380D02*
X182546666Y-77846666D01*
X182499047Y-77989523D01*
X182403809Y-78084761D01*
X182260952Y-78132380D01*
X182165714Y-78132380D01*
X182927619Y-77132380D02*
X183546666Y-77132380D01*
X183213333Y-77513333D01*
X183356190Y-77513333D01*
X183451428Y-77560952D01*
X183499047Y-77608571D01*
X183546666Y-77703809D01*
X183546666Y-77941904D01*
X183499047Y-78037142D01*
X183451428Y-78084761D01*
X183356190Y-78132380D01*
X183070476Y-78132380D01*
X182975238Y-78084761D01*
X182927619Y-78037142D01*
X177466666Y-77132380D02*
X177466666Y-77846666D01*
X177419047Y-77989523D01*
X177323809Y-78084761D01*
X177180952Y-78132380D01*
X177085714Y-78132380D01*
X177847619Y-77132380D02*
X178466666Y-77132380D01*
X178133333Y-77513333D01*
X178276190Y-77513333D01*
X178371428Y-77560952D01*
X178419047Y-77608571D01*
X178466666Y-77703809D01*
X178466666Y-77941904D01*
X178419047Y-78037142D01*
X178371428Y-78084761D01*
X178276190Y-78132380D01*
X177990476Y-78132380D01*
X177895238Y-78084761D01*
X177847619Y-78037142D01*
X177466666Y-87292380D02*
X177466666Y-88006666D01*
X177419047Y-88149523D01*
X177323809Y-88244761D01*
X177180952Y-88292380D01*
X177085714Y-88292380D01*
X177847619Y-87292380D02*
X178466666Y-87292380D01*
X178133333Y-87673333D01*
X178276190Y-87673333D01*
X178371428Y-87720952D01*
X178419047Y-87768571D01*
X178466666Y-87863809D01*
X178466666Y-88101904D01*
X178419047Y-88197142D01*
X178371428Y-88244761D01*
X178276190Y-88292380D01*
X177990476Y-88292380D01*
X177895238Y-88244761D01*
X177847619Y-88197142D01*
X182546666Y-82212380D02*
X182546666Y-82926666D01*
X182499047Y-83069523D01*
X182403809Y-83164761D01*
X182260952Y-83212380D01*
X182165714Y-83212380D01*
X182927619Y-82212380D02*
X183546666Y-82212380D01*
X183213333Y-82593333D01*
X183356190Y-82593333D01*
X183451428Y-82640952D01*
X183499047Y-82688571D01*
X183546666Y-82783809D01*
X183546666Y-83021904D01*
X183499047Y-83117142D01*
X183451428Y-83164761D01*
X183356190Y-83212380D01*
X183070476Y-83212380D01*
X182975238Y-83164761D01*
X182927619Y-83117142D01*
X180006666Y-72052380D02*
X180006666Y-72766666D01*
X179959047Y-72909523D01*
X179863809Y-73004761D01*
X179720952Y-73052380D01*
X179625714Y-73052380D01*
X180387619Y-72052380D02*
X181006666Y-72052380D01*
X180673333Y-72433333D01*
X180816190Y-72433333D01*
X180911428Y-72480952D01*
X180959047Y-72528571D01*
X181006666Y-72623809D01*
X181006666Y-72861904D01*
X180959047Y-72957142D01*
X180911428Y-73004761D01*
X180816190Y-73052380D01*
X180530476Y-73052380D01*
X180435238Y-73004761D01*
X180387619Y-72957142D01*
X177466666Y-82212380D02*
X177466666Y-82926666D01*
X177419047Y-83069523D01*
X177323809Y-83164761D01*
X177180952Y-83212380D01*
X177085714Y-83212380D01*
X177847619Y-82212380D02*
X178466666Y-82212380D01*
X178133333Y-82593333D01*
X178276190Y-82593333D01*
X178371428Y-82640952D01*
X178419047Y-82688571D01*
X178466666Y-82783809D01*
X178466666Y-83021904D01*
X178419047Y-83117142D01*
X178371428Y-83164761D01*
X178276190Y-83212380D01*
X177990476Y-83212380D01*
X177895238Y-83164761D01*
X177847619Y-83117142D01*
X177466666Y-69512380D02*
X177466666Y-70226666D01*
X177419047Y-70369523D01*
X177323809Y-70464761D01*
X177180952Y-70512380D01*
X177085714Y-70512380D01*
X177847619Y-69512380D02*
X178466666Y-69512380D01*
X178133333Y-69893333D01*
X178276190Y-69893333D01*
X178371428Y-69940952D01*
X178419047Y-69988571D01*
X178466666Y-70083809D01*
X178466666Y-70321904D01*
X178419047Y-70417142D01*
X178371428Y-70464761D01*
X178276190Y-70512380D01*
X177990476Y-70512380D01*
X177895238Y-70464761D01*
X177847619Y-70417142D01*
X180006666Y-69512380D02*
X180006666Y-70226666D01*
X179959047Y-70369523D01*
X179863809Y-70464761D01*
X179720952Y-70512380D01*
X179625714Y-70512380D01*
X180387619Y-69512380D02*
X181006666Y-69512380D01*
X180673333Y-69893333D01*
X180816190Y-69893333D01*
X180911428Y-69940952D01*
X180959047Y-69988571D01*
X181006666Y-70083809D01*
X181006666Y-70321904D01*
X180959047Y-70417142D01*
X180911428Y-70464761D01*
X180816190Y-70512380D01*
X180530476Y-70512380D01*
X180435238Y-70464761D01*
X180387619Y-70417142D01*
X180006666Y-82212380D02*
X180006666Y-82926666D01*
X179959047Y-83069523D01*
X179863809Y-83164761D01*
X179720952Y-83212380D01*
X179625714Y-83212380D01*
X180387619Y-82212380D02*
X181006666Y-82212380D01*
X180673333Y-82593333D01*
X180816190Y-82593333D01*
X180911428Y-82640952D01*
X180959047Y-82688571D01*
X181006666Y-82783809D01*
X181006666Y-83021904D01*
X180959047Y-83117142D01*
X180911428Y-83164761D01*
X180816190Y-83212380D01*
X180530476Y-83212380D01*
X180435238Y-83164761D01*
X180387619Y-83117142D01*
X180006666Y-74592380D02*
X180006666Y-75306666D01*
X179959047Y-75449523D01*
X179863809Y-75544761D01*
X179720952Y-75592380D01*
X179625714Y-75592380D01*
X180387619Y-74592380D02*
X181006666Y-74592380D01*
X180673333Y-74973333D01*
X180816190Y-74973333D01*
X180911428Y-75020952D01*
X180959047Y-75068571D01*
X181006666Y-75163809D01*
X181006666Y-75401904D01*
X180959047Y-75497142D01*
X180911428Y-75544761D01*
X180816190Y-75592380D01*
X180530476Y-75592380D01*
X180435238Y-75544761D01*
X180387619Y-75497142D01*
X180006666Y-87292380D02*
X180006666Y-88006666D01*
X179959047Y-88149523D01*
X179863809Y-88244761D01*
X179720952Y-88292380D01*
X179625714Y-88292380D01*
X180387619Y-87292380D02*
X181006666Y-87292380D01*
X180673333Y-87673333D01*
X180816190Y-87673333D01*
X180911428Y-87720952D01*
X180959047Y-87768571D01*
X181006666Y-87863809D01*
X181006666Y-88101904D01*
X180959047Y-88197142D01*
X180911428Y-88244761D01*
X180816190Y-88292380D01*
X180530476Y-88292380D01*
X180435238Y-88244761D01*
X180387619Y-88197142D01*
X182546666Y-84752380D02*
X182546666Y-85466666D01*
X182499047Y-85609523D01*
X182403809Y-85704761D01*
X182260952Y-85752380D01*
X182165714Y-85752380D01*
X182927619Y-84752380D02*
X183546666Y-84752380D01*
X183213333Y-85133333D01*
X183356190Y-85133333D01*
X183451428Y-85180952D01*
X183499047Y-85228571D01*
X183546666Y-85323809D01*
X183546666Y-85561904D01*
X183499047Y-85657142D01*
X183451428Y-85704761D01*
X183356190Y-85752380D01*
X183070476Y-85752380D01*
X182975238Y-85704761D01*
X182927619Y-85657142D01*
X182546666Y-74592380D02*
X182546666Y-75306666D01*
X182499047Y-75449523D01*
X182403809Y-75544761D01*
X182260952Y-75592380D01*
X182165714Y-75592380D01*
X182927619Y-74592380D02*
X183546666Y-74592380D01*
X183213333Y-74973333D01*
X183356190Y-74973333D01*
X183451428Y-75020952D01*
X183499047Y-75068571D01*
X183546666Y-75163809D01*
X183546666Y-75401904D01*
X183499047Y-75497142D01*
X183451428Y-75544761D01*
X183356190Y-75592380D01*
X183070476Y-75592380D01*
X182975238Y-75544761D01*
X182927619Y-75497142D01*
X180006666Y-49192380D02*
X180006666Y-49906666D01*
X179959047Y-50049523D01*
X179863809Y-50144761D01*
X179720952Y-50192380D01*
X179625714Y-50192380D01*
X180387619Y-49192380D02*
X181006666Y-49192380D01*
X180673333Y-49573333D01*
X180816190Y-49573333D01*
X180911428Y-49620952D01*
X180959047Y-49668571D01*
X181006666Y-49763809D01*
X181006666Y-50001904D01*
X180959047Y-50097142D01*
X180911428Y-50144761D01*
X180816190Y-50192380D01*
X180530476Y-50192380D01*
X180435238Y-50144761D01*
X180387619Y-50097142D01*
X180006666Y-84752380D02*
X180006666Y-85466666D01*
X179959047Y-85609523D01*
X179863809Y-85704761D01*
X179720952Y-85752380D01*
X179625714Y-85752380D01*
X180387619Y-84752380D02*
X181006666Y-84752380D01*
X180673333Y-85133333D01*
X180816190Y-85133333D01*
X180911428Y-85180952D01*
X180959047Y-85228571D01*
X181006666Y-85323809D01*
X181006666Y-85561904D01*
X180959047Y-85657142D01*
X180911428Y-85704761D01*
X180816190Y-85752380D01*
X180530476Y-85752380D01*
X180435238Y-85704761D01*
X180387619Y-85657142D01*
X177466666Y-72052380D02*
X177466666Y-72766666D01*
X177419047Y-72909523D01*
X177323809Y-73004761D01*
X177180952Y-73052380D01*
X177085714Y-73052380D01*
X177847619Y-72052380D02*
X178466666Y-72052380D01*
X178133333Y-72433333D01*
X178276190Y-72433333D01*
X178371428Y-72480952D01*
X178419047Y-72528571D01*
X178466666Y-72623809D01*
X178466666Y-72861904D01*
X178419047Y-72957142D01*
X178371428Y-73004761D01*
X178276190Y-73052380D01*
X177990476Y-73052380D01*
X177895238Y-73004761D01*
X177847619Y-72957142D01*
X180006666Y-77132380D02*
X180006666Y-77846666D01*
X179959047Y-77989523D01*
X179863809Y-78084761D01*
X179720952Y-78132380D01*
X179625714Y-78132380D01*
X180387619Y-77132380D02*
X181006666Y-77132380D01*
X180673333Y-77513333D01*
X180816190Y-77513333D01*
X180911428Y-77560952D01*
X180959047Y-77608571D01*
X181006666Y-77703809D01*
X181006666Y-77941904D01*
X180959047Y-78037142D01*
X180911428Y-78084761D01*
X180816190Y-78132380D01*
X180530476Y-78132380D01*
X180435238Y-78084761D01*
X180387619Y-78037142D01*
X177466666Y-84752380D02*
X177466666Y-85466666D01*
X177419047Y-85609523D01*
X177323809Y-85704761D01*
X177180952Y-85752380D01*
X177085714Y-85752380D01*
X177847619Y-84752380D02*
X178466666Y-84752380D01*
X178133333Y-85133333D01*
X178276190Y-85133333D01*
X178371428Y-85180952D01*
X178419047Y-85228571D01*
X178466666Y-85323809D01*
X178466666Y-85561904D01*
X178419047Y-85657142D01*
X178371428Y-85704761D01*
X178276190Y-85752380D01*
X177990476Y-85752380D01*
X177895238Y-85704761D01*
X177847619Y-85657142D01*
X182546666Y-87292380D02*
X182546666Y-88006666D01*
X182499047Y-88149523D01*
X182403809Y-88244761D01*
X182260952Y-88292380D01*
X182165714Y-88292380D01*
X182927619Y-87292380D02*
X183546666Y-87292380D01*
X183213333Y-87673333D01*
X183356190Y-87673333D01*
X183451428Y-87720952D01*
X183499047Y-87768571D01*
X183546666Y-87863809D01*
X183546666Y-88101904D01*
X183499047Y-88197142D01*
X183451428Y-88244761D01*
X183356190Y-88292380D01*
X183070476Y-88292380D01*
X182975238Y-88244761D01*
X182927619Y-88197142D01*
X98726666Y-94912380D02*
X98726666Y-95626666D01*
X98679047Y-95769523D01*
X98583809Y-95864761D01*
X98440952Y-95912380D01*
X98345714Y-95912380D01*
X99107619Y-94912380D02*
X99726666Y-94912380D01*
X99393333Y-95293333D01*
X99536190Y-95293333D01*
X99631428Y-95340952D01*
X99679047Y-95388571D01*
X99726666Y-95483809D01*
X99726666Y-95721904D01*
X99679047Y-95817142D01*
X99631428Y-95864761D01*
X99536190Y-95912380D01*
X99250476Y-95912380D01*
X99155238Y-95864761D01*
X99107619Y-95817142D01*
X96186666Y-94912380D02*
X96186666Y-95626666D01*
X96139047Y-95769523D01*
X96043809Y-95864761D01*
X95900952Y-95912380D01*
X95805714Y-95912380D01*
X96567619Y-94912380D02*
X97186666Y-94912380D01*
X96853333Y-95293333D01*
X96996190Y-95293333D01*
X97091428Y-95340952D01*
X97139047Y-95388571D01*
X97186666Y-95483809D01*
X97186666Y-95721904D01*
X97139047Y-95817142D01*
X97091428Y-95864761D01*
X96996190Y-95912380D01*
X96710476Y-95912380D01*
X96615238Y-95864761D01*
X96567619Y-95817142D01*
X93646666Y-94912380D02*
X93646666Y-95626666D01*
X93599047Y-95769523D01*
X93503809Y-95864761D01*
X93360952Y-95912380D01*
X93265714Y-95912380D01*
X94027619Y-94912380D02*
X94646666Y-94912380D01*
X94313333Y-95293333D01*
X94456190Y-95293333D01*
X94551428Y-95340952D01*
X94599047Y-95388571D01*
X94646666Y-95483809D01*
X94646666Y-95721904D01*
X94599047Y-95817142D01*
X94551428Y-95864761D01*
X94456190Y-95912380D01*
X94170476Y-95912380D01*
X94075238Y-95864761D01*
X94027619Y-95817142D01*
X98726666Y-92372380D02*
X98726666Y-93086666D01*
X98679047Y-93229523D01*
X98583809Y-93324761D01*
X98440952Y-93372380D01*
X98345714Y-93372380D01*
X99107619Y-92372380D02*
X99726666Y-92372380D01*
X99393333Y-92753333D01*
X99536190Y-92753333D01*
X99631428Y-92800952D01*
X99679047Y-92848571D01*
X99726666Y-92943809D01*
X99726666Y-93181904D01*
X99679047Y-93277142D01*
X99631428Y-93324761D01*
X99536190Y-93372380D01*
X99250476Y-93372380D01*
X99155238Y-93324761D01*
X99107619Y-93277142D01*
X96186666Y-92372380D02*
X96186666Y-93086666D01*
X96139047Y-93229523D01*
X96043809Y-93324761D01*
X95900952Y-93372380D01*
X95805714Y-93372380D01*
X96567619Y-92372380D02*
X97186666Y-92372380D01*
X96853333Y-92753333D01*
X96996190Y-92753333D01*
X97091428Y-92800952D01*
X97139047Y-92848571D01*
X97186666Y-92943809D01*
X97186666Y-93181904D01*
X97139047Y-93277142D01*
X97091428Y-93324761D01*
X96996190Y-93372380D01*
X96710476Y-93372380D01*
X96615238Y-93324761D01*
X96567619Y-93277142D01*
X93646666Y-92372380D02*
X93646666Y-93086666D01*
X93599047Y-93229523D01*
X93503809Y-93324761D01*
X93360952Y-93372380D01*
X93265714Y-93372380D01*
X94027619Y-92372380D02*
X94646666Y-92372380D01*
X94313333Y-92753333D01*
X94456190Y-92753333D01*
X94551428Y-92800952D01*
X94599047Y-92848571D01*
X94646666Y-92943809D01*
X94646666Y-93181904D01*
X94599047Y-93277142D01*
X94551428Y-93324761D01*
X94456190Y-93372380D01*
X94170476Y-93372380D01*
X94075238Y-93324761D01*
X94027619Y-93277142D01*
X98726666Y-89832380D02*
X98726666Y-90546666D01*
X98679047Y-90689523D01*
X98583809Y-90784761D01*
X98440952Y-90832380D01*
X98345714Y-90832380D01*
X99107619Y-89832380D02*
X99726666Y-89832380D01*
X99393333Y-90213333D01*
X99536190Y-90213333D01*
X99631428Y-90260952D01*
X99679047Y-90308571D01*
X99726666Y-90403809D01*
X99726666Y-90641904D01*
X99679047Y-90737142D01*
X99631428Y-90784761D01*
X99536190Y-90832380D01*
X99250476Y-90832380D01*
X99155238Y-90784761D01*
X99107619Y-90737142D01*
X96186666Y-89832380D02*
X96186666Y-90546666D01*
X96139047Y-90689523D01*
X96043809Y-90784761D01*
X95900952Y-90832380D01*
X95805714Y-90832380D01*
X96567619Y-89832380D02*
X97186666Y-89832380D01*
X96853333Y-90213333D01*
X96996190Y-90213333D01*
X97091428Y-90260952D01*
X97139047Y-90308571D01*
X97186666Y-90403809D01*
X97186666Y-90641904D01*
X97139047Y-90737142D01*
X97091428Y-90784761D01*
X96996190Y-90832380D01*
X96710476Y-90832380D01*
X96615238Y-90784761D01*
X96567619Y-90737142D01*
X93646666Y-89832380D02*
X93646666Y-90546666D01*
X93599047Y-90689523D01*
X93503809Y-90784761D01*
X93360952Y-90832380D01*
X93265714Y-90832380D01*
X94027619Y-89832380D02*
X94646666Y-89832380D01*
X94313333Y-90213333D01*
X94456190Y-90213333D01*
X94551428Y-90260952D01*
X94599047Y-90308571D01*
X94646666Y-90403809D01*
X94646666Y-90641904D01*
X94599047Y-90737142D01*
X94551428Y-90784761D01*
X94456190Y-90832380D01*
X94170476Y-90832380D01*
X94075238Y-90784761D01*
X94027619Y-90737142D01*
X98726666Y-87292380D02*
X98726666Y-88006666D01*
X98679047Y-88149523D01*
X98583809Y-88244761D01*
X98440952Y-88292380D01*
X98345714Y-88292380D01*
X99107619Y-87292380D02*
X99726666Y-87292380D01*
X99393333Y-87673333D01*
X99536190Y-87673333D01*
X99631428Y-87720952D01*
X99679047Y-87768571D01*
X99726666Y-87863809D01*
X99726666Y-88101904D01*
X99679047Y-88197142D01*
X99631428Y-88244761D01*
X99536190Y-88292380D01*
X99250476Y-88292380D01*
X99155238Y-88244761D01*
X99107619Y-88197142D01*
X96186666Y-87292380D02*
X96186666Y-88006666D01*
X96139047Y-88149523D01*
X96043809Y-88244761D01*
X95900952Y-88292380D01*
X95805714Y-88292380D01*
X96567619Y-87292380D02*
X97186666Y-87292380D01*
X96853333Y-87673333D01*
X96996190Y-87673333D01*
X97091428Y-87720952D01*
X97139047Y-87768571D01*
X97186666Y-87863809D01*
X97186666Y-88101904D01*
X97139047Y-88197142D01*
X97091428Y-88244761D01*
X96996190Y-88292380D01*
X96710476Y-88292380D01*
X96615238Y-88244761D01*
X96567619Y-88197142D01*
X93646666Y-87292380D02*
X93646666Y-88006666D01*
X93599047Y-88149523D01*
X93503809Y-88244761D01*
X93360952Y-88292380D01*
X93265714Y-88292380D01*
X94027619Y-87292380D02*
X94646666Y-87292380D01*
X94313333Y-87673333D01*
X94456190Y-87673333D01*
X94551428Y-87720952D01*
X94599047Y-87768571D01*
X94646666Y-87863809D01*
X94646666Y-88101904D01*
X94599047Y-88197142D01*
X94551428Y-88244761D01*
X94456190Y-88292380D01*
X94170476Y-88292380D01*
X94075238Y-88244761D01*
X94027619Y-88197142D01*
X98726666Y-84752380D02*
X98726666Y-85466666D01*
X98679047Y-85609523D01*
X98583809Y-85704761D01*
X98440952Y-85752380D01*
X98345714Y-85752380D01*
X99107619Y-84752380D02*
X99726666Y-84752380D01*
X99393333Y-85133333D01*
X99536190Y-85133333D01*
X99631428Y-85180952D01*
X99679047Y-85228571D01*
X99726666Y-85323809D01*
X99726666Y-85561904D01*
X99679047Y-85657142D01*
X99631428Y-85704761D01*
X99536190Y-85752380D01*
X99250476Y-85752380D01*
X99155238Y-85704761D01*
X99107619Y-85657142D01*
X96186666Y-84752380D02*
X96186666Y-85466666D01*
X96139047Y-85609523D01*
X96043809Y-85704761D01*
X95900952Y-85752380D01*
X95805714Y-85752380D01*
X96567619Y-84752380D02*
X97186666Y-84752380D01*
X96853333Y-85133333D01*
X96996190Y-85133333D01*
X97091428Y-85180952D01*
X97139047Y-85228571D01*
X97186666Y-85323809D01*
X97186666Y-85561904D01*
X97139047Y-85657142D01*
X97091428Y-85704761D01*
X96996190Y-85752380D01*
X96710476Y-85752380D01*
X96615238Y-85704761D01*
X96567619Y-85657142D01*
X93646666Y-84752380D02*
X93646666Y-85466666D01*
X93599047Y-85609523D01*
X93503809Y-85704761D01*
X93360952Y-85752380D01*
X93265714Y-85752380D01*
X94027619Y-84752380D02*
X94646666Y-84752380D01*
X94313333Y-85133333D01*
X94456190Y-85133333D01*
X94551428Y-85180952D01*
X94599047Y-85228571D01*
X94646666Y-85323809D01*
X94646666Y-85561904D01*
X94599047Y-85657142D01*
X94551428Y-85704761D01*
X94456190Y-85752380D01*
X94170476Y-85752380D01*
X94075238Y-85704761D01*
X94027619Y-85657142D01*
X98726666Y-82212380D02*
X98726666Y-82926666D01*
X98679047Y-83069523D01*
X98583809Y-83164761D01*
X98440952Y-83212380D01*
X98345714Y-83212380D01*
X99107619Y-82212380D02*
X99726666Y-82212380D01*
X99393333Y-82593333D01*
X99536190Y-82593333D01*
X99631428Y-82640952D01*
X99679047Y-82688571D01*
X99726666Y-82783809D01*
X99726666Y-83021904D01*
X99679047Y-83117142D01*
X99631428Y-83164761D01*
X99536190Y-83212380D01*
X99250476Y-83212380D01*
X99155238Y-83164761D01*
X99107619Y-83117142D01*
X96186666Y-82212380D02*
X96186666Y-82926666D01*
X96139047Y-83069523D01*
X96043809Y-83164761D01*
X95900952Y-83212380D01*
X95805714Y-83212380D01*
X96567619Y-82212380D02*
X97186666Y-82212380D01*
X96853333Y-82593333D01*
X96996190Y-82593333D01*
X97091428Y-82640952D01*
X97139047Y-82688571D01*
X97186666Y-82783809D01*
X97186666Y-83021904D01*
X97139047Y-83117142D01*
X97091428Y-83164761D01*
X96996190Y-83212380D01*
X96710476Y-83212380D01*
X96615238Y-83164761D01*
X96567619Y-83117142D01*
X93646666Y-82212380D02*
X93646666Y-82926666D01*
X93599047Y-83069523D01*
X93503809Y-83164761D01*
X93360952Y-83212380D01*
X93265714Y-83212380D01*
X94027619Y-82212380D02*
X94646666Y-82212380D01*
X94313333Y-82593333D01*
X94456190Y-82593333D01*
X94551428Y-82640952D01*
X94599047Y-82688571D01*
X94646666Y-82783809D01*
X94646666Y-83021904D01*
X94599047Y-83117142D01*
X94551428Y-83164761D01*
X94456190Y-83212380D01*
X94170476Y-83212380D01*
X94075238Y-83164761D01*
X94027619Y-83117142D01*
X98726666Y-79672380D02*
X98726666Y-80386666D01*
X98679047Y-80529523D01*
X98583809Y-80624761D01*
X98440952Y-80672380D01*
X98345714Y-80672380D01*
X99107619Y-79672380D02*
X99726666Y-79672380D01*
X99393333Y-80053333D01*
X99536190Y-80053333D01*
X99631428Y-80100952D01*
X99679047Y-80148571D01*
X99726666Y-80243809D01*
X99726666Y-80481904D01*
X99679047Y-80577142D01*
X99631428Y-80624761D01*
X99536190Y-80672380D01*
X99250476Y-80672380D01*
X99155238Y-80624761D01*
X99107619Y-80577142D01*
X96186666Y-79672380D02*
X96186666Y-80386666D01*
X96139047Y-80529523D01*
X96043809Y-80624761D01*
X95900952Y-80672380D01*
X95805714Y-80672380D01*
X96567619Y-79672380D02*
X97186666Y-79672380D01*
X96853333Y-80053333D01*
X96996190Y-80053333D01*
X97091428Y-80100952D01*
X97139047Y-80148571D01*
X97186666Y-80243809D01*
X97186666Y-80481904D01*
X97139047Y-80577142D01*
X97091428Y-80624761D01*
X96996190Y-80672380D01*
X96710476Y-80672380D01*
X96615238Y-80624761D01*
X96567619Y-80577142D01*
X93646666Y-79672380D02*
X93646666Y-80386666D01*
X93599047Y-80529523D01*
X93503809Y-80624761D01*
X93360952Y-80672380D01*
X93265714Y-80672380D01*
X94027619Y-79672380D02*
X94646666Y-79672380D01*
X94313333Y-80053333D01*
X94456190Y-80053333D01*
X94551428Y-80100952D01*
X94599047Y-80148571D01*
X94646666Y-80243809D01*
X94646666Y-80481904D01*
X94599047Y-80577142D01*
X94551428Y-80624761D01*
X94456190Y-80672380D01*
X94170476Y-80672380D01*
X94075238Y-80624761D01*
X94027619Y-80577142D01*
X98726666Y-77132380D02*
X98726666Y-77846666D01*
X98679047Y-77989523D01*
X98583809Y-78084761D01*
X98440952Y-78132380D01*
X98345714Y-78132380D01*
X99107619Y-77132380D02*
X99726666Y-77132380D01*
X99393333Y-77513333D01*
X99536190Y-77513333D01*
X99631428Y-77560952D01*
X99679047Y-77608571D01*
X99726666Y-77703809D01*
X99726666Y-77941904D01*
X99679047Y-78037142D01*
X99631428Y-78084761D01*
X99536190Y-78132380D01*
X99250476Y-78132380D01*
X99155238Y-78084761D01*
X99107619Y-78037142D01*
X96186666Y-77132380D02*
X96186666Y-77846666D01*
X96139047Y-77989523D01*
X96043809Y-78084761D01*
X95900952Y-78132380D01*
X95805714Y-78132380D01*
X96567619Y-77132380D02*
X97186666Y-77132380D01*
X96853333Y-77513333D01*
X96996190Y-77513333D01*
X97091428Y-77560952D01*
X97139047Y-77608571D01*
X97186666Y-77703809D01*
X97186666Y-77941904D01*
X97139047Y-78037142D01*
X97091428Y-78084761D01*
X96996190Y-78132380D01*
X96710476Y-78132380D01*
X96615238Y-78084761D01*
X96567619Y-78037142D01*
X93646666Y-77132380D02*
X93646666Y-77846666D01*
X93599047Y-77989523D01*
X93503809Y-78084761D01*
X93360952Y-78132380D01*
X93265714Y-78132380D01*
X94027619Y-77132380D02*
X94646666Y-77132380D01*
X94313333Y-77513333D01*
X94456190Y-77513333D01*
X94551428Y-77560952D01*
X94599047Y-77608571D01*
X94646666Y-77703809D01*
X94646666Y-77941904D01*
X94599047Y-78037142D01*
X94551428Y-78084761D01*
X94456190Y-78132380D01*
X94170476Y-78132380D01*
X94075238Y-78084761D01*
X94027619Y-78037142D01*
X98726666Y-74592380D02*
X98726666Y-75306666D01*
X98679047Y-75449523D01*
X98583809Y-75544761D01*
X98440952Y-75592380D01*
X98345714Y-75592380D01*
X99107619Y-74592380D02*
X99726666Y-74592380D01*
X99393333Y-74973333D01*
X99536190Y-74973333D01*
X99631428Y-75020952D01*
X99679047Y-75068571D01*
X99726666Y-75163809D01*
X99726666Y-75401904D01*
X99679047Y-75497142D01*
X99631428Y-75544761D01*
X99536190Y-75592380D01*
X99250476Y-75592380D01*
X99155238Y-75544761D01*
X99107619Y-75497142D01*
X96186666Y-74592380D02*
X96186666Y-75306666D01*
X96139047Y-75449523D01*
X96043809Y-75544761D01*
X95900952Y-75592380D01*
X95805714Y-75592380D01*
X96567619Y-74592380D02*
X97186666Y-74592380D01*
X96853333Y-74973333D01*
X96996190Y-74973333D01*
X97091428Y-75020952D01*
X97139047Y-75068571D01*
X97186666Y-75163809D01*
X97186666Y-75401904D01*
X97139047Y-75497142D01*
X97091428Y-75544761D01*
X96996190Y-75592380D01*
X96710476Y-75592380D01*
X96615238Y-75544761D01*
X96567619Y-75497142D01*
X93646666Y-74592380D02*
X93646666Y-75306666D01*
X93599047Y-75449523D01*
X93503809Y-75544761D01*
X93360952Y-75592380D01*
X93265714Y-75592380D01*
X94027619Y-74592380D02*
X94646666Y-74592380D01*
X94313333Y-74973333D01*
X94456190Y-74973333D01*
X94551428Y-75020952D01*
X94599047Y-75068571D01*
X94646666Y-75163809D01*
X94646666Y-75401904D01*
X94599047Y-75497142D01*
X94551428Y-75544761D01*
X94456190Y-75592380D01*
X94170476Y-75592380D01*
X94075238Y-75544761D01*
X94027619Y-75497142D01*
X98726666Y-72052380D02*
X98726666Y-72766666D01*
X98679047Y-72909523D01*
X98583809Y-73004761D01*
X98440952Y-73052380D01*
X98345714Y-73052380D01*
X99107619Y-72052380D02*
X99726666Y-72052380D01*
X99393333Y-72433333D01*
X99536190Y-72433333D01*
X99631428Y-72480952D01*
X99679047Y-72528571D01*
X99726666Y-72623809D01*
X99726666Y-72861904D01*
X99679047Y-72957142D01*
X99631428Y-73004761D01*
X99536190Y-73052380D01*
X99250476Y-73052380D01*
X99155238Y-73004761D01*
X99107619Y-72957142D01*
X96186666Y-72052380D02*
X96186666Y-72766666D01*
X96139047Y-72909523D01*
X96043809Y-73004761D01*
X95900952Y-73052380D01*
X95805714Y-73052380D01*
X96567619Y-72052380D02*
X97186666Y-72052380D01*
X96853333Y-72433333D01*
X96996190Y-72433333D01*
X97091428Y-72480952D01*
X97139047Y-72528571D01*
X97186666Y-72623809D01*
X97186666Y-72861904D01*
X97139047Y-72957142D01*
X97091428Y-73004761D01*
X96996190Y-73052380D01*
X96710476Y-73052380D01*
X96615238Y-73004761D01*
X96567619Y-72957142D01*
X93646666Y-72052380D02*
X93646666Y-72766666D01*
X93599047Y-72909523D01*
X93503809Y-73004761D01*
X93360952Y-73052380D01*
X93265714Y-73052380D01*
X94027619Y-72052380D02*
X94646666Y-72052380D01*
X94313333Y-72433333D01*
X94456190Y-72433333D01*
X94551428Y-72480952D01*
X94599047Y-72528571D01*
X94646666Y-72623809D01*
X94646666Y-72861904D01*
X94599047Y-72957142D01*
X94551428Y-73004761D01*
X94456190Y-73052380D01*
X94170476Y-73052380D01*
X94075238Y-73004761D01*
X94027619Y-72957142D01*
X98726666Y-69512380D02*
X98726666Y-70226666D01*
X98679047Y-70369523D01*
X98583809Y-70464761D01*
X98440952Y-70512380D01*
X98345714Y-70512380D01*
X99107619Y-69512380D02*
X99726666Y-69512380D01*
X99393333Y-69893333D01*
X99536190Y-69893333D01*
X99631428Y-69940952D01*
X99679047Y-69988571D01*
X99726666Y-70083809D01*
X99726666Y-70321904D01*
X99679047Y-70417142D01*
X99631428Y-70464761D01*
X99536190Y-70512380D01*
X99250476Y-70512380D01*
X99155238Y-70464761D01*
X99107619Y-70417142D01*
X96186666Y-69512380D02*
X96186666Y-70226666D01*
X96139047Y-70369523D01*
X96043809Y-70464761D01*
X95900952Y-70512380D01*
X95805714Y-70512380D01*
X96567619Y-69512380D02*
X97186666Y-69512380D01*
X96853333Y-69893333D01*
X96996190Y-69893333D01*
X97091428Y-69940952D01*
X97139047Y-69988571D01*
X97186666Y-70083809D01*
X97186666Y-70321904D01*
X97139047Y-70417142D01*
X97091428Y-70464761D01*
X96996190Y-70512380D01*
X96710476Y-70512380D01*
X96615238Y-70464761D01*
X96567619Y-70417142D01*
X93646666Y-69512380D02*
X93646666Y-70226666D01*
X93599047Y-70369523D01*
X93503809Y-70464761D01*
X93360952Y-70512380D01*
X93265714Y-70512380D01*
X94027619Y-69512380D02*
X94646666Y-69512380D01*
X94313333Y-69893333D01*
X94456190Y-69893333D01*
X94551428Y-69940952D01*
X94599047Y-69988571D01*
X94646666Y-70083809D01*
X94646666Y-70321904D01*
X94599047Y-70417142D01*
X94551428Y-70464761D01*
X94456190Y-70512380D01*
X94170476Y-70512380D01*
X94075238Y-70464761D01*
X94027619Y-70417142D01*
X94916666Y-53002380D02*
X94916666Y-53716666D01*
X94869047Y-53859523D01*
X94773809Y-53954761D01*
X94630952Y-54002380D01*
X94535714Y-54002380D01*
X95297619Y-53002380D02*
X95916666Y-53002380D01*
X95583333Y-53383333D01*
X95726190Y-53383333D01*
X95821428Y-53430952D01*
X95869047Y-53478571D01*
X95916666Y-53573809D01*
X95916666Y-53811904D01*
X95869047Y-53907142D01*
X95821428Y-53954761D01*
X95726190Y-54002380D01*
X95440476Y-54002380D01*
X95345238Y-53954761D01*
X95297619Y-53907142D01*
X96186666Y-66972380D02*
X96186666Y-67686666D01*
X96139047Y-67829523D01*
X96043809Y-67924761D01*
X95900952Y-67972380D01*
X95805714Y-67972380D01*
X96567619Y-66972380D02*
X97186666Y-66972380D01*
X96853333Y-67353333D01*
X96996190Y-67353333D01*
X97091428Y-67400952D01*
X97139047Y-67448571D01*
X97186666Y-67543809D01*
X97186666Y-67781904D01*
X97139047Y-67877142D01*
X97091428Y-67924761D01*
X96996190Y-67972380D01*
X96710476Y-67972380D01*
X96615238Y-67924761D01*
X96567619Y-67877142D01*
X93646666Y-66972380D02*
X93646666Y-67686666D01*
X93599047Y-67829523D01*
X93503809Y-67924761D01*
X93360952Y-67972380D01*
X93265714Y-67972380D01*
X94027619Y-66972380D02*
X94646666Y-66972380D01*
X94313333Y-67353333D01*
X94456190Y-67353333D01*
X94551428Y-67400952D01*
X94599047Y-67448571D01*
X94646666Y-67543809D01*
X94646666Y-67781904D01*
X94599047Y-67877142D01*
X94551428Y-67924761D01*
X94456190Y-67972380D01*
X94170476Y-67972380D01*
X94075238Y-67924761D01*
X94027619Y-67877142D01*
%TD*%
M02*
