%TF.GenerationSoftware,KiCad,Pcbnew,(6.0.7)*%
%TF.CreationDate,2022-10-24T07:09:43-06:00*%
%TF.ProjectId,AltoidsPCB,416c746f-6964-4735-9043-422e6b696361,rev?*%
%TF.SameCoordinates,Original*%
%TF.FileFunction,Soldermask,Bot*%
%TF.FilePolarity,Negative*%
%FSLAX46Y46*%
G04 Gerber Fmt 4.6, Leading zero omitted, Abs format (unit mm)*
G04 Created by KiCad (PCBNEW (6.0.7)) date 2022-10-24 07:09:43*
%MOMM*%
%LPD*%
G01*
G04 APERTURE LIST*
G04 Aperture macros list*
%AMRoundRect*
0 Rectangle with rounded corners*
0 $1 Rounding radius*
0 $2 $3 $4 $5 $6 $7 $8 $9 X,Y pos of 4 corners*
0 Add a 4 corners polygon primitive as box body*
4,1,4,$2,$3,$4,$5,$6,$7,$8,$9,$2,$3,0*
0 Add four circle primitives for the rounded corners*
1,1,$1+$1,$2,$3*
1,1,$1+$1,$4,$5*
1,1,$1+$1,$6,$7*
1,1,$1+$1,$8,$9*
0 Add four rect primitives between the rounded corners*
20,1,$1+$1,$2,$3,$4,$5,0*
20,1,$1+$1,$4,$5,$6,$7,0*
20,1,$1+$1,$6,$7,$8,$9,0*
20,1,$1+$1,$8,$9,$2,$3,0*%
G04 Aperture macros list end*
%ADD10C,0.150000*%
%ADD11RoundRect,0.200000X0.850000X-0.850000X0.850000X0.850000X-0.850000X0.850000X-0.850000X-0.850000X0*%
%ADD12O,2.100000X2.100000*%
%ADD13RoundRect,0.200000X-0.850000X0.850000X-0.850000X-0.850000X0.850000X-0.850000X0.850000X0.850000X0*%
%ADD14RoundRect,0.200000X0.850000X0.850000X-0.850000X0.850000X-0.850000X-0.850000X0.850000X-0.850000X0*%
%ADD15RoundRect,0.200000X-0.850000X-0.850000X0.850000X-0.850000X0.850000X0.850000X-0.850000X0.850000X0*%
%ADD16C,2.100000*%
G04 APERTURE END LIST*
D10*
G36*
X169291000Y-105791000D02*
G01*
X107696000Y-105791000D01*
X107696000Y-105029000D01*
X169291000Y-105029000D01*
X169291000Y-105791000D01*
G37*
X169291000Y-105791000D02*
X107696000Y-105791000D01*
X107696000Y-105029000D01*
X169291000Y-105029000D01*
X169291000Y-105791000D01*
G36*
X169164000Y-103251000D02*
G01*
X107569000Y-103251000D01*
X107569000Y-102489000D01*
X169164000Y-102489000D01*
X169164000Y-103251000D01*
G37*
X169164000Y-103251000D02*
X107569000Y-103251000D01*
X107569000Y-102489000D01*
X169164000Y-102489000D01*
X169164000Y-103251000D01*
G36*
X107061000Y-96901000D02*
G01*
X106299000Y-96901000D01*
X106299000Y-88519000D01*
X107061000Y-88519000D01*
X107061000Y-96901000D01*
G37*
X107061000Y-96901000D02*
X106299000Y-96901000D01*
X106299000Y-88519000D01*
X107061000Y-88519000D01*
X107061000Y-96901000D01*
G36*
X104521000Y-96901000D02*
G01*
X103759000Y-96901000D01*
X103759000Y-88519000D01*
X104521000Y-88519000D01*
X104521000Y-96901000D01*
G37*
X104521000Y-96901000D02*
X103759000Y-96901000D01*
X103759000Y-88519000D01*
X104521000Y-88519000D01*
X104521000Y-96901000D01*
G36*
X101981000Y-96901000D02*
G01*
X101219000Y-96901000D01*
X101219000Y-88519000D01*
X101981000Y-88519000D01*
X101981000Y-96901000D01*
G37*
X101981000Y-96901000D02*
X101219000Y-96901000D01*
X101219000Y-88519000D01*
X101981000Y-88519000D01*
X101981000Y-96901000D01*
G36*
X114681000Y-96901000D02*
G01*
X113919000Y-96901000D01*
X113919000Y-88519000D01*
X114681000Y-88519000D01*
X114681000Y-96901000D01*
G37*
X114681000Y-96901000D02*
X113919000Y-96901000D01*
X113919000Y-88519000D01*
X114681000Y-88519000D01*
X114681000Y-96901000D01*
G36*
X112141000Y-96901000D02*
G01*
X111379000Y-96901000D01*
X111379000Y-88519000D01*
X112141000Y-88519000D01*
X112141000Y-96901000D01*
G37*
X112141000Y-96901000D02*
X111379000Y-96901000D01*
X111379000Y-88519000D01*
X112141000Y-88519000D01*
X112141000Y-96901000D01*
G36*
X109601000Y-96901000D02*
G01*
X108839000Y-96901000D01*
X108839000Y-88519000D01*
X109601000Y-88519000D01*
X109601000Y-96901000D01*
G37*
X109601000Y-96901000D02*
X108839000Y-96901000D01*
X108839000Y-88519000D01*
X109601000Y-88519000D01*
X109601000Y-96901000D01*
G36*
X150241000Y-96901000D02*
G01*
X149479000Y-96901000D01*
X149479000Y-88519000D01*
X150241000Y-88519000D01*
X150241000Y-96901000D01*
G37*
X150241000Y-96901000D02*
X149479000Y-96901000D01*
X149479000Y-88519000D01*
X150241000Y-88519000D01*
X150241000Y-96901000D01*
G36*
X162941000Y-96901000D02*
G01*
X162179000Y-96901000D01*
X162179000Y-88519000D01*
X162941000Y-88519000D01*
X162941000Y-96901000D01*
G37*
X162941000Y-96901000D02*
X162179000Y-96901000D01*
X162179000Y-88519000D01*
X162941000Y-88519000D01*
X162941000Y-96901000D01*
G36*
X170561000Y-96901000D02*
G01*
X169799000Y-96901000D01*
X169799000Y-88519000D01*
X170561000Y-88519000D01*
X170561000Y-96901000D01*
G37*
X170561000Y-96901000D02*
X169799000Y-96901000D01*
X169799000Y-88519000D01*
X170561000Y-88519000D01*
X170561000Y-96901000D01*
G36*
X160401000Y-96901000D02*
G01*
X159639000Y-96901000D01*
X159639000Y-88519000D01*
X160401000Y-88519000D01*
X160401000Y-96901000D01*
G37*
X160401000Y-96901000D02*
X159639000Y-96901000D01*
X159639000Y-88519000D01*
X160401000Y-88519000D01*
X160401000Y-96901000D01*
G36*
X165481000Y-96901000D02*
G01*
X164719000Y-96901000D01*
X164719000Y-88519000D01*
X165481000Y-88519000D01*
X165481000Y-96901000D01*
G37*
X165481000Y-96901000D02*
X164719000Y-96901000D01*
X164719000Y-88519000D01*
X165481000Y-88519000D01*
X165481000Y-96901000D01*
G36*
X168021000Y-96901000D02*
G01*
X167259000Y-96901000D01*
X167259000Y-88519000D01*
X168021000Y-88519000D01*
X168021000Y-96901000D01*
G37*
X168021000Y-96901000D02*
X167259000Y-96901000D01*
X167259000Y-88519000D01*
X168021000Y-88519000D01*
X168021000Y-96901000D01*
G36*
X157861000Y-96901000D02*
G01*
X157099000Y-96901000D01*
X157099000Y-88519000D01*
X157861000Y-88519000D01*
X157861000Y-96901000D01*
G37*
X157861000Y-96901000D02*
X157099000Y-96901000D01*
X157099000Y-88519000D01*
X157861000Y-88519000D01*
X157861000Y-96901000D01*
G36*
X155321000Y-96901000D02*
G01*
X154559000Y-96901000D01*
X154559000Y-88519000D01*
X155321000Y-88519000D01*
X155321000Y-96901000D01*
G37*
X155321000Y-96901000D02*
X154559000Y-96901000D01*
X154559000Y-88519000D01*
X155321000Y-88519000D01*
X155321000Y-96901000D01*
G36*
X152781000Y-96901000D02*
G01*
X152019000Y-96901000D01*
X152019000Y-88519000D01*
X152781000Y-88519000D01*
X152781000Y-96901000D01*
G37*
X152781000Y-96901000D02*
X152019000Y-96901000D01*
X152019000Y-88519000D01*
X152781000Y-88519000D01*
X152781000Y-96901000D01*
G36*
X147701000Y-96901000D02*
G01*
X146939000Y-96901000D01*
X146939000Y-88519000D01*
X147701000Y-88519000D01*
X147701000Y-96901000D01*
G37*
X147701000Y-96901000D02*
X146939000Y-96901000D01*
X146939000Y-88519000D01*
X147701000Y-88519000D01*
X147701000Y-96901000D01*
G36*
X145161000Y-96901000D02*
G01*
X144399000Y-96901000D01*
X144399000Y-88519000D01*
X145161000Y-88519000D01*
X145161000Y-96901000D01*
G37*
X145161000Y-96901000D02*
X144399000Y-96901000D01*
X144399000Y-88519000D01*
X145161000Y-88519000D01*
X145161000Y-96901000D01*
G36*
X175641000Y-96901000D02*
G01*
X174879000Y-96901000D01*
X174879000Y-88519000D01*
X175641000Y-88519000D01*
X175641000Y-96901000D01*
G37*
X175641000Y-96901000D02*
X174879000Y-96901000D01*
X174879000Y-88519000D01*
X175641000Y-88519000D01*
X175641000Y-96901000D01*
G36*
X173101000Y-96901000D02*
G01*
X172339000Y-96901000D01*
X172339000Y-88519000D01*
X173101000Y-88519000D01*
X173101000Y-96901000D01*
G37*
X173101000Y-96901000D02*
X172339000Y-96901000D01*
X172339000Y-88519000D01*
X173101000Y-88519000D01*
X173101000Y-96901000D01*
G36*
X132461000Y-96901000D02*
G01*
X131699000Y-96901000D01*
X131699000Y-88519000D01*
X132461000Y-88519000D01*
X132461000Y-96901000D01*
G37*
X132461000Y-96901000D02*
X131699000Y-96901000D01*
X131699000Y-88519000D01*
X132461000Y-88519000D01*
X132461000Y-96901000D01*
G36*
X129921000Y-96901000D02*
G01*
X129159000Y-96901000D01*
X129159000Y-88519000D01*
X129921000Y-88519000D01*
X129921000Y-96901000D01*
G37*
X129921000Y-96901000D02*
X129159000Y-96901000D01*
X129159000Y-88519000D01*
X129921000Y-88519000D01*
X129921000Y-96901000D01*
G36*
X142621000Y-96901000D02*
G01*
X141859000Y-96901000D01*
X141859000Y-88519000D01*
X142621000Y-88519000D01*
X142621000Y-96901000D01*
G37*
X142621000Y-96901000D02*
X141859000Y-96901000D01*
X141859000Y-88519000D01*
X142621000Y-88519000D01*
X142621000Y-96901000D01*
G36*
X127381000Y-96901000D02*
G01*
X126619000Y-96901000D01*
X126619000Y-88519000D01*
X127381000Y-88519000D01*
X127381000Y-96901000D01*
G37*
X127381000Y-96901000D02*
X126619000Y-96901000D01*
X126619000Y-88519000D01*
X127381000Y-88519000D01*
X127381000Y-96901000D01*
G36*
X140081000Y-96901000D02*
G01*
X139319000Y-96901000D01*
X139319000Y-88519000D01*
X140081000Y-88519000D01*
X140081000Y-96901000D01*
G37*
X140081000Y-96901000D02*
X139319000Y-96901000D01*
X139319000Y-88519000D01*
X140081000Y-88519000D01*
X140081000Y-96901000D01*
G36*
X137541000Y-96901000D02*
G01*
X136779000Y-96901000D01*
X136779000Y-88519000D01*
X137541000Y-88519000D01*
X137541000Y-96901000D01*
G37*
X137541000Y-96901000D02*
X136779000Y-96901000D01*
X136779000Y-88519000D01*
X137541000Y-88519000D01*
X137541000Y-96901000D01*
G36*
X135001000Y-96901000D02*
G01*
X134239000Y-96901000D01*
X134239000Y-88519000D01*
X135001000Y-88519000D01*
X135001000Y-96901000D01*
G37*
X135001000Y-96901000D02*
X134239000Y-96901000D01*
X134239000Y-88519000D01*
X135001000Y-88519000D01*
X135001000Y-96901000D01*
G36*
X124841000Y-96901000D02*
G01*
X124079000Y-96901000D01*
X124079000Y-88519000D01*
X124841000Y-88519000D01*
X124841000Y-96901000D01*
G37*
X124841000Y-96901000D02*
X124079000Y-96901000D01*
X124079000Y-88519000D01*
X124841000Y-88519000D01*
X124841000Y-96901000D01*
G36*
X119761000Y-96901000D02*
G01*
X118999000Y-96901000D01*
X118999000Y-88519000D01*
X119761000Y-88519000D01*
X119761000Y-96901000D01*
G37*
X119761000Y-96901000D02*
X118999000Y-96901000D01*
X118999000Y-88519000D01*
X119761000Y-88519000D01*
X119761000Y-96901000D01*
G36*
X122301000Y-96901000D02*
G01*
X121539000Y-96901000D01*
X121539000Y-88519000D01*
X122301000Y-88519000D01*
X122301000Y-96901000D01*
G37*
X122301000Y-96901000D02*
X121539000Y-96901000D01*
X121539000Y-88519000D01*
X122301000Y-88519000D01*
X122301000Y-96901000D01*
G36*
X117221000Y-96901000D02*
G01*
X116459000Y-96901000D01*
X116459000Y-88519000D01*
X117221000Y-88519000D01*
X117221000Y-96901000D01*
G37*
X117221000Y-96901000D02*
X116459000Y-96901000D01*
X116459000Y-88519000D01*
X117221000Y-88519000D01*
X117221000Y-96901000D01*
G36*
X175641000Y-79121000D02*
G01*
X174879000Y-79121000D01*
X174879000Y-70739000D01*
X175641000Y-70739000D01*
X175641000Y-79121000D01*
G37*
X175641000Y-79121000D02*
X174879000Y-79121000D01*
X174879000Y-70739000D01*
X175641000Y-70739000D01*
X175641000Y-79121000D01*
G36*
X173101000Y-79121000D02*
G01*
X172339000Y-79121000D01*
X172339000Y-70739000D01*
X173101000Y-70739000D01*
X173101000Y-79121000D01*
G37*
X173101000Y-79121000D02*
X172339000Y-79121000D01*
X172339000Y-70739000D01*
X173101000Y-70739000D01*
X173101000Y-79121000D01*
G36*
X170561000Y-79248000D02*
G01*
X169799000Y-79248000D01*
X169799000Y-70866000D01*
X170561000Y-70866000D01*
X170561000Y-79248000D01*
G37*
X170561000Y-79248000D02*
X169799000Y-79248000D01*
X169799000Y-70866000D01*
X170561000Y-70866000D01*
X170561000Y-79248000D01*
G36*
X168021000Y-79248000D02*
G01*
X167259000Y-79248000D01*
X167259000Y-70866000D01*
X168021000Y-70866000D01*
X168021000Y-79248000D01*
G37*
X168021000Y-79248000D02*
X167259000Y-79248000D01*
X167259000Y-70866000D01*
X168021000Y-70866000D01*
X168021000Y-79248000D01*
G36*
X165481000Y-79248000D02*
G01*
X164719000Y-79248000D01*
X164719000Y-70866000D01*
X165481000Y-70866000D01*
X165481000Y-79248000D01*
G37*
X165481000Y-79248000D02*
X164719000Y-79248000D01*
X164719000Y-70866000D01*
X165481000Y-70866000D01*
X165481000Y-79248000D01*
G36*
X162941000Y-79121000D02*
G01*
X162179000Y-79121000D01*
X162179000Y-70739000D01*
X162941000Y-70739000D01*
X162941000Y-79121000D01*
G37*
X162941000Y-79121000D02*
X162179000Y-79121000D01*
X162179000Y-70739000D01*
X162941000Y-70739000D01*
X162941000Y-79121000D01*
G36*
X160401000Y-79121000D02*
G01*
X159639000Y-79121000D01*
X159639000Y-70739000D01*
X160401000Y-70739000D01*
X160401000Y-79121000D01*
G37*
X160401000Y-79121000D02*
X159639000Y-79121000D01*
X159639000Y-70739000D01*
X160401000Y-70739000D01*
X160401000Y-79121000D01*
G36*
X157861000Y-79121000D02*
G01*
X157099000Y-79121000D01*
X157099000Y-70739000D01*
X157861000Y-70739000D01*
X157861000Y-79121000D01*
G37*
X157861000Y-79121000D02*
X157099000Y-79121000D01*
X157099000Y-70739000D01*
X157861000Y-70739000D01*
X157861000Y-79121000D01*
G36*
X155321000Y-79121000D02*
G01*
X154559000Y-79121000D01*
X154559000Y-70739000D01*
X155321000Y-70739000D01*
X155321000Y-79121000D01*
G37*
X155321000Y-79121000D02*
X154559000Y-79121000D01*
X154559000Y-70739000D01*
X155321000Y-70739000D01*
X155321000Y-79121000D01*
G36*
X152781000Y-79121000D02*
G01*
X152019000Y-79121000D01*
X152019000Y-70739000D01*
X152781000Y-70739000D01*
X152781000Y-79121000D01*
G37*
X152781000Y-79121000D02*
X152019000Y-79121000D01*
X152019000Y-70739000D01*
X152781000Y-70739000D01*
X152781000Y-79121000D01*
G36*
X150241000Y-79121000D02*
G01*
X149479000Y-79121000D01*
X149479000Y-70739000D01*
X150241000Y-70739000D01*
X150241000Y-79121000D01*
G37*
X150241000Y-79121000D02*
X149479000Y-79121000D01*
X149479000Y-70739000D01*
X150241000Y-70739000D01*
X150241000Y-79121000D01*
G36*
X147701000Y-79121000D02*
G01*
X146939000Y-79121000D01*
X146939000Y-70739000D01*
X147701000Y-70739000D01*
X147701000Y-79121000D01*
G37*
X147701000Y-79121000D02*
X146939000Y-79121000D01*
X146939000Y-70739000D01*
X147701000Y-70739000D01*
X147701000Y-79121000D01*
G36*
X145161000Y-79121000D02*
G01*
X144399000Y-79121000D01*
X144399000Y-70739000D01*
X145161000Y-70739000D01*
X145161000Y-79121000D01*
G37*
X145161000Y-79121000D02*
X144399000Y-79121000D01*
X144399000Y-70739000D01*
X145161000Y-70739000D01*
X145161000Y-79121000D01*
G36*
X142621000Y-79121000D02*
G01*
X141859000Y-79121000D01*
X141859000Y-70739000D01*
X142621000Y-70739000D01*
X142621000Y-79121000D01*
G37*
X142621000Y-79121000D02*
X141859000Y-79121000D01*
X141859000Y-70739000D01*
X142621000Y-70739000D01*
X142621000Y-79121000D01*
G36*
X140081000Y-79121000D02*
G01*
X139319000Y-79121000D01*
X139319000Y-70739000D01*
X140081000Y-70739000D01*
X140081000Y-79121000D01*
G37*
X140081000Y-79121000D02*
X139319000Y-79121000D01*
X139319000Y-70739000D01*
X140081000Y-70739000D01*
X140081000Y-79121000D01*
G36*
X137541000Y-79121000D02*
G01*
X136779000Y-79121000D01*
X136779000Y-70739000D01*
X137541000Y-70739000D01*
X137541000Y-79121000D01*
G37*
X137541000Y-79121000D02*
X136779000Y-79121000D01*
X136779000Y-70739000D01*
X137541000Y-70739000D01*
X137541000Y-79121000D01*
G36*
X135001000Y-79121000D02*
G01*
X134239000Y-79121000D01*
X134239000Y-70739000D01*
X135001000Y-70739000D01*
X135001000Y-79121000D01*
G37*
X135001000Y-79121000D02*
X134239000Y-79121000D01*
X134239000Y-70739000D01*
X135001000Y-70739000D01*
X135001000Y-79121000D01*
G36*
X132461000Y-79248000D02*
G01*
X131699000Y-79248000D01*
X131699000Y-70866000D01*
X132461000Y-70866000D01*
X132461000Y-79248000D01*
G37*
X132461000Y-79248000D02*
X131699000Y-79248000D01*
X131699000Y-70866000D01*
X132461000Y-70866000D01*
X132461000Y-79248000D01*
G36*
X129921000Y-79248000D02*
G01*
X129159000Y-79248000D01*
X129159000Y-70866000D01*
X129921000Y-70866000D01*
X129921000Y-79248000D01*
G37*
X129921000Y-79248000D02*
X129159000Y-79248000D01*
X129159000Y-70866000D01*
X129921000Y-70866000D01*
X129921000Y-79248000D01*
G36*
X127381000Y-79121000D02*
G01*
X126619000Y-79121000D01*
X126619000Y-70739000D01*
X127381000Y-70739000D01*
X127381000Y-79121000D01*
G37*
X127381000Y-79121000D02*
X126619000Y-79121000D01*
X126619000Y-70739000D01*
X127381000Y-70739000D01*
X127381000Y-79121000D01*
G36*
X124841000Y-79121000D02*
G01*
X124079000Y-79121000D01*
X124079000Y-70739000D01*
X124841000Y-70739000D01*
X124841000Y-79121000D01*
G37*
X124841000Y-79121000D02*
X124079000Y-79121000D01*
X124079000Y-70739000D01*
X124841000Y-70739000D01*
X124841000Y-79121000D01*
G36*
X122301000Y-79121000D02*
G01*
X121539000Y-79121000D01*
X121539000Y-70739000D01*
X122301000Y-70739000D01*
X122301000Y-79121000D01*
G37*
X122301000Y-79121000D02*
X121539000Y-79121000D01*
X121539000Y-70739000D01*
X122301000Y-70739000D01*
X122301000Y-79121000D01*
G36*
X119761000Y-79248000D02*
G01*
X118999000Y-79248000D01*
X118999000Y-70866000D01*
X119761000Y-70866000D01*
X119761000Y-79248000D01*
G37*
X119761000Y-79248000D02*
X118999000Y-79248000D01*
X118999000Y-70866000D01*
X119761000Y-70866000D01*
X119761000Y-79248000D01*
G36*
X117221000Y-79248000D02*
G01*
X116459000Y-79248000D01*
X116459000Y-70866000D01*
X117221000Y-70866000D01*
X117221000Y-79248000D01*
G37*
X117221000Y-79248000D02*
X116459000Y-79248000D01*
X116459000Y-70866000D01*
X117221000Y-70866000D01*
X117221000Y-79248000D01*
G36*
X114681000Y-79248000D02*
G01*
X113919000Y-79248000D01*
X113919000Y-70866000D01*
X114681000Y-70866000D01*
X114681000Y-79248000D01*
G37*
X114681000Y-79248000D02*
X113919000Y-79248000D01*
X113919000Y-70866000D01*
X114681000Y-70866000D01*
X114681000Y-79248000D01*
G36*
X112141000Y-79121000D02*
G01*
X111379000Y-79121000D01*
X111379000Y-70739000D01*
X112141000Y-70739000D01*
X112141000Y-79121000D01*
G37*
X112141000Y-79121000D02*
X111379000Y-79121000D01*
X111379000Y-70739000D01*
X112141000Y-70739000D01*
X112141000Y-79121000D01*
G36*
X109601000Y-79121000D02*
G01*
X108839000Y-79121000D01*
X108839000Y-70739000D01*
X109601000Y-70739000D01*
X109601000Y-79121000D01*
G37*
X109601000Y-79121000D02*
X108839000Y-79121000D01*
X108839000Y-70739000D01*
X109601000Y-70739000D01*
X109601000Y-79121000D01*
G36*
X107061000Y-79248000D02*
G01*
X106299000Y-79248000D01*
X106299000Y-70866000D01*
X107061000Y-70866000D01*
X107061000Y-79248000D01*
G37*
X107061000Y-79248000D02*
X106299000Y-79248000D01*
X106299000Y-70866000D01*
X107061000Y-70866000D01*
X107061000Y-79248000D01*
G36*
X104521000Y-79121000D02*
G01*
X103759000Y-79121000D01*
X103759000Y-70739000D01*
X104521000Y-70739000D01*
X104521000Y-79121000D01*
G37*
X104521000Y-79121000D02*
X103759000Y-79121000D01*
X103759000Y-70739000D01*
X104521000Y-70739000D01*
X104521000Y-79121000D01*
G36*
X101981000Y-79248000D02*
G01*
X101219000Y-79375000D01*
X101219000Y-70739000D01*
X101981000Y-70739000D01*
X101981000Y-79248000D01*
G37*
X101981000Y-79248000D02*
X101219000Y-79375000D01*
X101219000Y-70739000D01*
X101981000Y-70739000D01*
X101981000Y-79248000D01*
G36*
X169164000Y-62611000D02*
G01*
X107569000Y-62611000D01*
X107569000Y-61849000D01*
X169164000Y-61849000D01*
X169164000Y-62611000D01*
G37*
X169164000Y-62611000D02*
X107569000Y-62611000D01*
X107569000Y-61849000D01*
X169164000Y-61849000D01*
X169164000Y-62611000D01*
G36*
X169418000Y-65151000D02*
G01*
X107696000Y-65151000D01*
X107696000Y-64389000D01*
X169418000Y-64389000D01*
X169418000Y-65151000D01*
G37*
X169418000Y-65151000D02*
X107696000Y-65151000D01*
X107696000Y-64389000D01*
X169418000Y-64389000D01*
X169418000Y-65151000D01*
D11*
%TO.C,J2*%
X106680000Y-105410000D03*
D12*
X109220000Y-105410000D03*
X111760000Y-105410000D03*
X114300000Y-105410000D03*
X116840000Y-105410000D03*
X119380000Y-105410000D03*
X121920000Y-105410000D03*
X124460000Y-105410000D03*
X127000000Y-105410000D03*
X129540000Y-105410000D03*
X132080000Y-105410000D03*
X134620000Y-105410000D03*
X137160000Y-105410000D03*
X139700000Y-105410000D03*
X142240000Y-105410000D03*
X144780000Y-105410000D03*
X147320000Y-105410000D03*
X149860000Y-105410000D03*
X152400000Y-105410000D03*
X154940000Y-105410000D03*
X157480000Y-105410000D03*
X160020000Y-105410000D03*
X162560000Y-105410000D03*
X165100000Y-105410000D03*
X167640000Y-105410000D03*
X170180000Y-105410000D03*
%TD*%
D13*
%TO.C,J2*%
X170180000Y-102870000D03*
D12*
X167640000Y-102870000D03*
X165100000Y-102870000D03*
X162560000Y-102870000D03*
X160020000Y-102870000D03*
X157480000Y-102870000D03*
X154940000Y-102870000D03*
X152400000Y-102870000D03*
X149860000Y-102870000D03*
X147320000Y-102870000D03*
X144780000Y-102870000D03*
X142240000Y-102870000D03*
X139700000Y-102870000D03*
X137160000Y-102870000D03*
X134620000Y-102870000D03*
X132080000Y-102870000D03*
X129540000Y-102870000D03*
X127000000Y-102870000D03*
X124460000Y-102870000D03*
X121920000Y-102870000D03*
X119380000Y-102870000D03*
X116840000Y-102870000D03*
X114300000Y-102870000D03*
X111760000Y-102870000D03*
X109220000Y-102870000D03*
X106680000Y-102870000D03*
%TD*%
D13*
%TO.C,J2*%
X170180000Y-62230000D03*
D12*
X167640000Y-62230000D03*
X165100000Y-62230000D03*
X162560000Y-62230000D03*
X160020000Y-62230000D03*
X157480000Y-62230000D03*
X154940000Y-62230000D03*
X152400000Y-62230000D03*
X149860000Y-62230000D03*
X147320000Y-62230000D03*
X144780000Y-62230000D03*
X142240000Y-62230000D03*
X139700000Y-62230000D03*
X137160000Y-62230000D03*
X134620000Y-62230000D03*
X132080000Y-62230000D03*
X129540000Y-62230000D03*
X127000000Y-62230000D03*
X124460000Y-62230000D03*
X121920000Y-62230000D03*
X119380000Y-62230000D03*
X116840000Y-62230000D03*
X114300000Y-62230000D03*
X111760000Y-62230000D03*
X109220000Y-62230000D03*
X106680000Y-62230000D03*
%TD*%
D11*
%TO.C,J2*%
X106680000Y-64770000D03*
D12*
X109220000Y-64770000D03*
X111760000Y-64770000D03*
X114300000Y-64770000D03*
X116840000Y-64770000D03*
X119380000Y-64770000D03*
X121920000Y-64770000D03*
X124460000Y-64770000D03*
X127000000Y-64770000D03*
X129540000Y-64770000D03*
X132080000Y-64770000D03*
X134620000Y-64770000D03*
X137160000Y-64770000D03*
X139700000Y-64770000D03*
X142240000Y-64770000D03*
X144780000Y-64770000D03*
X147320000Y-64770000D03*
X149860000Y-64770000D03*
X152400000Y-64770000D03*
X154940000Y-64770000D03*
X157480000Y-64770000D03*
X160020000Y-64770000D03*
X162560000Y-64770000D03*
X165100000Y-64770000D03*
X167640000Y-64770000D03*
X170180000Y-64770000D03*
%TD*%
D14*
%TO.C,J1*%
X114300000Y-97790000D03*
D12*
X114300000Y-95250000D03*
X114300000Y-92710000D03*
X114300000Y-90170000D03*
X114300000Y-87630000D03*
%TD*%
D14*
%TO.C,J1*%
X104140000Y-97790000D03*
D12*
X104140000Y-95250000D03*
X104140000Y-92710000D03*
X104140000Y-90170000D03*
X104140000Y-87630000D03*
%TD*%
D14*
%TO.C,J1*%
X119380000Y-97790000D03*
D12*
X119380000Y-95250000D03*
X119380000Y-92710000D03*
X119380000Y-90170000D03*
X119380000Y-87630000D03*
%TD*%
D14*
%TO.C,J1*%
X116840000Y-97790000D03*
D12*
X116840000Y-95250000D03*
X116840000Y-92710000D03*
X116840000Y-90170000D03*
X116840000Y-87630000D03*
%TD*%
D14*
%TO.C,J1*%
X111760000Y-97790000D03*
D12*
X111760000Y-95250000D03*
X111760000Y-92710000D03*
X111760000Y-90170000D03*
X111760000Y-87630000D03*
%TD*%
D14*
%TO.C,J1*%
X106680000Y-97790000D03*
D12*
X106680000Y-95250000D03*
X106680000Y-92710000D03*
X106680000Y-90170000D03*
X106680000Y-87630000D03*
%TD*%
D14*
%TO.C,J1*%
X121920000Y-97790000D03*
D12*
X121920000Y-95250000D03*
X121920000Y-92710000D03*
X121920000Y-90170000D03*
X121920000Y-87630000D03*
%TD*%
D14*
%TO.C,J1*%
X109220000Y-97790000D03*
D12*
X109220000Y-95250000D03*
X109220000Y-92710000D03*
X109220000Y-90170000D03*
X109220000Y-87630000D03*
%TD*%
D14*
%TO.C,J1*%
X101600000Y-97790000D03*
D12*
X101600000Y-95250000D03*
X101600000Y-92710000D03*
X101600000Y-90170000D03*
X101600000Y-87630000D03*
%TD*%
D14*
%TO.C,J1*%
X172720000Y-97790000D03*
D12*
X172720000Y-95250000D03*
X172720000Y-92710000D03*
X172720000Y-90170000D03*
X172720000Y-87630000D03*
%TD*%
D14*
%TO.C,J1*%
X154940000Y-97790000D03*
D12*
X154940000Y-95250000D03*
X154940000Y-92710000D03*
X154940000Y-90170000D03*
X154940000Y-87630000D03*
%TD*%
D14*
%TO.C,J1*%
X149860000Y-97790000D03*
D12*
X149860000Y-95250000D03*
X149860000Y-92710000D03*
X149860000Y-90170000D03*
X149860000Y-87630000D03*
%TD*%
D14*
%TO.C,J1*%
X170180000Y-97790000D03*
D12*
X170180000Y-95250000D03*
X170180000Y-92710000D03*
X170180000Y-90170000D03*
X170180000Y-87630000D03*
%TD*%
D14*
%TO.C,J1*%
X152400000Y-97790000D03*
D12*
X152400000Y-95250000D03*
X152400000Y-92710000D03*
X152400000Y-90170000D03*
X152400000Y-87630000D03*
%TD*%
D14*
%TO.C,J1*%
X157480000Y-97790000D03*
D12*
X157480000Y-95250000D03*
X157480000Y-92710000D03*
X157480000Y-90170000D03*
X157480000Y-87630000D03*
%TD*%
D14*
%TO.C,J1*%
X160020000Y-97790000D03*
D12*
X160020000Y-95250000D03*
X160020000Y-92710000D03*
X160020000Y-90170000D03*
X160020000Y-87630000D03*
%TD*%
D14*
%TO.C,J1*%
X162560000Y-97790000D03*
D12*
X162560000Y-95250000D03*
X162560000Y-92710000D03*
X162560000Y-90170000D03*
X162560000Y-87630000D03*
%TD*%
D14*
%TO.C,J1*%
X147320000Y-97790000D03*
D12*
X147320000Y-95250000D03*
X147320000Y-92710000D03*
X147320000Y-90170000D03*
X147320000Y-87630000D03*
%TD*%
D14*
%TO.C,J1*%
X142240000Y-97790000D03*
D12*
X142240000Y-95250000D03*
X142240000Y-92710000D03*
X142240000Y-90170000D03*
X142240000Y-87630000D03*
%TD*%
D14*
%TO.C,J1*%
X165100000Y-97790000D03*
D12*
X165100000Y-95250000D03*
X165100000Y-92710000D03*
X165100000Y-90170000D03*
X165100000Y-87630000D03*
%TD*%
D14*
%TO.C,J1*%
X167640000Y-97790000D03*
D12*
X167640000Y-95250000D03*
X167640000Y-92710000D03*
X167640000Y-90170000D03*
X167640000Y-87630000D03*
%TD*%
D14*
%TO.C,J1*%
X144780000Y-97790000D03*
D12*
X144780000Y-95250000D03*
X144780000Y-92710000D03*
X144780000Y-90170000D03*
X144780000Y-87630000D03*
%TD*%
D14*
%TO.C,J1*%
X139700000Y-97790000D03*
D12*
X139700000Y-95250000D03*
X139700000Y-92710000D03*
X139700000Y-90170000D03*
X139700000Y-87630000D03*
%TD*%
D14*
%TO.C,J1*%
X132080000Y-97790000D03*
D12*
X132080000Y-95250000D03*
X132080000Y-92710000D03*
X132080000Y-90170000D03*
X132080000Y-87630000D03*
%TD*%
D14*
%TO.C,J1*%
X134620000Y-97790000D03*
D12*
X134620000Y-95250000D03*
X134620000Y-92710000D03*
X134620000Y-90170000D03*
X134620000Y-87630000D03*
%TD*%
D14*
%TO.C,J1*%
X175260000Y-97790000D03*
D12*
X175260000Y-95250000D03*
X175260000Y-92710000D03*
X175260000Y-90170000D03*
X175260000Y-87630000D03*
%TD*%
D14*
%TO.C,J1*%
X137160000Y-97790000D03*
D12*
X137160000Y-95250000D03*
X137160000Y-92710000D03*
X137160000Y-90170000D03*
X137160000Y-87630000D03*
%TD*%
D14*
%TO.C,J1*%
X129540000Y-97790000D03*
D12*
X129540000Y-95250000D03*
X129540000Y-92710000D03*
X129540000Y-90170000D03*
X129540000Y-87630000D03*
%TD*%
D14*
%TO.C,J1*%
X124460000Y-97790000D03*
D12*
X124460000Y-95250000D03*
X124460000Y-92710000D03*
X124460000Y-90170000D03*
X124460000Y-87630000D03*
%TD*%
D14*
%TO.C,J1*%
X127000000Y-97790000D03*
D12*
X127000000Y-95250000D03*
X127000000Y-92710000D03*
X127000000Y-90170000D03*
X127000000Y-87630000D03*
%TD*%
D15*
%TO.C,J1*%
X175260000Y-69850000D03*
D12*
X175260000Y-72390000D03*
X175260000Y-74930000D03*
X175260000Y-77470000D03*
X175260000Y-80010000D03*
%TD*%
D15*
%TO.C,J1*%
X172720000Y-69850000D03*
D12*
X172720000Y-72390000D03*
X172720000Y-74930000D03*
X172720000Y-77470000D03*
X172720000Y-80010000D03*
%TD*%
D15*
%TO.C,J1*%
X170180000Y-69850000D03*
D12*
X170180000Y-72390000D03*
X170180000Y-74930000D03*
X170180000Y-77470000D03*
X170180000Y-80010000D03*
%TD*%
D15*
%TO.C,J1*%
X167640000Y-69850000D03*
D12*
X167640000Y-72390000D03*
X167640000Y-74930000D03*
X167640000Y-77470000D03*
X167640000Y-80010000D03*
%TD*%
D15*
%TO.C,J1*%
X165100000Y-69850000D03*
D12*
X165100000Y-72390000D03*
X165100000Y-74930000D03*
X165100000Y-77470000D03*
X165100000Y-80010000D03*
%TD*%
D15*
%TO.C,J1*%
X162560000Y-69850000D03*
D12*
X162560000Y-72390000D03*
X162560000Y-74930000D03*
X162560000Y-77470000D03*
X162560000Y-80010000D03*
%TD*%
D15*
%TO.C,J1*%
X160020000Y-69850000D03*
D12*
X160020000Y-72390000D03*
X160020000Y-74930000D03*
X160020000Y-77470000D03*
X160020000Y-80010000D03*
%TD*%
D15*
%TO.C,J1*%
X157480000Y-69850000D03*
D12*
X157480000Y-72390000D03*
X157480000Y-74930000D03*
X157480000Y-77470000D03*
X157480000Y-80010000D03*
%TD*%
D15*
%TO.C,J1*%
X154940000Y-69850000D03*
D12*
X154940000Y-72390000D03*
X154940000Y-74930000D03*
X154940000Y-77470000D03*
X154940000Y-80010000D03*
%TD*%
D15*
%TO.C,J1*%
X152400000Y-69850000D03*
D12*
X152400000Y-72390000D03*
X152400000Y-74930000D03*
X152400000Y-77470000D03*
X152400000Y-80010000D03*
%TD*%
D15*
%TO.C,J1*%
X149860000Y-69850000D03*
D12*
X149860000Y-72390000D03*
X149860000Y-74930000D03*
X149860000Y-77470000D03*
X149860000Y-80010000D03*
%TD*%
D15*
%TO.C,J1*%
X147320000Y-69850000D03*
D12*
X147320000Y-72390000D03*
X147320000Y-74930000D03*
X147320000Y-77470000D03*
X147320000Y-80010000D03*
%TD*%
D15*
%TO.C,J1*%
X144780000Y-69850000D03*
D12*
X144780000Y-72390000D03*
X144780000Y-74930000D03*
X144780000Y-77470000D03*
X144780000Y-80010000D03*
%TD*%
D15*
%TO.C,J1*%
X142240000Y-69850000D03*
D12*
X142240000Y-72390000D03*
X142240000Y-74930000D03*
X142240000Y-77470000D03*
X142240000Y-80010000D03*
%TD*%
D15*
%TO.C,J1*%
X139700000Y-69850000D03*
D12*
X139700000Y-72390000D03*
X139700000Y-74930000D03*
X139700000Y-77470000D03*
X139700000Y-80010000D03*
%TD*%
D15*
%TO.C,J1*%
X137160000Y-69850000D03*
D12*
X137160000Y-72390000D03*
X137160000Y-74930000D03*
X137160000Y-77470000D03*
X137160000Y-80010000D03*
%TD*%
D15*
%TO.C,J1*%
X134620000Y-69850000D03*
D12*
X134620000Y-72390000D03*
X134620000Y-74930000D03*
X134620000Y-77470000D03*
X134620000Y-80010000D03*
%TD*%
D15*
%TO.C,J1*%
X132080000Y-69850000D03*
D12*
X132080000Y-72390000D03*
X132080000Y-74930000D03*
X132080000Y-77470000D03*
X132080000Y-80010000D03*
%TD*%
D15*
%TO.C,J1*%
X129540000Y-69850000D03*
D12*
X129540000Y-72390000D03*
X129540000Y-74930000D03*
X129540000Y-77470000D03*
X129540000Y-80010000D03*
%TD*%
D15*
%TO.C,J1*%
X127000000Y-69850000D03*
D12*
X127000000Y-72390000D03*
X127000000Y-74930000D03*
X127000000Y-77470000D03*
X127000000Y-80010000D03*
%TD*%
D15*
%TO.C,J1*%
X124460000Y-69850000D03*
D12*
X124460000Y-72390000D03*
X124460000Y-74930000D03*
X124460000Y-77470000D03*
X124460000Y-80010000D03*
%TD*%
D15*
%TO.C,J1*%
X121920000Y-69850000D03*
D12*
X121920000Y-72390000D03*
X121920000Y-74930000D03*
X121920000Y-77470000D03*
X121920000Y-80010000D03*
%TD*%
D15*
%TO.C,J1*%
X119380000Y-69850000D03*
D12*
X119380000Y-72390000D03*
X119380000Y-74930000D03*
X119380000Y-77470000D03*
X119380000Y-80010000D03*
%TD*%
D15*
%TO.C,J1*%
X116840000Y-69850000D03*
D12*
X116840000Y-72390000D03*
X116840000Y-74930000D03*
X116840000Y-77470000D03*
X116840000Y-80010000D03*
%TD*%
D15*
%TO.C,J1*%
X114300000Y-69850000D03*
D12*
X114300000Y-72390000D03*
X114300000Y-74930000D03*
X114300000Y-77470000D03*
X114300000Y-80010000D03*
%TD*%
D15*
%TO.C,J1*%
X111760000Y-69850000D03*
D12*
X111760000Y-72390000D03*
X111760000Y-74930000D03*
X111760000Y-77470000D03*
X111760000Y-80010000D03*
%TD*%
D15*
%TO.C,J1*%
X109220000Y-69850000D03*
D12*
X109220000Y-72390000D03*
X109220000Y-74930000D03*
X109220000Y-77470000D03*
X109220000Y-80010000D03*
%TD*%
D15*
%TO.C,J1*%
X106680000Y-69850000D03*
D12*
X106680000Y-72390000D03*
X106680000Y-74930000D03*
X106680000Y-77470000D03*
X106680000Y-80010000D03*
%TD*%
D15*
%TO.C,J1*%
X104140000Y-69850000D03*
D12*
X104140000Y-72390000D03*
X104140000Y-74930000D03*
X104140000Y-77470000D03*
X104140000Y-80010000D03*
%TD*%
D15*
%TO.C,J1*%
X101600000Y-69850000D03*
D12*
X101600000Y-72390000D03*
X101600000Y-74930000D03*
X101600000Y-77470000D03*
X101600000Y-80010000D03*
%TD*%
D16*
%TO.C,J3*%
X93980000Y-67310000D03*
%TD*%
%TO.C,J3*%
X182880000Y-67310000D03*
%TD*%
%TO.C,J3*%
X180340000Y-67310000D03*
%TD*%
%TO.C,J3*%
X182880000Y-100330000D03*
%TD*%
%TO.C,J3*%
X180340000Y-100330000D03*
%TD*%
%TO.C,J3*%
X93980000Y-100330000D03*
%TD*%
%TO.C,J3*%
X96520000Y-100330000D03*
%TD*%
%TO.C,J3*%
X96520000Y-67310000D03*
%TD*%
%TO.C,J3*%
X180340000Y-95250000D03*
%TD*%
%TO.C,J3*%
X180340000Y-97790000D03*
%TD*%
%TO.C,J3*%
X182880000Y-97790000D03*
%TD*%
%TO.C,J3*%
X177800000Y-92710000D03*
%TD*%
%TO.C,J3*%
X177800000Y-95250000D03*
%TD*%
%TO.C,J3*%
X182880000Y-92710000D03*
%TD*%
%TO.C,J3*%
X180340000Y-92710000D03*
%TD*%
%TO.C,J3*%
X182880000Y-95250000D03*
%TD*%
%TO.C,J3*%
X177800000Y-97790000D03*
%TD*%
%TO.C,J3*%
X182880000Y-69850000D03*
%TD*%
%TO.C,J3*%
X180340000Y-69850000D03*
%TD*%
%TO.C,J3*%
X182880000Y-82550000D03*
%TD*%
%TO.C,J3*%
X182880000Y-74930000D03*
%TD*%
%TO.C,J3*%
X177800000Y-77470000D03*
%TD*%
%TO.C,J3*%
X182880000Y-72390000D03*
%TD*%
%TO.C,J3*%
X180340000Y-82550000D03*
%TD*%
%TO.C,J3*%
X177800000Y-82550000D03*
%TD*%
%TO.C,J3*%
X182880000Y-80010000D03*
%TD*%
%TO.C,J3*%
X177800000Y-80010000D03*
%TD*%
%TO.C,J3*%
X177800000Y-90170000D03*
%TD*%
%TO.C,J3*%
X182880000Y-85090000D03*
%TD*%
%TO.C,J3*%
X180340000Y-74930000D03*
%TD*%
%TO.C,J3*%
X177800000Y-85090000D03*
%TD*%
%TO.C,J3*%
X177800000Y-72390000D03*
%TD*%
%TO.C,J3*%
X180340000Y-72390000D03*
%TD*%
%TO.C,J3*%
X180340000Y-85090000D03*
%TD*%
%TO.C,J3*%
X180340000Y-77470000D03*
%TD*%
%TO.C,J3*%
X180340000Y-90170000D03*
%TD*%
%TO.C,J3*%
X182880000Y-87630000D03*
%TD*%
%TO.C,J3*%
X182880000Y-77470000D03*
%TD*%
%TO.C,J3*%
X177800000Y-69850000D03*
%TD*%
%TO.C,J3*%
X180340000Y-87630000D03*
%TD*%
%TO.C,J3*%
X177800000Y-74930000D03*
%TD*%
%TO.C,J3*%
X180340000Y-80010000D03*
%TD*%
%TO.C,J3*%
X177800000Y-87630000D03*
%TD*%
%TO.C,J3*%
X182880000Y-90170000D03*
%TD*%
%TO.C,J3*%
X99060000Y-97790000D03*
%TD*%
%TO.C,J3*%
X96520000Y-97790000D03*
%TD*%
%TO.C,J3*%
X93980000Y-97790000D03*
%TD*%
%TO.C,J3*%
X99060000Y-95250000D03*
%TD*%
%TO.C,J3*%
X96520000Y-95250000D03*
%TD*%
%TO.C,J3*%
X93980000Y-95250000D03*
%TD*%
%TO.C,J3*%
X99060000Y-92710000D03*
%TD*%
%TO.C,J3*%
X96520000Y-92710000D03*
%TD*%
%TO.C,J3*%
X93980000Y-92710000D03*
%TD*%
%TO.C,J3*%
X99060000Y-90170000D03*
%TD*%
%TO.C,J3*%
X96520000Y-90170000D03*
%TD*%
%TO.C,J3*%
X93980000Y-90170000D03*
%TD*%
%TO.C,J3*%
X99060000Y-87630000D03*
%TD*%
%TO.C,J3*%
X96520000Y-87630000D03*
%TD*%
%TO.C,J3*%
X93980000Y-87630000D03*
%TD*%
%TO.C,J3*%
X99060000Y-85090000D03*
%TD*%
%TO.C,J3*%
X96520000Y-85090000D03*
%TD*%
%TO.C,J3*%
X93980000Y-85090000D03*
%TD*%
%TO.C,J3*%
X99060000Y-82550000D03*
%TD*%
%TO.C,J3*%
X96520000Y-82550000D03*
%TD*%
%TO.C,J3*%
X93980000Y-82550000D03*
%TD*%
%TO.C,J3*%
X99060000Y-80010000D03*
%TD*%
%TO.C,J3*%
X96520000Y-80010000D03*
%TD*%
%TO.C,J3*%
X93980000Y-80010000D03*
%TD*%
%TO.C,J3*%
X99060000Y-77470000D03*
%TD*%
%TO.C,J3*%
X96520000Y-77470000D03*
%TD*%
%TO.C,J3*%
X93980000Y-77470000D03*
%TD*%
%TO.C,J3*%
X99060000Y-74930000D03*
%TD*%
%TO.C,J3*%
X96520000Y-74930000D03*
%TD*%
%TO.C,J3*%
X93980000Y-74930000D03*
%TD*%
%TO.C,J3*%
X99060000Y-72390000D03*
%TD*%
%TO.C,J3*%
X96520000Y-72390000D03*
%TD*%
%TO.C,J3*%
X93980000Y-72390000D03*
%TD*%
%TO.C,J3*%
X99060000Y-69850000D03*
%TD*%
%TO.C,J3*%
X96520000Y-69850000D03*
%TD*%
%TO.C,J3*%
X93980000Y-69850000D03*
%TD*%
M02*
